<svg width="193.331" height="40" viewBox="0 0 191.823 39.688" xmlns="http://www.w3.org/2000/svg">
    <path
          d="m20.075 37.006.116.005c1.43.025 2.626-1.362 1.834-3.038-.087 1.297-.658 1.998-1.866 1.998h-.167c-1.209 0-1.78-.701-1.867-1.998-.792 1.676.405 3.063 1.834 3.038q.06-.001.116-.005m0-2.063q.045.004.093.004c1.062.028 1.287-1.048 1.024-1.697-.168.65-.66.979-1.117.875-.457.104-.949-.226-1.117-.875-.262.65-.038 1.725 1.024 1.697q.048 0 .093-.004m0-3.21q.176-.006.331 0c3.343.147 7.601 1.294 9.357.613 1.206-.468 3.154-1.93 4.063-.645.276.39-.832 1.357-.855.212-.448-.922-1.406.456-.71 1.188-2.536 2.509-9.432-.352-10.09-.537-.189-.054-.293.147-.144.413.24.43.979 1.057 1.157 1.718.36 1.331-.71 3.467-2.848 3.527q-.133.003-.26-.004a3 3 0 0 1-.263.004c-2.136-.06-3.207-2.196-2.847-3.527.179-.661.917-1.289 1.158-1.718.149-.266.044-.467-.144-.413-.659.185-7.554 3.046-10.09.537.696-.732-.263-2.11-.71-1.188-.024 1.145-1.131.177-.856-.212.91-1.285 2.857.177 4.064.645 1.755.68 6.014-.466 9.356-.613q.156-.006.331 0m0-3.96c-.187-.028-.4.052-.416.235-.216 1.818-.022 1.55-.651 2.313-.892 1.082-1.764.987-3.167 1.065-1.325.074-2.379.163-2.604-.408-.12-.302.622-2.56 2.673-2.974.73-.148 2.076.215 2.076-.218-.002-.736-2.022-.516-2.657-.353-2.225.573-4.101 1.48-5.831 3.987 3.272 1.702 6.789.032 10.49-.16l.087.01.088-.01c3.701.192 7.217 1.862 10.49.16-1.73-2.507-3.607-3.414-5.831-3.987-.636-.163-2.655-.383-2.657.353 0 .433 1.346.07 2.075.218 2.051.415 2.793 2.672 2.674 2.974-.225.571-1.279.482-2.604.408-1.403-.078-2.276.017-3.167-1.065-.63-.762-.436-.495-.652-2.313-.015-.183-.228-.263-.416-.236m0-10.869c-.097-.055-.183-.25-.19-.565-.03-1.489-.419-3.073-.27-4.808.062-.612.253-.953.46-1.033.207.08.399.421.46 1.033.15 1.735-.239 3.32-.27 4.808-.007.315-.093.51-.19.565m0-15.439c-2.228 1.674-5.758 2.04-5.697 6.355-.034 1.71.76 2.668 3.74 2.64.892-.01.894 3.047.868 4.389-.558-.953-1.084-1.601-2.089-2.361-2.295-2.005-3.383-2.43-3.383-4.882 0-1.864.46-2.457 1.437-3.707-3.434.56-8.377 3.504-4.743 7.06 1.61 1.565 4.19.301 5.955 1.78 1.008.73 2.917 2.936 2.917 4.451l.05.893-.156 4.002c-.015.235-.314.188-.317-.023 0-4.324-2.306-7.389-6.335-7.389-1.49 0-2.345.31-3.914.248-1.481.019-3.226-1.163-3.285-2.412-1.648 1.583-1.402 5.438 1.628 5.12 1.95-.411 2.165-2.292 4.969-2.292 1.762-.012 3.194.03 4.583 1.481.608.635 1.13 1.236 1.47 3.43.032.503-.176.481-.296.207-1.04-2.358-2.123-2.932-4.04-3.013-3.082-.018-5.737 4.509-7.977 4.509-1.022 0-1.615-.404-2.207-1.208.054 1.877.312 3.622 2.335 3.64 1.241.019 2.25-1.507 2.92-2.605 1.163-1.907 3.387-4.133 5.821-3.628 2.136.56 3.374 2.806 3.374 6.121 0 .662-.269 1.828-1.066 1.828-.763 0-1.037-.183-1.037-.93 0-1.371.476-4.617-1.085-4.617-.851-.033-1.223.467-1.253 1.116.003.72 1.428 1.327 1.17.205-.08-.345.483-.485.515.037-.029 1.126-1.017.995-.915 3.42 0 1.866 1.481 1.481 3.417 1.492 1.59.19 1.026 1.893-.09 1.899-.55.022-.729-.31-1.095-.362-.306-.042-.607.044-.675.264-.171.92 1.146 1.176 2.191 1.176.744.04-.288.634-.8.65-.353.01-.338.37-.018.378 1.82-.052 1.943-1.299 2.3-2.977.032-.434.308-.623.813-.649.505.026.781.215.814.65.356 1.677.48 2.924 2.299 2.976.32-.008.335-.367-.018-.379-.512-.015-1.544-.61-.8-.649 1.045 0 2.362-.256 2.192-1.176-.069-.22-.37-.306-.675-.264-.367.051-.545.384-1.096.362-1.115-.006-1.679-1.708-.09-1.9 1.936-.01 3.417.375 3.417-1.49.102-2.426-.886-2.295-.914-3.42.032-.523.595-.383.515-.038-.258 1.122 1.166.514 1.169-.205-.03-.65-.402-1.15-1.253-1.116-1.56 0-1.084 3.246-1.084 4.618 0 .746-.275.93-1.038.93-.798 0-1.066-1.167-1.066-1.829 0-3.315 1.238-5.56 3.374-6.121 2.434-.505 4.658 1.721 5.822 3.628.67 1.098 1.678 2.624 2.92 2.605 2.023-.018 2.28-1.763 2.334-3.64-.592.804-1.185 1.208-2.207 1.208-2.24 0-4.894-4.527-7.978-4.51-1.917.082-2.998.656-4.038 3.014-.121.274-.329.296-.297-.207.34-2.194.862-2.795 1.47-3.43 1.39-1.45 2.82-1.493 4.584-1.481 2.803 0 3.02 1.88 4.968 2.292 3.03.318 3.276-3.537 1.628-5.12-.058 1.25-1.803 2.43-3.285 2.412-1.569.062-2.424-.248-3.913-.248-4.03 0-6.335 3.065-6.335 7.389-.004.21-.302.258-.318.023l-.155-4.002.05-.893c0-1.515 1.909-3.72 2.916-4.452 1.765-1.478 4.345-.214 5.955-1.778 3.634-3.557-1.308-6.502-4.743-7.06.977 1.249 1.437 1.842 1.437 3.706 0 2.451-1.087 2.877-3.383 4.882-1.005.76-1.53 1.408-2.088 2.361-.027-1.342-.025-4.399.867-4.39 2.98.029 3.775-.929 3.74-2.64.061-4.314-3.469-4.68-5.697-6.354m-1.329 2.708c-.806.224-1.228 1.528-1.164 2.884 0 .718.606 1.67 1.033 1.968-.291-.786-.726-2.649.131-4.852m.881 18.356c0-.424-.435-.483-.452.154.061 1.935-.825 1.862-.879 2.61 0 .554.108.947.82.872.629 0 .52-1.192.52-1.744zm-7.536-9.968c-.518.842-2.163 1.592-3.218 1.592-3.846 0-3.696-4.165-.728-6.129-.077 2.837 1.36 4.53 3.946 4.537m-4.154 5.559c-.468 1.85-1.233 3.004-2.806 3.004-2.1-.206-1.992-3.238-1.543-4.405 1.052 1.897 2.778 2.022 4.349 1.4m8.69 6.635c.385-.037.53.368.387.647-.143.28-.542.246-.714-.026-.132-.208-.05-.61.328-.62M6.26 27.083c-.873 0-1.945-1.387-2.068-2.254.54.236 1.202.491 1.865.388.754-.15.794-.224 1.19-.764.704 1.115.54 2.63-.987 2.63m1.518 1.885c-1.149.352-1.996-1.065-2.211-1.487.753.464 2.21.441 2.505-.386.295.79.457 1.52-.294 1.873m.411 1.467c-.489-.084-.786-.308-.88-.672.6.094 1.232-.083 1.465-.587.31.545.23 1.4-.585 1.259m5.578-1.574c-.519.503-1.018 1.445-1.425 2.046-.262.389-.673.253-.565.027.326-.684 1.262-1.848 1.99-2.073m-.414-.327c-.505.51-1.118 1.111-1.248 1.266-.824.98-1.232 1.553-1.464.981-.047-.115.408-.795 1.08-1.289.527-.387.98-.769 1.632-.958m3.542 9.013c-.774.412-2.742-.06-3.033-1.017 1.143-.56 1.705-.999 2.564-1.676-.032 1.276.101 1.689.47 2.693m-6.278-2.665c.574-.08 1.906.007 2.752-.263 1.375-.439 2.129-.55 3.413-1.09-.496.927-1.902 1.763-2.36 2.075-1.187 1.02-3.57.94-3.805-.722M21.404 4.172c.807.224 1.228 1.528 1.164 2.884 0 .718-.606 1.67-1.033 1.968.292-.786.727-2.649-.131-4.852m-.88 18.356c0-.424.434-.483.451.154-.06 1.935.825 1.862.88 2.61 0 .554-.108.947-.82.872-.63 0-.521-1.192-.521-1.744zm7.536-9.968c.517.842 2.162 1.592 3.217 1.592 3.847 0 3.696-4.165.728-6.129.077 2.837-1.36 4.53-3.945 4.537m4.154 5.559c.467 1.85 1.233 3.004 2.806 3.004 2.1-.206 1.992-3.238 1.542-4.405-1.052 1.897-2.778 2.022-4.348 1.4m-8.691 6.635c-.384-.037-.53.368-.387.647.144.28.542.246.715-.026.131-.208.05-.61-.328-.62m10.366 2.33c.874 0 1.946-1.387 2.068-2.254-.54.236-1.202.491-1.864.388-.754-.15-.794-.224-1.19-.764-.704 1.115-.54 2.63.986 2.63m-1.518 1.885c1.15.352 1.997-1.065 2.212-1.487-.754.464-2.21.441-2.506-.386-.294.79-.457 1.52.294 1.873m-.411 1.467c.488-.084.787-.308.88-.672-.6.094-1.231-.083-1.464-.587-.312.545-.231 1.4.584 1.259m-5.578-1.574c.52.503 1.019 1.445 1.425 2.046.263.389.673.253.566.027-.327-.684-1.262-1.848-1.991-2.073m.414-.327c.505.51 1.118 1.111 1.249 1.266.824.98 1.23 1.553 1.463.981.047-.115-.407-.795-1.079-1.289-.528-.387-.98-.769-1.633-.958m-3.542 9.013c.775.412 2.743-.06 3.034-1.017-1.144-.56-1.706-.999-2.565-1.676.032 1.276-.101 1.689-.469 2.693m6.278-2.665c-.575-.08-1.907.007-2.752-.263-1.375-.439-2.13-.55-3.413-1.09.495.927 1.901 1.763 2.36 2.075 1.187 1.02 3.569.94 3.805-.722"
          style="fill: #ffd900; fill-opacity: 1; fill-rule: evenodd; stroke: none; stroke-width: 0.629356"
        />
    <path d="M41.77 3.307h.793V36.38h-.793z" style="fill: #ccc; stroke-width: 0.316395" />
    <path
          d="M50.598 22.795c0 3.086 0 5.736-.168 7.145-.134.972-.302 1.71-.972 1.844a5.5 5.5 0 0 1-1.208.135c-.402 0-.537.1-.537.268 0 .235.235.335.671.335.671 0 1.543-.067 2.315-.067.805-.033 1.543-.033 1.911-.033.839 0 2.013.1 3.288.201 1.274.1 2.65.201 3.857.201 6.205 0 9.693-2.381 11.236-3.958 1.878-1.911 3.656-5.131 3.656-9.358 0-3.991-1.576-6.775-3.253-8.52-3.656-3.823-9.258-3.823-13.45-3.823-2.013 0-4.126.1-5.166.1-.939 0-3.052-.1-4.83-.1-.503 0-.738.067-.738.302s.202.302.57.302c.47 0 1.04.033 1.309.1 1.107.235 1.375.772 1.442 1.912.067 1.074.067 2.013.067 7.111Zm4.193-6.44c0-2.65 0-5.567.033-6.708 0-.369.1-.536.403-.67.268-.135 1.51-.235 2.18-.235 2.616 0 6.44.402 9.526 3.354 1.442 1.375 3.22 4.125 3.22 8.385 0 3.455-.671 6.507-2.818 8.352-2.012 1.744-4.293 2.415-7.714 2.415-2.65 0-3.958-.705-4.394-1.342-.269-.369-.336-1.71-.37-2.549-.033-.637-.066-3.22-.066-6.775zm30.254 16.637c1.778 0 3.656-.302 5.333-1.375 2.415-1.577 3.153-3.891 3.153-5.836 0-3.187-1.442-5.501-5.5-8.553l-.94-.705c-2.784-2.113-3.555-3.287-3.555-4.83 0-2.012 1.509-3.455 3.991-3.455 2.18 0 3.153 1.007 3.656 1.644.704.872.872 1.912.872 2.214 0 .402.1.603.336.603.268 0 .369-.268.369-1.006 0-2.616.134-3.589.134-4.025 0-.235-.168-.335-.47-.402-.872-.235-2.28-.57-4.46-.57-4.663 0-7.749 2.65-7.749 6.339 0 2.717 1.275 5.065 4.964 7.95l1.543 1.207c2.784 2.18 3.287 3.723 3.287 5.366 0 1.778-1.476 3.824-4.494 3.824-2.08 0-4.059-.906-4.797-3.388-.168-.57-.302-1.274-.302-1.71 0-.269-.033-.57-.335-.57-.268 0-.37.368-.403.872-.033.536-.167 2.549-.167 4.393 0 .738.1.906.637 1.14 1.442.638 2.952.873 4.897.873m20.93-10.197c0 3.086 0 5.736-.168 7.145-.1.972-.302 1.71-.973 1.844a5.5 5.5 0 0 1-1.207.135c-.403 0-.537.1-.537.268 0 .235.235.335.671.335 1.342 0 3.455-.1 4.226-.1.94 0 3.053.1 5.266.1.37 0 .638-.1.638-.335 0-.168-.168-.268-.537-.268-.503 0-1.241-.067-1.71-.135-1.007-.134-1.208-.872-1.309-1.81-.168-1.443-.168-4.093-.168-7.179V9.043l4.227.101c2.985.067 3.89 1.006 3.958 1.878l.033.37c.034.502.1.67.369.67.201 0 .268-.201.302-.537 0-.872.1-3.186.1-3.89 0-.503-.033-.705-.268-.705-.134 0-.402.067-.905.168-.504.067-1.241.168-2.315.168h-13.282c-1.107 0-2.382-.067-3.354-.168-.839-.067-1.174-.402-1.443-.402-.2 0-.301.2-.402.637-.067.268-.704 3.32-.704 3.857 0 .369.067.537.301.537.202 0 .302-.134.37-.403.066-.268.234-.67.57-1.174.503-.738 1.308-.905 3.253-.972l4.998-.135zm19.353 0c0 3.254 0 5.904-.168 7.312-.1.973-.301 1.543-.972 1.677a5.5 5.5 0 0 1-1.208.135c-.402 0-.536.1-.536.268 0 .235.234.335.67.335 1.342 0 3.455-.1 4.227-.1.905 0 3.018.1 5.232.1.369 0 .637-.1.637-.335 0-.168-.167-.268-.536-.268-.503 0-1.241-.067-1.71-.135-1.007-.134-1.242-.737-1.343-1.643-.134-1.442-.134-4.092-.134-7.346v-5.903c0-5.098 0-6.037.067-7.11.067-1.175.336-1.745 1.241-1.913.403-.067.671-.1 1.007-.1s.536-.067.536-.336c0-.2-.268-.268-.704-.268-1.275 0-3.254.1-4.092.1-.973 0-3.086-.1-4.36-.1-.537 0-.805.067-.805.268 0 .269.2.336.536.336.403 0 .839.033 1.208.134.738.168 1.073.738 1.14 1.878.067 1.074.067 2.013.067 7.111zm23.78-1.006c0 4.864 1.276 7.346 2.986 8.889 2.449 2.213 5.669 2.314 7.446 2.314 2.18 0 4.595-.369 6.977-2.415 2.817-2.415 3.186-6.373 3.186-10.096v-3.589c0-5.098 0-6.037.067-7.11.068-1.175.336-1.745 1.242-1.913.402-.067.603-.1.972-.1.403 0 .604-.067.604-.302s-.235-.302-.704-.302c-1.309 0-3.422.1-3.824.1-.034 0-2.147-.1-3.857-.1-.47 0-.705.067-.705.302s.201.302.57.302c.37 0 .94.033 1.208.1 1.107.235 1.375.772 1.442 1.912.067 1.074.067 2.013.067 7.111v4.193c0 3.455-.1 6.473-1.945 8.318-1.342 1.342-3.153 1.811-4.629 1.811-1.14 0-2.683-.134-4.192-1.375-1.644-1.342-2.617-3.388-2.617-8.251v-4.696c0-5.098 0-6.037.067-7.11.067-1.175.336-1.745 1.241-1.913.403-.067.604-.1.973-.1.336 0 .537-.067.537-.302s-.235-.302-.738-.302c-1.208 0-3.32.1-4.126.1-1.006 0-3.12-.1-4.897-.1-.503 0-.738.067-.738.302s.202.302.57.302c.47 0 1.04.033 1.309.1 1.107.235 1.375.772 1.442 1.912.067 1.074.067 2.013.067 7.111zm30.02 1.006c0 3.254 0 5.904-.167 7.312-.1.973-.302 1.543-.973 1.677a5.5 5.5 0 0 1-1.207.135c-.403 0-.537.1-.537.268 0 .235.235.335.67.335 1.342 0 3.456-.1 4.227-.1.906 0 3.019.1 5.232.1.37 0 .638-.1.638-.335 0-.168-.168-.268-.537-.268-.503 0-1.241-.067-1.71-.135-1.007-.134-1.242-.737-1.342-1.643-.134-1.442-.134-4.092-.134-7.346v-5.903c0-5.098 0-6.037.067-7.11.067-1.175.335-1.745 1.24-1.913.403-.067.672-.1 1.007-.1s.537-.067.537-.336c0-.2-.269-.268-.705-.268-1.274 0-3.253.1-4.092.1-.972 0-3.086-.1-4.36-.1-.537 0-.805.067-.805.268 0 .269.201.336.537.336.402 0 .838.033 1.207.134.738.168 1.073.738 1.14 1.878.068 1.074.068 2.013.068 7.111z"
          style="fill: rgba(var(--v-theme-on-surface),1); stroke-width: 0.559023"
        />
</svg>
