<svg width="1440" height="1024" viewBox="0 0 1440 1024" fill="none" xmlns="http://www.w3.org/2000/svg">
<g filter="url(#filter0_f_60_118)">
<ellipse cx="468.602" cy="386.84" rx="468.602" ry="386.84" transform="matrix(0.864809 0.502101 -0.409221 0.912435 188.606 318.068)" fill="url(#paint0_linear_60_118)"/>
</g>
<g filter="url(#filter1_f_60_118)">
<ellipse cx="423.992" cy="464.032" rx="423.992" ry="464.032" transform="matrix(0.864809 0.502101 -0.409221 0.912435 411.653 150.774)" fill="url(#paint1_linear_60_118)"/>
</g>
<g filter="url(#filter2_f_60_118)">
<ellipse cx="667.607" cy="422.163" rx="667.607" ry="422.163" transform="matrix(0.727923 -0.685659 0.588358 0.808601 410.667 915.502)" fill="url(#paint2_linear_60_118)"/>
</g>
<g filter="url(#filter3_f_60_118)">
<path d="M-128.574 623.887C-1061.93 102.193 -32.9497 121.811 333.193 -124.551C699.336 -370.912 1086.23 -435.256 1197.35 -268.267C2056.82 1312.88 1101.72 233.81 735.579 480.171C369.436 726.533 -17.4586 790.877 -128.574 623.887Z" fill="url(#paint3_linear_60_118)"/>
</g>
<g opacity="0.8" filter="url(#filter4_f_60_118)">
<ellipse cx="595.706" cy="637.187" rx="595.706" ry="637.187" transform="matrix(-0.992482 0.122391 -0.610461 -0.792046 2217.74 823.764)" fill="url(#paint4_linear_60_118)"/>
</g>
<defs>
<filter id="filter0_f_60_118" x="-299.635" y="182.076" width="1470.38" height="1448.49" filterUnits="userSpaceOnUse" color-interpolation-filters="sRGB">
<feFlood flood-opacity="0" result="BackgroundImageFix"/>
<feBlend mode="normal" in="SourceGraphic" in2="BackgroundImageFix" result="shape"/>
<feGaussianBlur stdDeviation="150" result="effect1_foregroundBlur_60_118"/>
</filter>
<filter id="filter1_f_60_118" x="58.3224" y="195.95" width="1060.22" height="1182.22" filterUnits="userSpaceOnUse" color-interpolation-filters="sRGB">
<feFlood flood-opacity="0" result="BackgroundImageFix"/>
<feBlend mode="normal" in="SourceGraphic" in2="BackgroundImageFix" result="shape"/>
<feGaussianBlur stdDeviation="58.55" result="effect1_foregroundBlur_60_118"/>
</filter>
<filter id="filter2_f_60_118" x="399.137" y="28.0581" width="1491.76" height="1542.11" filterUnits="userSpaceOnUse" color-interpolation-filters="sRGB">
<feFlood flood-opacity="0" result="BackgroundImageFix"/>
<feBlend mode="normal" in="SourceGraphic" in2="BackgroundImageFix" result="shape"/>
<feGaussianBlur stdDeviation="100" result="effect1_foregroundBlur_60_118"/>
</filter>
<filter id="filter3_f_60_118" x="-589.68" y="-441.137" width="2215.63" height="1237.9" filterUnits="userSpaceOnUse" color-interpolation-filters="sRGB">
<feFlood flood-opacity="0" result="BackgroundImageFix"/>
<feBlend mode="normal" in="SourceGraphic" in2="BackgroundImageFix" result="shape"/>
<feGaussianBlur stdDeviation="40" result="effect1_foregroundBlur_60_118"/>
</filter>
<filter id="filter4_f_60_118" x="451.849" y="-195.896" width="1571.38" height="1175.77" filterUnits="userSpaceOnUse" color-interpolation-filters="sRGB">
<feFlood flood-opacity="0" result="BackgroundImageFix"/>
<feBlend mode="normal" in="SourceGraphic" in2="BackgroundImageFix" result="shape"/>
<feGaussianBlur stdDeviation="38.95" result="effect1_foregroundBlur_60_118"/>
</filter>
<linearGradient id="paint0_linear_60_118" x1="0" y1="386.84" x2="937.203" y2="386.84" gradientUnits="userSpaceOnUse">
<stop stop-color="#191919"/>
<stop offset="1" stop-color="#5A5A5A"/>
</linearGradient>
<linearGradient id="paint1_linear_60_118" x1="0" y1="464.032" x2="847.985" y2="464.032" gradientUnits="userSpaceOnUse">
<stop/>
<stop offset="0.48" stop-color="#282828"/>
<stop offset="1" stop-color="#5A5A5A"/>
</linearGradient>
<linearGradient id="paint2_linear_60_118" x1="565.588" y1="272.445" x2="369.684" y2="560.801" gradientUnits="userSpaceOnUse">
<stop offset="0.197384" stop-color="#5A5A5A"/>
<stop offset="1"/>
</linearGradient>
<linearGradient id="paint3_linear_60_118" x1="1197.35" y1="-482.56" x2="-133.128" y2="402.747" gradientUnits="userSpaceOnUse">
<stop/>
<stop offset="0.509" stop-color="#454545"/>
<stop offset="1" stop-color="#5A5A5A"/>
</linearGradient>
<linearGradient id="paint4_linear_60_118" x1="0" y1="637.187" x2="1191.41" y2="637.187" gradientUnits="userSpaceOnUse">
<stop/>
<stop offset="1" stop-color="#5A5A5A"/>
</linearGradient>
</defs>
</svg>
