<svg width="1440" height="1024" viewBox="0 0 1440 1024" fill="none" xmlns="http://www.w3.org/2000/svg">
<rect x="1528.17" y="-230.135" width="343.667" height="343.667" transform="rotate(135 1528.17 -230.135)" stroke="white" stroke-opacity="0.33"/>
<rect x="1528.35" y="-230.135" width="343.926" height="343.926" transform="rotate(135 1528.35 -230.135)" fill="black"/>
<rect x="1528.35" y="-230.135" width="343.926" height="343.926" transform="rotate(135 1528.35 -230.135)" fill="#191919"/>
<rect x="1528.35" y="-230.135" width="343.926" height="343.926" transform="rotate(135 1528.35 -230.135)" stroke="black" stroke-width="0.741219"/>
<g filter="url(#filter0_f_279_201)">
<rect x="1528.88" y="-230.135" width="344.667" height="344.667" transform="rotate(135 1528.88 -230.135)" fill="black"/>
<rect x="1528.88" y="-230.135" width="344.667" height="344.667" transform="rotate(135 1528.88 -230.135)" fill="#2F2F2F"/>
<rect x="1528.35" y="-230.135" width="343.926" height="343.926" transform="rotate(135 1528.35 -230.135)" stroke="black" stroke-width="0.741219"/>
</g>
<rect x="1772.59" y="13.5813" width="344.667" height="344.667" transform="rotate(135 1772.59 13.5813)" fill="black"/>
<rect x="1772.59" y="13.5813" width="344.667" height="344.667" transform="rotate(135 1772.59 13.5813)" fill="#242424"/>
<rect x="1771.89" y="13.5813" width="343.667" height="343.667" transform="rotate(135 1771.89 13.5813)" stroke="white" stroke-opacity="0.33"/>
<rect x="2015.6" y="257.297" width="343.667" height="343.667" transform="rotate(135 2015.6 257.297)" stroke="white" stroke-opacity="0.33"/>
<g filter="url(#filter1_f_279_201)">
<rect x="2016.31" y="257.297" width="344.667" height="344.667" transform="rotate(135 2016.31 257.297)" fill="black"/>
<rect x="2016.31" y="257.297" width="344.667" height="344.667" transform="rotate(135 2016.31 257.297)" fill="#2F2F2F"/>
<rect x="2015.79" y="257.297" width="343.926" height="343.926" transform="rotate(135 2015.79 257.297)" stroke="black" stroke-width="0.741219"/>
</g>
<rect x="1040.74" y="-230.135" width="343.667" height="343.667" transform="rotate(135 1040.74 -230.135)" stroke="white" stroke-opacity="0.33"/>
<rect x="1040.92" y="-230.135" width="343.926" height="343.926" transform="rotate(135 1040.92 -230.135)" fill="black"/>
<rect x="1040.92" y="-230.135" width="343.926" height="343.926" transform="rotate(135 1040.92 -230.135)" fill="#191919"/>
<rect x="1040.92" y="-230.135" width="343.926" height="343.926" transform="rotate(135 1040.92 -230.135)" stroke="black" stroke-width="0.741219"/>
<g filter="url(#filter2_f_279_201)">
<rect x="1041.45" y="-230.135" width="344.667" height="344.667" transform="rotate(135 1041.45 -230.135)" fill="black"/>
<rect x="1041.45" y="-230.135" width="344.667" height="344.667" transform="rotate(135 1041.45 -230.135)" fill="#2F2F2F"/>
<rect x="1040.92" y="-230.135" width="343.926" height="343.926" transform="rotate(135 1040.92 -230.135)" stroke="black" stroke-width="0.741219"/>
</g>
<rect x="1285.16" y="13.5813" width="344.667" height="344.667" transform="rotate(135 1285.16 13.5813)" fill="black"/>
<rect x="1285.16" y="13.5813" width="344.667" height="344.667" transform="rotate(135 1285.16 13.5813)" fill="#242424"/>
<rect x="1284.46" y="13.5813" width="343.667" height="343.667" transform="rotate(135 1284.46 13.5813)" stroke="white" stroke-opacity="0.33"/>
<rect x="1528.17" y="257.298" width="343.667" height="343.667" transform="rotate(135 1528.17 257.298)" stroke="white" stroke-opacity="0.33"/>
<rect x="1528.35" y="257.298" width="343.926" height="343.926" transform="rotate(135 1528.35 257.298)" fill="black"/>
<rect x="1528.35" y="257.298" width="343.926" height="343.926" transform="rotate(135 1528.35 257.298)" fill="#191919"/>
<rect x="1528.35" y="257.298" width="343.926" height="343.926" transform="rotate(135 1528.35 257.298)" stroke="black" stroke-width="0.741219"/>
<g filter="url(#filter3_f_279_201)">
<rect x="1528.88" y="257.298" width="344.667" height="344.667" transform="rotate(135 1528.88 257.298)" fill="black"/>
<rect x="1528.88" y="257.298" width="344.667" height="344.667" transform="rotate(135 1528.88 257.298)" fill="#2F2F2F"/>
<rect x="1528.35" y="257.298" width="343.926" height="343.926" transform="rotate(135 1528.35 257.298)" stroke="black" stroke-width="0.741219"/>
</g>
<rect x="1772.59" y="501.014" width="344.667" height="344.667" transform="rotate(135 1772.59 501.014)" fill="black"/>
<rect x="1772.59" y="501.014" width="344.667" height="344.667" transform="rotate(135 1772.59 501.014)" fill="#242424"/>
<rect x="1771.89" y="501.014" width="343.667" height="343.667" transform="rotate(135 1771.89 501.014)" stroke="white" stroke-opacity="0.33"/>
<rect x="2015.6" y="744.73" width="343.667" height="343.667" transform="rotate(135 2015.6 744.73)" stroke="white" stroke-opacity="0.33"/>
<g filter="url(#filter4_f_279_201)">
<rect x="2016.31" y="744.73" width="344.667" height="344.667" transform="rotate(135 2016.31 744.73)" fill="black"/>
<rect x="2016.31" y="744.73" width="344.667" height="344.667" transform="rotate(135 2016.31 744.73)" fill="#2F2F2F"/>
<rect x="2015.79" y="744.73" width="343.926" height="343.926" transform="rotate(135 2015.79 744.73)" stroke="black" stroke-width="0.741219"/>
</g>
<rect x="553.307" y="-230.135" width="343.667" height="343.667" transform="rotate(135 553.307 -230.135)" stroke="white" stroke-opacity="0.33"/>
<rect x="553.49" y="-230.135" width="343.926" height="343.926" transform="rotate(135 553.49 -230.135)" fill="black"/>
<rect x="553.49" y="-230.135" width="343.926" height="343.926" transform="rotate(135 553.49 -230.135)" fill="#191919"/>
<rect x="553.49" y="-230.135" width="343.926" height="343.926" transform="rotate(135 553.49 -230.135)" stroke="black" stroke-width="0.741219"/>
<g filter="url(#filter5_f_279_201)">
<rect x="554.014" y="-230.135" width="344.667" height="344.667" transform="rotate(135 554.014 -230.135)" fill="black"/>
<rect x="554.014" y="-230.135" width="344.667" height="344.667" transform="rotate(135 554.014 -230.135)" fill="#2F2F2F"/>
<rect x="553.49" y="-230.135" width="343.926" height="343.926" transform="rotate(135 553.49 -230.135)" stroke="black" stroke-width="0.741219"/>
</g>
<rect x="797.73" y="13.5814" width="344.667" height="344.667" transform="rotate(135 797.73 13.5814)" fill="black"/>
<rect x="797.73" y="13.5814" width="344.667" height="344.667" transform="rotate(135 797.73 13.5814)" fill="#242424"/>
<rect x="797.023" y="13.5814" width="343.667" height="343.667" transform="rotate(135 797.023 13.5814)" stroke="white" stroke-opacity="0.33"/>
<rect x="1040.74" y="257.298" width="343.667" height="343.667" transform="rotate(135 1040.74 257.298)" stroke="white" stroke-opacity="0.33"/>
<rect x="1040.92" y="257.298" width="343.926" height="343.926" transform="rotate(135 1040.92 257.298)" fill="black"/>
<rect x="1040.92" y="257.298" width="343.926" height="343.926" transform="rotate(135 1040.92 257.298)" fill="#191919"/>
<rect x="1040.92" y="257.298" width="343.926" height="343.926" transform="rotate(135 1040.92 257.298)" stroke="black" stroke-width="0.741219"/>
<g filter="url(#filter6_f_279_201)">
<rect x="1041.45" y="257.298" width="344.667" height="344.667" transform="rotate(135 1041.45 257.298)" fill="black"/>
<rect x="1041.45" y="257.298" width="344.667" height="344.667" transform="rotate(135 1041.45 257.298)" fill="#2F2F2F"/>
<rect x="1040.92" y="257.298" width="343.926" height="343.926" transform="rotate(135 1040.92 257.298)" stroke="black" stroke-width="0.741219"/>
</g>
<rect x="1285.16" y="501.014" width="344.667" height="344.667" transform="rotate(135 1285.16 501.014)" fill="black"/>
<rect x="1285.16" y="501.014" width="344.667" height="344.667" transform="rotate(135 1285.16 501.014)" fill="#242424"/>
<rect x="1284.46" y="501.014" width="343.667" height="343.667" transform="rotate(135 1284.46 501.014)" stroke="white" stroke-opacity="0.33"/>
<rect x="1528.17" y="744.73" width="343.667" height="343.667" transform="rotate(135 1528.17 744.73)" stroke="white" stroke-opacity="0.33"/>
<rect x="1528.35" y="744.73" width="343.926" height="343.926" transform="rotate(135 1528.35 744.73)" fill="black"/>
<rect x="1528.35" y="744.73" width="343.926" height="343.926" transform="rotate(135 1528.35 744.73)" fill="#191919"/>
<rect x="1528.35" y="744.73" width="343.926" height="343.926" transform="rotate(135 1528.35 744.73)" stroke="black" stroke-width="0.741219"/>
<g filter="url(#filter7_f_279_201)">
<rect x="1528.88" y="744.73" width="344.667" height="344.667" transform="rotate(135 1528.88 744.73)" fill="black"/>
<rect x="1528.88" y="744.73" width="344.667" height="344.667" transform="rotate(135 1528.88 744.73)" fill="#2F2F2F"/>
<rect x="1528.35" y="744.73" width="343.926" height="343.926" transform="rotate(135 1528.35 744.73)" stroke="black" stroke-width="0.741219"/>
</g>
<rect x="1772.59" y="988.446" width="344.667" height="344.667" transform="rotate(135 1772.59 988.446)" fill="black"/>
<rect x="1772.59" y="988.446" width="344.667" height="344.667" transform="rotate(135 1772.59 988.446)" fill="#242424"/>
<rect x="1771.89" y="988.446" width="343.667" height="343.667" transform="rotate(135 1771.89 988.446)" stroke="white" stroke-opacity="0.33"/>
<rect x="65.8739" y="-230.135" width="343.667" height="343.667" transform="rotate(135 65.8739 -230.135)" stroke="white" stroke-opacity="0.33"/>
<rect x="66.0569" y="-230.135" width="343.926" height="343.926" transform="rotate(135 66.0569 -230.135)" fill="black"/>
<rect x="66.0569" y="-230.135" width="343.926" height="343.926" transform="rotate(135 66.0569 -230.135)" fill="#191919"/>
<rect x="66.0569" y="-230.135" width="343.926" height="343.926" transform="rotate(135 66.0569 -230.135)" stroke="black" stroke-width="0.741219"/>
<g filter="url(#filter8_f_279_201)">
<rect x="66.5811" y="-230.135" width="344.667" height="344.667" transform="rotate(135 66.5811 -230.135)" fill="black"/>
<rect x="66.5811" y="-230.135" width="344.667" height="344.667" transform="rotate(135 66.5811 -230.135)" fill="#2F2F2F"/>
<rect x="66.0569" y="-230.135" width="343.926" height="343.926" transform="rotate(135 66.0569 -230.135)" stroke="black" stroke-width="0.741219"/>
</g>
<rect x="310.297" y="13.5814" width="344.667" height="344.667" transform="rotate(135 310.297 13.5814)" fill="black"/>
<rect x="310.297" y="13.5814" width="344.667" height="344.667" transform="rotate(135 310.297 13.5814)" fill="#242424"/>
<rect x="309.59" y="13.5814" width="343.667" height="343.667" transform="rotate(135 309.59 13.5814)" stroke="white" stroke-opacity="0.33"/>
<rect x="553.307" y="257.298" width="343.667" height="343.667" transform="rotate(135 553.307 257.298)" stroke="white" stroke-opacity="0.33"/>
<rect x="553.49" y="257.298" width="343.926" height="343.926" transform="rotate(135 553.49 257.298)" fill="black"/>
<rect x="553.49" y="257.298" width="343.926" height="343.926" transform="rotate(135 553.49 257.298)" fill="#191919"/>
<rect x="553.49" y="257.298" width="343.926" height="343.926" transform="rotate(135 553.49 257.298)" stroke="black" stroke-width="0.741219"/>
<g filter="url(#filter9_f_279_201)">
<rect x="554.014" y="257.298" width="344.667" height="344.667" transform="rotate(135 554.014 257.298)" fill="black"/>
<rect x="554.014" y="257.298" width="344.667" height="344.667" transform="rotate(135 554.014 257.298)" fill="#2F2F2F"/>
<rect x="553.49" y="257.298" width="343.926" height="343.926" transform="rotate(135 553.49 257.298)" stroke="black" stroke-width="0.741219"/>
</g>
<rect x="797.73" y="501.014" width="344.667" height="344.667" transform="rotate(135 797.73 501.014)" fill="black"/>
<rect x="797.73" y="501.014" width="344.667" height="344.667" transform="rotate(135 797.73 501.014)" fill="#242424"/>
<rect x="797.023" y="501.014" width="343.667" height="343.667" transform="rotate(135 797.023 501.014)" stroke="white" stroke-opacity="0.33"/>
<rect x="1040.74" y="744.73" width="343.667" height="343.667" transform="rotate(135 1040.74 744.73)" stroke="white" stroke-opacity="0.33"/>
<rect x="1040.92" y="744.73" width="343.926" height="343.926" transform="rotate(135 1040.92 744.73)" fill="black"/>
<rect x="1040.92" y="744.73" width="343.926" height="343.926" transform="rotate(135 1040.92 744.73)" fill="#191919"/>
<rect x="1040.92" y="744.73" width="343.926" height="343.926" transform="rotate(135 1040.92 744.73)" stroke="black" stroke-width="0.741219"/>
<g filter="url(#filter10_f_279_201)">
<rect x="1041.45" y="744.73" width="344.667" height="344.667" transform="rotate(135 1041.45 744.73)" fill="black"/>
<rect x="1041.45" y="744.73" width="344.667" height="344.667" transform="rotate(135 1041.45 744.73)" fill="#2F2F2F"/>
<rect x="1040.92" y="744.73" width="343.926" height="343.926" transform="rotate(135 1040.92 744.73)" stroke="black" stroke-width="0.741219"/>
</g>
<rect x="1285.16" y="988.447" width="344.667" height="344.667" transform="rotate(135 1285.16 988.447)" fill="black"/>
<rect x="1285.16" y="988.447" width="344.667" height="344.667" transform="rotate(135 1285.16 988.447)" fill="#242424"/>
<rect x="1284.46" y="988.447" width="343.667" height="343.667" transform="rotate(135 1284.46 988.447)" stroke="white" stroke-opacity="0.33"/>
<rect x="1528.17" y="1232.16" width="343.667" height="343.667" transform="rotate(135 1528.17 1232.16)" stroke="white" stroke-opacity="0.33"/>
<rect x="1528.35" y="1232.16" width="343.926" height="343.926" transform="rotate(135 1528.35 1232.16)" fill="black"/>
<rect x="1528.35" y="1232.16" width="343.926" height="343.926" transform="rotate(135 1528.35 1232.16)" fill="#191919"/>
<rect x="1528.35" y="1232.16" width="343.926" height="343.926" transform="rotate(135 1528.35 1232.16)" stroke="black" stroke-width="0.741219"/>
<g filter="url(#filter11_f_279_201)">
<rect x="1528.88" y="1232.16" width="344.667" height="344.667" transform="rotate(135 1528.88 1232.16)" fill="black"/>
<rect x="1528.88" y="1232.16" width="344.667" height="344.667" transform="rotate(135 1528.88 1232.16)" fill="#2F2F2F"/>
<rect x="1528.35" y="1232.16" width="343.926" height="343.926" transform="rotate(135 1528.35 1232.16)" stroke="black" stroke-width="0.741219"/>
</g>
<rect x="65.8739" y="257.298" width="343.667" height="343.667" transform="rotate(135 65.8739 257.298)" stroke="white" stroke-opacity="0.33"/>
<rect x="66.0569" y="257.298" width="343.926" height="343.926" transform="rotate(135 66.0569 257.298)" fill="black"/>
<rect x="66.0569" y="257.298" width="343.926" height="343.926" transform="rotate(135 66.0569 257.298)" fill="#191919"/>
<rect x="66.0569" y="257.298" width="343.926" height="343.926" transform="rotate(135 66.0569 257.298)" stroke="black" stroke-width="0.741219"/>
<g filter="url(#filter12_f_279_201)">
<rect x="66.5811" y="257.298" width="344.667" height="344.667" transform="rotate(135 66.5811 257.298)" fill="black"/>
<rect x="66.5811" y="257.298" width="344.667" height="344.667" transform="rotate(135 66.5811 257.298)" fill="#2F2F2F"/>
<rect x="66.0569" y="257.298" width="343.926" height="343.926" transform="rotate(135 66.0569 257.298)" stroke="black" stroke-width="0.741219"/>
</g>
<rect x="310.297" y="501.014" width="344.667" height="344.667" transform="rotate(135 310.297 501.014)" fill="black"/>
<rect x="310.297" y="501.014" width="344.667" height="344.667" transform="rotate(135 310.297 501.014)" fill="#242424"/>
<rect x="309.59" y="501.014" width="343.667" height="343.667" transform="rotate(135 309.59 501.014)" stroke="white" stroke-opacity="0.33"/>
<rect x="553.307" y="744.73" width="343.667" height="343.667" transform="rotate(135 553.307 744.73)" stroke="white" stroke-opacity="0.33"/>
<rect x="553.49" y="744.73" width="343.926" height="343.926" transform="rotate(135 553.49 744.73)" fill="black"/>
<rect x="553.49" y="744.73" width="343.926" height="343.926" transform="rotate(135 553.49 744.73)" fill="#191919"/>
<rect x="553.49" y="744.73" width="343.926" height="343.926" transform="rotate(135 553.49 744.73)" stroke="black" stroke-width="0.741219"/>
<g filter="url(#filter13_f_279_201)">
<rect x="554.014" y="744.73" width="344.667" height="344.667" transform="rotate(135 554.014 744.73)" fill="black"/>
<rect x="554.014" y="744.73" width="344.667" height="344.667" transform="rotate(135 554.014 744.73)" fill="#2F2F2F"/>
<rect x="553.49" y="744.73" width="343.926" height="343.926" transform="rotate(135 553.49 744.73)" stroke="black" stroke-width="0.741219"/>
</g>
<rect x="797.73" y="988.447" width="344.667" height="344.667" transform="rotate(135 797.73 988.447)" fill="black"/>
<rect x="797.73" y="988.447" width="344.667" height="344.667" transform="rotate(135 797.73 988.447)" fill="#242424"/>
<rect x="797.023" y="988.447" width="343.667" height="343.667" transform="rotate(135 797.023 988.447)" stroke="white" stroke-opacity="0.33"/>
<rect x="1040.74" y="1232.16" width="343.667" height="343.667" transform="rotate(135 1040.74 1232.16)" stroke="white" stroke-opacity="0.33"/>
<rect x="1040.92" y="1232.16" width="343.926" height="343.926" transform="rotate(135 1040.92 1232.16)" fill="black"/>
<rect x="1040.92" y="1232.16" width="343.926" height="343.926" transform="rotate(135 1040.92 1232.16)" fill="#191919"/>
<rect x="1040.92" y="1232.16" width="343.926" height="343.926" transform="rotate(135 1040.92 1232.16)" stroke="black" stroke-width="0.741219"/>
<g filter="url(#filter14_f_279_201)">
<rect x="1041.45" y="1232.16" width="344.667" height="344.667" transform="rotate(135 1041.45 1232.16)" fill="black"/>
<rect x="1041.45" y="1232.16" width="344.667" height="344.667" transform="rotate(135 1041.45 1232.16)" fill="#2F2F2F"/>
<rect x="1040.92" y="1232.16" width="343.926" height="343.926" transform="rotate(135 1040.92 1232.16)" stroke="black" stroke-width="0.741219"/>
</g>
<rect x="65.8739" y="744.73" width="343.667" height="343.667" transform="rotate(135 65.8739 744.73)" stroke="white" stroke-opacity="0.33"/>
<rect x="66.0569" y="744.73" width="343.926" height="343.926" transform="rotate(135 66.0569 744.73)" fill="black"/>
<rect x="66.0569" y="744.73" width="343.926" height="343.926" transform="rotate(135 66.0569 744.73)" fill="#191919"/>
<rect x="66.0569" y="744.73" width="343.926" height="343.926" transform="rotate(135 66.0569 744.73)" stroke="black" stroke-width="0.741219"/>
<g filter="url(#filter15_f_279_201)">
<rect x="66.5811" y="744.73" width="344.667" height="344.667" transform="rotate(135 66.5811 744.73)" fill="black"/>
<rect x="66.5811" y="744.73" width="344.667" height="344.667" transform="rotate(135 66.5811 744.73)" fill="#2F2F2F"/>
<rect x="66.0569" y="744.73" width="343.926" height="343.926" transform="rotate(135 66.0569 744.73)" stroke="black" stroke-width="0.741219"/>
</g>
<rect x="310.297" y="988.447" width="344.667" height="344.667" transform="rotate(135 310.297 988.447)" fill="black"/>
<rect x="310.297" y="988.447" width="344.667" height="344.667" transform="rotate(135 310.297 988.447)" fill="#242424"/>
<rect x="309.59" y="988.447" width="343.667" height="343.667" transform="rotate(135 309.59 988.447)" stroke="white" stroke-opacity="0.33"/>
<rect x="553.307" y="1232.16" width="343.667" height="343.667" transform="rotate(135 553.307 1232.16)" stroke="white" stroke-opacity="0.33"/>
<rect x="553.49" y="1232.16" width="343.926" height="343.926" transform="rotate(135 553.49 1232.16)" fill="black"/>
<rect x="553.49" y="1232.16" width="343.926" height="343.926" transform="rotate(135 553.49 1232.16)" fill="#191919"/>
<rect x="553.49" y="1232.16" width="343.926" height="343.926" transform="rotate(135 553.49 1232.16)" stroke="black" stroke-width="0.741219"/>
<g filter="url(#filter16_f_279_201)">
<rect x="554.014" y="1232.16" width="344.667" height="344.667" transform="rotate(135 554.014 1232.16)" fill="black"/>
<rect x="554.014" y="1232.16" width="344.667" height="344.667" transform="rotate(135 554.014 1232.16)" fill="#2F2F2F"/>
<rect x="553.49" y="1232.16" width="343.926" height="343.926" transform="rotate(135 553.49 1232.16)" stroke="black" stroke-width="0.741219"/>
</g>
<rect x="65.8739" y="1232.16" width="343.667" height="343.667" transform="rotate(135 65.8739 1232.16)" stroke="white" stroke-opacity="0.33"/>
<rect x="66.0569" y="1232.16" width="343.926" height="343.926" transform="rotate(135 66.0569 1232.16)" fill="black"/>
<rect x="66.0569" y="1232.16" width="343.926" height="343.926" transform="rotate(135 66.0569 1232.16)" fill="#191919"/>
<rect x="66.0569" y="1232.16" width="343.926" height="343.926" transform="rotate(135 66.0569 1232.16)" stroke="black" stroke-width="0.741219"/>
<g filter="url(#filter17_f_279_201)">
<rect x="66.5811" y="1232.16" width="344.667" height="344.667" transform="rotate(135 66.5811 1232.16)" fill="black"/>
<rect x="66.5811" y="1232.16" width="344.667" height="344.667" transform="rotate(135 66.5811 1232.16)" fill="#2F2F2F"/>
<rect x="66.0569" y="1232.16" width="343.926" height="343.926" transform="rotate(135 66.0569 1232.16)" stroke="black" stroke-width="0.741219"/>
</g>
<defs>
<filter id="filter0_f_279_201" x="864.295" y="-651.003" width="841.735" height="841.735" filterUnits="userSpaceOnUse" color-interpolation-filters="sRGB">
<feFlood flood-opacity="0" result="BackgroundImageFix"/>
<feBlend mode="normal" in="SourceGraphic" in2="BackgroundImageFix" result="shape"/>
<feGaussianBlur stdDeviation="88.5757" result="effect1_foregroundBlur_279_201"/>
</filter>
<filter id="filter1_f_279_201" x="1351.73" y="-163.57" width="841.735" height="841.735" filterUnits="userSpaceOnUse" color-interpolation-filters="sRGB">
<feFlood flood-opacity="0" result="BackgroundImageFix"/>
<feBlend mode="normal" in="SourceGraphic" in2="BackgroundImageFix" result="shape"/>
<feGaussianBlur stdDeviation="88.5757" result="effect1_foregroundBlur_279_201"/>
</filter>
<filter id="filter2_f_279_201" x="376.862" y="-651.003" width="841.735" height="841.735" filterUnits="userSpaceOnUse" color-interpolation-filters="sRGB">
<feFlood flood-opacity="0" result="BackgroundImageFix"/>
<feBlend mode="normal" in="SourceGraphic" in2="BackgroundImageFix" result="shape"/>
<feGaussianBlur stdDeviation="88.5757" result="effect1_foregroundBlur_279_201"/>
</filter>
<filter id="filter3_f_279_201" x="864.295" y="-163.57" width="841.735" height="841.735" filterUnits="userSpaceOnUse" color-interpolation-filters="sRGB">
<feFlood flood-opacity="0" result="BackgroundImageFix"/>
<feBlend mode="normal" in="SourceGraphic" in2="BackgroundImageFix" result="shape"/>
<feGaussianBlur stdDeviation="88.5757" result="effect1_foregroundBlur_279_201"/>
</filter>
<filter id="filter4_f_279_201" x="1351.73" y="323.863" width="841.735" height="841.735" filterUnits="userSpaceOnUse" color-interpolation-filters="sRGB">
<feFlood flood-opacity="0" result="BackgroundImageFix"/>
<feBlend mode="normal" in="SourceGraphic" in2="BackgroundImageFix" result="shape"/>
<feGaussianBlur stdDeviation="88.5757" result="effect1_foregroundBlur_279_201"/>
</filter>
<filter id="filter5_f_279_201" x="-110.57" y="-651.002" width="841.735" height="841.735" filterUnits="userSpaceOnUse" color-interpolation-filters="sRGB">
<feFlood flood-opacity="0" result="BackgroundImageFix"/>
<feBlend mode="normal" in="SourceGraphic" in2="BackgroundImageFix" result="shape"/>
<feGaussianBlur stdDeviation="88.5757" result="effect1_foregroundBlur_279_201"/>
</filter>
<filter id="filter6_f_279_201" x="376.862" y="-163.57" width="841.735" height="841.735" filterUnits="userSpaceOnUse" color-interpolation-filters="sRGB">
<feFlood flood-opacity="0" result="BackgroundImageFix"/>
<feBlend mode="normal" in="SourceGraphic" in2="BackgroundImageFix" result="shape"/>
<feGaussianBlur stdDeviation="88.5757" result="effect1_foregroundBlur_279_201"/>
</filter>
<filter id="filter7_f_279_201" x="864.295" y="323.863" width="841.735" height="841.735" filterUnits="userSpaceOnUse" color-interpolation-filters="sRGB">
<feFlood flood-opacity="0" result="BackgroundImageFix"/>
<feBlend mode="normal" in="SourceGraphic" in2="BackgroundImageFix" result="shape"/>
<feGaussianBlur stdDeviation="88.5757" result="effect1_foregroundBlur_279_201"/>
</filter>
<filter id="filter8_f_279_201" x="-598.003" y="-651.003" width="841.735" height="841.735" filterUnits="userSpaceOnUse" color-interpolation-filters="sRGB">
<feFlood flood-opacity="0" result="BackgroundImageFix"/>
<feBlend mode="normal" in="SourceGraphic" in2="BackgroundImageFix" result="shape"/>
<feGaussianBlur stdDeviation="88.5757" result="effect1_foregroundBlur_279_201"/>
</filter>
<filter id="filter9_f_279_201" x="-110.57" y="-163.57" width="841.735" height="841.735" filterUnits="userSpaceOnUse" color-interpolation-filters="sRGB">
<feFlood flood-opacity="0" result="BackgroundImageFix"/>
<feBlend mode="normal" in="SourceGraphic" in2="BackgroundImageFix" result="shape"/>
<feGaussianBlur stdDeviation="88.5757" result="effect1_foregroundBlur_279_201"/>
</filter>
<filter id="filter10_f_279_201" x="376.862" y="323.863" width="841.735" height="841.735" filterUnits="userSpaceOnUse" color-interpolation-filters="sRGB">
<feFlood flood-opacity="0" result="BackgroundImageFix"/>
<feBlend mode="normal" in="SourceGraphic" in2="BackgroundImageFix" result="shape"/>
<feGaussianBlur stdDeviation="88.5757" result="effect1_foregroundBlur_279_201"/>
</filter>
<filter id="filter11_f_279_201" x="864.295" y="811.295" width="841.735" height="841.735" filterUnits="userSpaceOnUse" color-interpolation-filters="sRGB">
<feFlood flood-opacity="0" result="BackgroundImageFix"/>
<feBlend mode="normal" in="SourceGraphic" in2="BackgroundImageFix" result="shape"/>
<feGaussianBlur stdDeviation="88.5757" result="effect1_foregroundBlur_279_201"/>
</filter>
<filter id="filter12_f_279_201" x="-598.003" y="-163.57" width="841.735" height="841.735" filterUnits="userSpaceOnUse" color-interpolation-filters="sRGB">
<feFlood flood-opacity="0" result="BackgroundImageFix"/>
<feBlend mode="normal" in="SourceGraphic" in2="BackgroundImageFix" result="shape"/>
<feGaussianBlur stdDeviation="88.5757" result="effect1_foregroundBlur_279_201"/>
</filter>
<filter id="filter13_f_279_201" x="-110.57" y="323.863" width="841.735" height="841.735" filterUnits="userSpaceOnUse" color-interpolation-filters="sRGB">
<feFlood flood-opacity="0" result="BackgroundImageFix"/>
<feBlend mode="normal" in="SourceGraphic" in2="BackgroundImageFix" result="shape"/>
<feGaussianBlur stdDeviation="88.5757" result="effect1_foregroundBlur_279_201"/>
</filter>
<filter id="filter14_f_279_201" x="376.862" y="811.295" width="841.735" height="841.735" filterUnits="userSpaceOnUse" color-interpolation-filters="sRGB">
<feFlood flood-opacity="0" result="BackgroundImageFix"/>
<feBlend mode="normal" in="SourceGraphic" in2="BackgroundImageFix" result="shape"/>
<feGaussianBlur stdDeviation="88.5757" result="effect1_foregroundBlur_279_201"/>
</filter>
<filter id="filter15_f_279_201" x="-598.003" y="323.863" width="841.735" height="841.735" filterUnits="userSpaceOnUse" color-interpolation-filters="sRGB">
<feFlood flood-opacity="0" result="BackgroundImageFix"/>
<feBlend mode="normal" in="SourceGraphic" in2="BackgroundImageFix" result="shape"/>
<feGaussianBlur stdDeviation="88.5757" result="effect1_foregroundBlur_279_201"/>
</filter>
<filter id="filter16_f_279_201" x="-110.57" y="811.295" width="841.735" height="841.735" filterUnits="userSpaceOnUse" color-interpolation-filters="sRGB">
<feFlood flood-opacity="0" result="BackgroundImageFix"/>
<feBlend mode="normal" in="SourceGraphic" in2="BackgroundImageFix" result="shape"/>
<feGaussianBlur stdDeviation="88.5757" result="effect1_foregroundBlur_279_201"/>
</filter>
<filter id="filter17_f_279_201" x="-598.003" y="811.295" width="841.735" height="841.735" filterUnits="userSpaceOnUse" color-interpolation-filters="sRGB">
<feFlood flood-opacity="0" result="BackgroundImageFix"/>
<feBlend mode="normal" in="SourceGraphic" in2="BackgroundImageFix" result="shape"/>
<feGaussianBlur stdDeviation="88.5757" result="effect1_foregroundBlur_279_201"/>
</filter>
</defs>
</svg>
