<svg width="100%" height="100%" viewBox="0 0 1016 1734" fill="none" xmlns="http://www.w3.org/2000/svg">
<g filter="url(#filter0_d_349_2)">
<path fill-rule="evenodd" clip-rule="evenodd" d="M507.776 1053.61C508.909 1053.73 509.917 1053.73 511.05 1053.73C551.716 1054.49 585.584 1015.08 563.173 967.492C560.655 1004.38 544.54 1024.27 510.168 1024.27C509.413 1024.27 508.532 1024.27 507.776 1024.27C507.021 1024.27 506.14 1024.27 505.384 1024.27C471.013 1024.27 454.898 1004.38 452.38 967.492C429.843 1015.08 463.837 1054.49 504.503 1053.73C505.636 1053.73 506.769 1053.61 507.776 1053.61ZM507.776 995.065C508.658 995.19 509.539 995.19 510.42 995.19C540.511 995.946 546.932 965.478 539.504 946.97C534.719 965.352 520.744 974.794 507.776 971.773C494.808 974.669 480.833 965.352 476.049 946.97C468.621 965.352 475.042 995.946 505.132 995.19C506.014 995.19 506.895 995.19 507.776 995.065ZM507.776 903.912C511.05 903.786 514.197 903.786 517.219 903.912C612.149 908.067 733.014 940.675 782.997 921.286C817.243 907.941 872.639 866.519 898.449 903.03C906.255 914.11 874.78 941.556 874.15 909.074C861.434 882.886 834.239 922.042 854.006 942.815C781.99 1014.08 586.213 932.869 567.454 927.581C562.04 926.07 559.144 931.736 563.425 939.29C570.224 951.503 591.249 969.255 596.285 988.014C606.483 1025.78 576.141 1086.47 515.456 1088.23C512.938 1088.36 510.42 1088.23 508.028 1088.11C505.636 1088.23 503.118 1088.23 500.6 1088.23C439.915 1086.6 409.447 1025.91 419.771 988.014C424.807 969.255 445.833 951.377 452.631 939.29C456.912 931.736 453.89 926.07 448.603 927.581C429.843 932.869 234.066 1014.08 162.05 942.815C181.817 922.042 154.622 882.886 141.906 909.074C141.277 941.556 109.801 914.11 117.607 903.03C143.417 866.519 198.688 908.067 233.059 921.286C282.916 940.675 403.907 908.067 498.711 903.912C501.607 903.786 504.755 903.786 508.154 903.912H507.776ZM507.776 791.356C502.488 790.6 496.319 792.867 495.942 798.029C489.772 849.648 495.312 842.094 477.434 863.749C452.128 894.469 427.325 891.825 387.54 893.966C349.896 896.106 319.931 898.624 313.636 882.383C310.237 873.821 331.262 809.737 389.555 797.903C410.203 793.748 448.477 804.072 448.477 791.733C448.477 770.834 391.065 777.003 373.062 781.661C309.859 797.903 256.603 823.712 207.501 894.847C300.416 943.193 400.256 895.728 505.384 890.314C506.265 890.44 507.021 890.44 507.902 890.566C508.784 890.44 509.539 890.44 510.42 890.314C615.548 895.728 715.388 943.193 808.304 894.847C759.202 823.587 705.82 797.903 642.743 781.661C624.739 777.003 567.328 770.834 567.328 791.733C567.328 804.072 605.602 793.748 626.25 797.903C684.542 809.737 705.568 873.821 702.168 882.383C695.747 898.624 665.909 896.106 628.264 893.966C588.479 891.699 563.677 894.469 538.37 863.749C520.492 842.094 526.032 849.648 519.863 798.029C519.485 792.867 513.442 790.6 508.028 791.356H507.776ZM507.776 482.645C505.006 481.008 502.614 475.594 502.363 466.529C501.481 424.226 490.402 379.28 494.683 329.926C496.445 312.552 501.859 302.857 507.776 300.591C513.694 302.857 519.107 312.552 520.87 329.926C525.151 379.154 514.071 424.226 513.19 466.529C512.938 475.468 510.546 481.008 507.776 482.645ZM507.776 44.1294C444.574 91.7202 344.23 102.044 345.993 224.546C344.985 273.145 367.522 300.339 452.254 299.458C477.56 299.206 477.686 386.078 476.93 424.101C461.067 397.032 446.21 378.65 417.631 356.995C352.414 300.087 321.568 288.001 321.568 218.377C321.568 165.499 334.662 148.628 362.36 113.124C264.786 128.987 124.532 212.586 227.645 313.685C273.347 358.128 346.622 322.246 396.731 364.171C425.311 384.945 479.574 447.518 479.574 490.577L480.959 515.883L476.553 629.572C476.049 636.245 467.614 634.86 467.488 628.943C467.488 506.188 402.019 419.065 287.574 419.065C245.271 419.065 220.972 427.878 176.403 426.115C134.352 426.619 84.7468 393.129 83.1101 357.625C36.2746 402.571 43.3251 512.106 129.316 503.041C184.713 491.332 190.756 437.95 270.452 437.95C320.561 437.698 361.101 438.831 400.634 480.001C417.883 498.005 432.739 515.127 442.433 577.449C443.315 591.676 437.397 591.172 433.998 583.366C404.411 516.387 373.691 500.145 319.302 497.753C231.8 497.249 156.385 625.795 92.8045 625.795C63.7212 625.795 46.9763 614.338 30.1055 591.55C31.6163 644.806 38.9186 694.411 96.4556 694.915C131.708 695.419 160.288 652.108 179.425 620.885C212.411 566.747 275.614 503.545 344.734 517.897C405.418 533.761 440.545 597.593 440.545 691.768C440.545 710.527 432.865 743.639 410.203 743.639C388.547 743.639 380.742 738.477 380.742 717.2C380.742 678.17 394.213 586.01 349.896 586.01C325.723 585.129 315.147 599.23 314.265 617.737C314.391 638.133 354.806 655.382 347.504 623.529C345.237 613.708 361.227 609.68 362.108 624.536C361.353 656.515 333.277 652.738 336.172 721.732C336.172 774.737 378.224 763.783 433.243 764.035C478.315 769.449 462.326 817.795 430.724 817.921C415.113 818.55 409.951 809.108 399.627 807.597C390.94 806.338 382.378 808.856 380.49 815.151C375.705 841.339 413.098 848.515 442.685 848.515C463.837 849.648 434.502 866.519 420.023 866.897C409.951 867.149 410.454 877.472 419.519 877.598C471.139 876.088 474.664 840.709 484.862 793.118C485.744 780.78 493.675 775.366 508.028 774.737C522.381 775.492 530.187 780.78 531.194 793.118C541.266 840.709 544.791 876.213 596.537 877.598C605.602 877.347 606.105 867.149 596.033 866.897C581.555 866.393 552.22 849.522 573.371 848.515C603.084 848.515 640.477 841.213 635.566 815.151C633.678 808.856 625.117 806.464 616.429 807.597C605.98 809.108 600.944 818.55 585.332 817.921C553.604 817.795 537.615 769.449 582.814 764.035C637.833 763.657 679.884 774.611 679.884 721.732C682.78 652.864 654.704 656.515 653.948 624.536C654.829 609.68 670.819 613.708 668.553 623.529C661.25 655.382 701.665 638.133 701.791 617.737C700.909 599.23 690.334 585.129 666.161 586.01C621.843 586.01 635.315 678.17 635.315 717.2C635.315 738.351 627.509 743.639 605.854 743.639C583.191 743.639 575.511 710.527 575.511 691.768C575.511 597.593 610.638 533.887 671.323 517.897C740.443 503.545 803.645 566.747 836.631 620.885C855.643 652.108 884.348 695.419 919.601 694.915C977.012 694.411 984.44 644.806 985.951 591.55C969.08 614.338 952.335 625.795 923.252 625.795C859.671 625.795 784.256 497.249 696.755 497.753C642.365 500.019 611.645 516.387 582.058 583.366C578.659 591.172 572.742 591.802 573.623 577.449C583.317 515.127 598.048 498.131 615.422 480.001C654.829 438.831 695.496 437.572 745.604 437.95C825.174 437.95 831.344 491.332 886.74 503.041C972.857 512.106 979.782 402.571 932.946 357.625C931.309 393.129 881.704 426.619 839.653 426.115C795.084 427.878 770.785 419.065 728.482 419.065C614.037 419.065 548.568 506.063 548.568 628.943C548.443 634.986 540.007 636.245 539.504 629.572L535.097 515.883L536.482 490.577C536.482 447.518 590.745 384.945 619.325 364.171C669.434 322.246 742.709 358.128 788.411 313.685C891.65 212.712 751.27 129.113 653.696 113.124C681.395 148.628 694.488 165.499 694.488 218.377C694.488 288.001 663.643 300.087 598.425 356.995C569.846 378.65 554.989 397.032 539.126 424.101C538.37 385.952 538.37 299.206 563.803 299.458C648.408 300.213 670.945 273.019 670.064 224.546C671.826 102.044 571.483 91.5943 508.28 44.1294H507.776ZM470.006 121.055C447.092 127.476 435.131 164.491 436.894 203.017C436.894 223.413 454.142 250.482 466.229 258.918C457.919 236.633 445.581 183.628 470.006 121.181V121.055ZM495.06 642.414C495.06 630.453 482.722 628.691 482.218 646.821C483.981 701.84 458.801 699.699 457.29 720.977C457.29 736.714 460.311 747.794 480.582 745.653C498.46 745.653 495.312 711.786 495.312 696.174L495.06 642.414ZM281.027 359.261C266.297 383.183 219.587 404.46 189.623 404.46C80.3402 404.46 84.6209 286.238 168.975 230.464C166.835 311.041 207.627 359.009 281.027 359.261ZM163.058 517.142C149.838 569.643 128.057 602.503 83.3619 602.503C23.6845 596.712 26.832 510.469 39.5481 477.357C69.3868 531.243 118.488 534.768 163.058 517.142ZM409.825 705.617C420.778 704.609 424.807 716.067 420.778 723.998C416.749 731.93 405.418 731.049 400.508 723.243C396.731 717.326 399.123 705.994 409.825 705.617ZM115.467 771.841C90.6642 771.841 60.196 732.434 56.7966 707.883C72.1566 714.556 90.916 721.858 109.675 718.836C131.079 714.556 132.212 712.415 143.543 697.181C163.561 728.783 158.903 771.841 115.467 771.841ZM158.651 825.349C126.043 835.295 101.995 795.133 95.8261 783.172C117.229 796.392 158.525 795.762 166.961 772.219C175.27 794.629 179.928 815.403 158.651 825.349ZM170.36 867.023C156.511 864.63 148.075 858.335 145.305 847.886C162.302 850.529 180.306 845.493 186.853 831.267C195.666 846.752 193.4 871.051 170.234 867.023H170.36ZM328.744 822.328C314.014 836.554 299.787 863.371 288.33 880.494C280.902 891.573 269.193 887.67 272.214 881.249C281.531 861.861 308.096 828.749 328.744 822.328ZM317.035 813.011C302.683 827.489 285.308 844.612 281.531 849.019C258.113 876.843 246.53 893.084 239.984 876.843C238.599 873.569 251.566 854.307 270.578 840.206C285.56 829.252 298.402 818.299 316.909 813.011H317.035ZM417.631 1068.97C395.598 1080.68 339.698 1067.21 331.514 1040.01C363.997 1024.15 379.986 1011.68 404.285 992.421C403.404 1028.68 407.181 1040.39 417.631 1068.97ZM239.354 993.302C255.721 991.036 293.492 993.428 317.539 985.874C356.568 973.41 377.972 970.262 414.483 954.902C400.382 981.215 360.471 1005.01 347.504 1013.82C313.762 1042.78 246.153 1040.52 239.48 993.302H239.354ZM545.673 121.181C568.587 127.602 580.547 164.617 578.785 203.143C578.785 223.539 561.536 250.608 549.45 259.044C557.759 236.759 570.098 183.754 545.673 121.307V121.181ZM520.618 642.54C520.618 630.579 532.957 628.817 533.46 646.947C531.698 701.966 556.878 699.825 558.389 721.103C558.389 736.84 555.367 747.92 535.097 745.779C517.219 745.779 520.366 711.912 520.366 696.3L520.618 642.54ZM734.651 359.387C749.382 383.308 796.091 404.586 826.056 404.586C935.338 404.586 931.058 286.364 846.704 230.59C848.844 311.167 808.052 359.135 734.651 359.387ZM852.621 517.268C865.841 569.769 887.622 602.629 932.317 602.629C991.994 596.838 988.846 510.595 976.13 477.483C946.292 531.369 897.19 534.894 852.621 517.268ZM605.854 705.743C594.9 704.735 590.871 716.192 594.9 724.124C598.929 732.056 610.26 731.175 615.17 723.369C618.947 717.451 616.555 706.12 605.854 705.743ZM900.212 771.967C925.014 771.967 955.483 732.56 958.882 708.009C943.522 714.682 924.763 721.984 906.003 718.962C884.6 714.682 883.467 712.541 872.136 697.307C852.117 728.908 856.776 771.967 900.212 771.967ZM857.027 825.475C889.636 835.421 913.683 795.259 919.852 783.298C898.449 796.518 857.153 795.888 848.718 772.345C840.408 794.755 835.75 815.529 857.027 825.475ZM845.319 867.149C859.168 864.756 867.603 858.461 870.373 848.011C853.376 850.655 835.372 845.619 828.825 831.392C820.012 846.878 822.279 871.177 845.444 867.149H845.319ZM686.934 822.453C701.665 836.68 715.892 863.497 727.349 880.62C734.777 891.699 746.486 887.796 743.464 881.375C734.147 861.987 707.582 828.874 686.934 822.453ZM698.643 813.137C712.996 827.615 730.37 844.738 734.147 849.145C757.565 876.969 769.148 893.21 775.695 876.969C777.08 873.695 764.112 854.432 745.101 840.331C730.119 829.378 717.277 818.425 698.769 813.137H698.643ZM598.048 1069.09C620.081 1080.8 675.981 1067.33 684.164 1040.14C651.682 1024.27 635.692 1011.81 611.393 992.547C612.275 1028.81 608.498 1040.52 598.048 1069.09ZM776.324 993.428C759.957 991.162 722.187 993.554 698.14 986C659.11 973.535 637.707 970.388 601.195 955.028C615.296 981.341 655.207 1005.14 668.175 1013.95C701.917 1042.91 769.526 1040.64 776.199 993.428H776.324Z" fill="currentColor"/>
<path d="M43.4526 1209.22C43.4526 1229.24 48.4886 1239.44 55.2873 1245.73C64.9818 1254.8 77.6978 1255.3 84.7483 1255.3C93.3096 1255.3 102.878 1253.79 112.321 1245.36C123.526 1235.41 124.911 1219.17 124.911 1203.93V1189.2C124.911 1168.3 124.911 1164.4 125.163 1159.99C125.415 1155.21 126.422 1152.82 130.073 1152.19C131.71 1151.94 132.465 1151.81 133.976 1151.81C135.613 1151.81 136.368 1151.56 136.368 1150.55C136.368 1149.55 135.487 1149.29 133.598 1149.29C128.436 1149.29 120.127 1149.67 118.49 1149.67C118.364 1149.67 110.055 1149.29 103.256 1149.29C101.367 1149.29 100.486 1149.55 100.486 1150.55C100.486 1151.56 101.241 1151.81 102.752 1151.81C104.263 1151.81 106.403 1151.94 107.537 1152.19C111.943 1153.2 112.95 1155.34 113.202 1159.99C113.454 1164.4 113.454 1168.3 113.454 1189.2V1206.45C113.454 1220.68 113.076 1233.02 105.774 1240.7C100.486 1246.24 93.3096 1248.13 87.5182 1248.13C82.9857 1248.13 76.9424 1247.62 70.8991 1242.46C64.3523 1236.92 60.5752 1228.49 60.5752 1208.59V1189.33C60.5752 1168.43 60.5752 1164.53 60.827 1160.12C61.0788 1155.34 62.2119 1152.94 65.7372 1152.31C67.3739 1152.06 68.1293 1151.94 69.6401 1151.94C71.025 1151.94 71.7805 1151.69 71.7805 1150.68C71.7805 1149.67 70.8991 1149.42 68.8847 1149.42C64.1005 1149.42 55.7909 1149.8 52.5175 1149.8C48.4886 1149.8 40.1791 1149.42 33.1286 1149.42C31.1142 1149.42 30.2329 1149.67 30.2329 1150.68C30.2329 1151.69 30.9883 1151.94 32.4991 1151.94C34.3877 1151.94 36.6539 1152.06 37.6611 1152.31C42.0677 1153.32 43.0749 1155.46 43.3267 1160.12C43.5785 1164.53 43.5785 1168.43 43.5785 1189.33V1209.47L43.4526 1209.22ZM750.39 1409.03C757.441 1409.03 764.869 1407.77 771.416 1403.36C780.984 1396.94 783.88 1387.37 783.88 1379.44C783.88 1366.35 778.215 1356.91 762.099 1344.31L758.448 1341.42C747.495 1332.73 744.347 1327.95 744.347 1321.53C744.347 1313.22 750.264 1307.3 760.085 1307.3C768.646 1307.3 772.549 1311.45 774.563 1314.1C777.333 1317.62 777.963 1321.9 777.963 1323.16C777.963 1324.8 778.34 1325.68 779.348 1325.68C780.355 1325.68 780.858 1324.55 780.858 1321.53C780.858 1310.83 781.362 1306.8 781.362 1305.03C781.362 1304.03 780.733 1303.65 779.474 1303.4C776.074 1302.39 770.409 1301 761.847 1301C743.466 1301 731.253 1311.96 731.253 1327.07C731.253 1338.27 736.289 1347.84 750.894 1359.67L756.937 1364.59C767.891 1373.52 769.905 1379.95 769.905 1386.62C769.905 1393.92 764.114 1402.36 752.153 1402.36C743.969 1402.36 736.163 1398.58 733.142 1388.38C732.512 1385.99 731.883 1383.09 731.883 1381.33C731.883 1380.2 731.757 1378.94 730.498 1378.94C729.491 1378.94 729.113 1380.45 728.861 1382.59C728.735 1384.86 728.232 1393.04 728.232 1400.59C728.232 1403.61 728.609 1404.37 730.75 1405.25C736.415 1407.9 742.458 1408.9 750.138 1408.9L750.39 1409.03ZM815.481 1367.1C815.481 1380.45 815.481 1391.4 814.852 1397.19C814.474 1401.22 813.719 1403.49 810.949 1404.12C809.69 1404.37 808.179 1404.62 806.165 1404.62C804.528 1404.62 804.024 1405 804.024 1405.75C804.024 1406.76 804.906 1407.14 806.668 1407.14C811.956 1407.14 820.266 1406.76 823.413 1406.76C827.064 1406.76 835.374 1407.14 844.061 1407.14C845.572 1407.14 846.579 1406.76 846.579 1405.75C846.579 1405 845.95 1404.62 844.439 1404.62C842.424 1404.62 839.529 1404.37 837.64 1404.12C833.611 1403.61 832.73 1401.1 832.352 1397.32C831.849 1391.4 831.849 1380.45 831.849 1367.1V1342.8C831.849 1321.9 831.849 1318 832.1 1313.59C832.352 1308.81 833.485 1306.42 837.011 1305.79C838.647 1305.54 839.655 1305.41 841.039 1305.41C842.424 1305.41 843.18 1305.16 843.18 1304.03C843.18 1303.27 842.173 1302.89 840.41 1302.89C835.374 1302.89 827.568 1303.27 824.295 1303.27C820.392 1303.27 812.082 1302.89 807.046 1302.89C804.906 1302.89 803.898 1303.15 803.898 1304.03C803.898 1305.16 804.654 1305.41 806.039 1305.41C807.676 1305.41 809.312 1305.54 810.823 1305.91C813.719 1306.54 815.104 1308.94 815.356 1313.59C815.607 1318 815.607 1321.9 815.607 1342.8V1367.1H815.481ZM910.285 1371.13C910.915 1371.13 911.293 1371.38 911.67 1372.14L922.246 1401.35C922.876 1402.99 921.994 1404.24 920.987 1404.5C919.602 1404.62 919.098 1404.87 919.098 1405.75C919.098 1406.76 920.735 1406.76 923.127 1406.89C933.703 1407.14 943.398 1407.14 948.182 1407.14C953.092 1407.14 954.225 1406.89 954.225 1405.75C954.225 1404.75 953.596 1404.62 952.462 1404.62C950.826 1404.62 948.937 1404.5 946.923 1404.12C944.153 1403.24 940.25 1401.35 935.214 1389.01C926.778 1368.11 905.501 1311.96 902.354 1304.28C901.095 1301.13 900.213 1299.87 899.08 1299.87C897.695 1299.87 896.94 1301.38 895.303 1305.41L862.065 1391.91C859.421 1398.83 856.903 1403.49 850.734 1404.24C849.727 1404.37 847.838 1404.5 846.579 1404.5C845.572 1404.5 844.942 1404.75 844.942 1405.63C844.942 1406.76 845.698 1407.01 847.46 1407.01C854.385 1407.01 861.687 1406.64 863.072 1406.64C867.227 1406.64 872.893 1407.01 877.173 1407.01C878.684 1407.01 879.439 1406.76 879.439 1405.63C879.439 1404.75 879.062 1404.5 877.425 1404.5H875.411C871.256 1404.5 870.123 1402.73 870.123 1400.22C870.123 1398.58 870.752 1395.31 872.137 1391.78L879.314 1372.14C879.565 1371.26 879.817 1371.01 880.573 1371.01H910.159L910.285 1371.13ZM883.342 1364.21C882.839 1364.21 882.713 1363.83 882.839 1363.2L895.051 1329.33C895.177 1328.83 895.429 1328.07 895.807 1328.07C896.184 1328.07 896.31 1328.7 896.436 1329.33L908.397 1363.33C908.523 1363.7 908.397 1364.21 907.767 1364.21H883.342ZM168.095 1176.61H168.473C170.865 1179.26 185.596 1196.51 200.074 1211.36C213.798 1225.59 230.794 1243.59 239.104 1251.9C240.615 1253.41 242.125 1254.92 243.636 1254.92C244.895 1254.92 245.399 1253.67 245.399 1250.64L246.91 1163.65C247.036 1155.97 248.169 1153.07 251.82 1151.94C253.457 1151.56 254.464 1151.56 255.849 1151.56C257.485 1151.56 258.241 1151.18 258.241 1150.3C258.241 1149.17 256.982 1149.04 255.219 1149.04C248.672 1149.04 243.636 1149.42 242.251 1149.42C239.481 1149.42 233.06 1149.04 226.262 1149.04C224.247 1149.04 222.862 1149.17 222.862 1150.3C222.862 1151.18 223.366 1151.56 225.003 1151.56C226.891 1151.56 230.039 1151.56 232.053 1152.44C235.201 1153.83 236.46 1156.47 236.586 1164.78L237.971 1226.6H237.341C235.075 1224.33 217.197 1204.56 208.132 1195.25C188.743 1175.23 168.599 1152.82 167.088 1151.06C164.822 1148.54 163.689 1146.78 162.178 1146.78C160.793 1146.78 160.415 1148.66 160.415 1151.43L159.282 1233.02C159.156 1244.98 158.653 1249.01 155.127 1250.14C153.239 1250.64 150.847 1250.9 149.21 1250.9C147.825 1250.9 147.07 1251.15 147.07 1252.03C147.07 1253.29 148.329 1253.41 149.965 1253.41C156.89 1253.41 163.059 1253.04 164.318 1253.04C166.836 1253.04 172.124 1253.41 180.685 1253.41C182.574 1253.41 183.707 1253.16 183.707 1252.03C183.707 1251.27 182.952 1250.9 181.441 1250.9C179.3 1250.9 176.782 1250.77 174.516 1249.89C171.872 1248.88 170.11 1245.36 169.858 1234.53L168.347 1176.61H168.095ZM287.576 1213.25C287.576 1226.6 287.576 1237.55 286.946 1243.34C286.569 1247.37 285.687 1249.64 283.043 1250.27C281.784 1250.52 280.274 1250.77 278.259 1250.77C276.622 1250.77 276.119 1251.15 276.119 1251.9C276.119 1252.91 277 1253.29 278.763 1253.29C284.051 1253.29 292.36 1252.91 295.508 1252.91C299.033 1252.91 307.468 1253.29 316.156 1253.29C317.666 1253.29 318.674 1252.91 318.674 1251.9C318.674 1251.27 318.044 1250.77 316.533 1250.77C314.519 1250.77 311.623 1250.52 309.735 1250.27C305.706 1249.76 304.824 1247.24 304.447 1243.47C303.943 1237.55 303.943 1226.72 303.943 1213.25V1188.95C303.943 1168.05 303.943 1164.15 304.195 1159.74C304.447 1154.96 305.58 1152.57 309.105 1151.94C310.742 1151.69 311.749 1151.56 313.134 1151.56C314.519 1151.56 315.274 1151.31 315.274 1150.17C315.274 1149.29 314.267 1149.04 312.504 1149.04C307.468 1149.04 299.662 1149.42 296.389 1149.42C292.486 1149.42 284.177 1149.04 279.14 1149.04C277 1149.04 275.993 1149.29 275.993 1150.17C275.993 1151.31 276.748 1151.56 278.133 1151.56C279.77 1151.56 281.407 1151.69 282.918 1152.06C285.813 1152.69 287.198 1155.08 287.45 1159.74C287.702 1164.15 287.702 1168.05 287.702 1188.95V1213.25H287.576ZM368.657 1246.74C371.175 1253.29 371.93 1255.18 373.693 1255.18C375.581 1255.18 376.337 1252.91 379.736 1244.98C382.632 1238.05 388.927 1223.07 397.362 1202.93C404.538 1185.93 408.064 1178.5 413.226 1165.53C416.751 1156.72 418.765 1154.33 420.528 1153.07C422.92 1151.43 425.69 1151.43 427.075 1151.43C428.46 1151.43 429.215 1151.18 429.215 1150.17C429.215 1149.17 428.208 1148.92 426.445 1148.92C422.417 1148.92 416.247 1149.29 413.981 1149.29C412.218 1149.29 406.679 1148.92 400.006 1148.92C397.488 1148.92 396.355 1149.17 396.355 1150.3C396.355 1151.31 397.362 1151.43 398.621 1151.43C400.384 1151.43 402.272 1151.56 403.909 1152.06C405.042 1152.44 405.672 1153.57 405.672 1154.71C405.672 1155.97 405.168 1157.98 404.413 1159.87C401.265 1168.93 384.017 1213.38 378.351 1228.49H377.847L355.059 1165.91C353.171 1161 352.038 1157.1 352.038 1155.34C352.038 1154.08 352.415 1153.07 353.422 1152.44C354.43 1151.56 356.444 1151.43 358.584 1151.43C359.718 1151.43 360.599 1151.18 360.599 1150.17C360.599 1149.17 359.088 1148.92 357.577 1148.92C350.904 1148.92 344.609 1149.29 341.336 1149.29C336.678 1149.29 329.123 1148.92 322.073 1148.92C320.058 1148.92 318.674 1149.04 318.674 1150.17C318.674 1151.06 319.051 1151.43 320.31 1151.43C321.318 1151.43 323.458 1151.43 325.472 1151.94C330.257 1153.32 332.523 1154.83 335.544 1162.39L368.908 1246.62L368.657 1246.74ZM443.442 1213.25C443.442 1225.97 443.442 1236.79 442.813 1242.59C442.309 1246.62 441.554 1249.64 438.91 1250.14C437.777 1250.39 436.14 1250.64 434.125 1250.64C432.489 1250.64 431.985 1251.02 431.985 1251.78C431.985 1252.78 432.866 1253.16 434.629 1253.16C437.273 1253.16 440.672 1252.91 443.82 1252.91C446.967 1252.78 449.863 1252.78 451.374 1252.78C455.403 1252.78 459.432 1252.91 465.097 1253.16C470.763 1253.29 478.065 1253.54 488.011 1253.54C493.047 1253.54 494.306 1253.54 495.188 1249.89C495.817 1247.12 496.95 1237.8 496.95 1234.65C496.95 1233.27 496.95 1232.14 495.943 1232.14C495.062 1232.14 494.684 1232.64 494.432 1234.15C493.551 1239.82 491.914 1242.71 488.515 1244.35C485.116 1245.99 479.45 1245.99 476.051 1245.99C462.579 1245.99 460.439 1243.97 460.187 1234.4C460.061 1230.37 460.187 1217.78 460.187 1213V1202.05C460.187 1201.29 460.313 1200.66 460.942 1200.66C464.09 1200.66 477.184 1200.79 479.828 1201.04C484.738 1201.54 486.626 1203.68 487.256 1206.45C487.634 1208.22 487.634 1210.1 487.759 1211.36C487.759 1211.99 488.011 1212.62 489.018 1212.62C490.278 1212.62 490.278 1211.11 490.278 1209.98C490.278 1208.97 490.655 1203.56 490.781 1200.79C491.285 1193.74 491.788 1191.6 491.788 1190.71C491.788 1189.96 491.411 1189.58 490.907 1189.58C490.278 1189.58 489.648 1190.21 488.767 1191.34C487.508 1192.73 485.619 1193.11 482.346 1193.36C479.324 1193.61 464.09 1193.61 461.194 1193.61C460.439 1193.61 460.313 1193.11 460.313 1192.1V1157.23C460.313 1156.22 460.565 1155.84 461.194 1155.84C463.838 1155.84 477.813 1156.09 480.079 1156.34C486.752 1157.23 488.011 1158.86 489.018 1161.25C489.648 1162.89 489.774 1165.28 489.774 1166.16C489.774 1167.42 490.026 1168.05 491.033 1168.05C491.914 1168.05 492.292 1167.17 492.418 1166.54C492.67 1164.91 492.921 1158.86 493.047 1157.48C493.425 1151.18 494.055 1149.55 494.055 1148.54C494.055 1147.91 493.929 1147.28 493.299 1147.28C492.67 1147.28 491.788 1147.66 491.159 1147.78C490.152 1148.03 488.011 1148.29 485.493 1148.66C482.975 1148.79 456.536 1148.79 452.381 1148.79C450.493 1148.79 447.471 1148.66 444.072 1148.54C440.798 1148.54 436.895 1148.41 433.37 1148.41C431.356 1148.41 430.474 1148.66 430.474 1149.67C430.474 1150.68 431.23 1150.93 432.74 1150.93C434.629 1150.93 436.895 1151.06 437.902 1151.31C442.309 1152.31 443.316 1154.46 443.568 1159.11C443.82 1163.52 443.82 1167.42 443.82 1188.32V1212.62L443.442 1213.25ZM527.167 1213.25C527.167 1225.97 527.167 1236.79 526.537 1242.59C526.034 1246.62 525.404 1249.64 522.634 1250.14C521.375 1250.39 519.864 1250.64 517.85 1250.64C516.213 1250.64 515.71 1251.02 515.71 1251.78C515.71 1252.78 516.591 1253.16 518.354 1253.16C523.641 1253.16 531.951 1252.78 534.469 1252.78C536.483 1252.78 546.304 1253.16 553.984 1253.16C555.746 1253.16 556.628 1252.78 556.628 1251.78C556.628 1251.15 556.124 1250.64 554.991 1250.64C553.354 1250.64 550.458 1250.39 548.444 1250.14C544.415 1249.64 543.66 1246.62 543.282 1242.59C542.653 1236.79 542.653 1225.97 542.653 1213.13V1211.24C542.653 1210.36 543.03 1210.1 543.66 1210.1L555.243 1210.36C556.124 1210.36 557.005 1210.48 557.635 1211.36C559.398 1213.38 565.441 1222.82 570.729 1230.37C578.157 1240.95 583.193 1247.5 588.858 1250.64C592.258 1252.53 595.657 1253.29 603.085 1253.29H615.676C617.312 1253.29 618.194 1253.04 618.194 1251.9C618.194 1251.27 617.69 1250.77 616.557 1250.77C615.55 1250.77 614.291 1250.64 612.78 1250.39C610.765 1250.01 605.352 1249.01 597.923 1241.08C590.118 1232.51 580.927 1220.3 569.218 1204.82C582.563 1193.48 586.718 1184.17 586.718 1173.97C586.718 1164.78 581.43 1157.73 577.653 1155.08C570.477 1150.05 561.664 1149.17 553.228 1149.17C549.074 1149.17 539.001 1149.55 534.595 1149.55C531.825 1149.55 523.516 1149.17 516.465 1149.17C514.451 1149.17 513.569 1149.42 513.569 1150.43C513.569 1151.43 514.325 1151.69 515.836 1151.69C517.724 1151.69 519.99 1151.81 520.998 1152.06C525.404 1153.07 526.411 1155.21 526.663 1159.87C526.915 1164.28 526.915 1168.18 526.915 1189.08V1213.38L527.167 1213.25ZM542.778 1157.98C542.778 1156.85 543.03 1156.34 544.038 1156.09C545.422 1155.71 547.689 1155.59 551.088 1155.59C558.894 1155.59 571.358 1161.25 571.358 1180.77C571.358 1192.1 567.455 1198.39 563.552 1201.42C561.16 1203.18 559.398 1203.81 554.11 1203.81C550.836 1203.81 546.807 1203.43 544.038 1202.42C543.156 1202.05 542.778 1201.42 542.778 1199.91V1157.98ZM637.331 1255.18C644.381 1255.18 651.809 1253.92 658.356 1249.51C667.925 1243.09 670.82 1233.52 670.82 1225.59C670.82 1212.5 665.155 1202.93 649.039 1190.46L645.388 1187.57C634.435 1178.88 631.287 1174.1 631.287 1167.67C631.287 1159.37 637.205 1153.45 647.025 1153.45C655.586 1153.45 659.489 1157.6 661.504 1160.25C664.274 1163.9 664.903 1168.18 664.903 1169.31C664.903 1170.95 665.281 1171.83 666.288 1171.83C667.295 1171.83 667.799 1170.7 667.799 1167.67C667.799 1156.97 668.302 1152.94 668.302 1151.18C668.302 1150.17 667.673 1149.8 666.414 1149.55C663.015 1148.54 657.349 1147.15 648.788 1147.15C630.406 1147.15 618.194 1158.11 618.194 1173.21C618.194 1184.42 623.23 1193.99 637.834 1205.82L643.878 1210.73C654.831 1219.67 656.845 1225.97 656.845 1232.77C656.845 1240.07 651.054 1248.5 639.093 1248.5C630.91 1248.5 623.104 1244.73 620.082 1234.53C619.453 1232.14 618.823 1229.24 618.823 1227.48C618.823 1226.35 618.697 1225.09 617.438 1225.09C616.431 1225.09 615.927 1226.6 615.801 1228.61C615.676 1230.88 615.172 1239.06 615.172 1246.62C615.172 1249.64 615.55 1250.27 617.69 1251.27C623.356 1253.92 629.399 1254.92 637.079 1254.92L637.331 1255.18ZM702.422 1213.25C702.422 1226.6 702.422 1237.55 701.792 1243.34C701.415 1247.37 700.533 1249.64 697.889 1250.27C696.63 1250.52 695.119 1250.77 693.105 1250.77C691.468 1250.77 690.965 1251.15 690.965 1251.9C690.965 1252.91 691.846 1253.29 693.609 1253.29C698.897 1253.29 707.206 1252.91 710.354 1252.91C713.879 1252.91 722.314 1253.29 731.001 1253.29C732.512 1253.29 733.519 1252.91 733.519 1251.9C733.519 1251.27 732.89 1250.77 731.379 1250.77C729.365 1250.77 726.469 1250.52 724.58 1250.27C720.552 1249.76 719.67 1247.24 719.293 1243.47C718.789 1237.55 718.789 1226.72 718.789 1213.25V1188.95C718.789 1168.05 718.789 1164.15 719.041 1159.74C719.293 1154.96 720.426 1152.57 723.951 1151.94C725.588 1151.69 726.595 1151.56 727.98 1151.56C729.365 1151.56 730.12 1151.31 730.12 1150.17C730.12 1149.29 729.113 1149.04 727.35 1149.04C722.314 1149.04 714.508 1149.42 711.235 1149.42C707.332 1149.42 699.022 1149.04 693.986 1149.04C691.846 1149.04 690.839 1149.29 690.839 1150.17C690.839 1151.31 691.594 1151.56 692.979 1151.56C694.616 1151.56 696.253 1151.69 697.763 1152.06C700.659 1152.69 702.044 1155.08 702.296 1159.74C702.548 1164.15 702.548 1168.05 702.548 1188.95V1213.25H702.422ZM779.977 1213.25C779.977 1225.97 779.977 1236.79 779.348 1242.59C778.97 1246.62 778.215 1249.64 775.445 1250.14C774.186 1250.39 772.675 1250.64 770.66 1250.64C769.024 1250.64 768.52 1251.02 768.52 1251.78C768.52 1252.78 769.401 1253.16 771.164 1253.16C776.452 1253.16 784.761 1252.78 787.909 1252.78C791.56 1252.78 799.996 1253.16 808.683 1253.16C810.194 1253.16 811.201 1252.78 811.201 1251.78C811.201 1251.15 810.571 1250.64 809.06 1250.64C807.046 1250.64 804.15 1250.39 802.262 1250.14C798.233 1249.64 797.478 1246.62 797.1 1242.71C796.47 1236.79 796.47 1225.84 796.47 1213.25V1156.72L813.215 1157.1C825.05 1157.35 828.575 1161.25 828.827 1164.78L828.953 1166.29C829.079 1168.3 829.331 1169.06 830.338 1169.06C831.093 1169.06 831.345 1168.18 831.597 1166.79C831.597 1163.27 831.975 1153.7 831.975 1150.8C831.975 1148.79 831.849 1147.91 830.967 1147.91C830.464 1147.91 829.331 1148.16 827.442 1148.54C825.428 1148.79 822.532 1149.17 818.251 1149.17H765.75C761.344 1149.17 756.308 1148.92 752.531 1148.54C749.257 1148.29 747.872 1146.9 746.865 1146.9C746.11 1146.9 745.606 1147.78 745.228 1149.55C744.977 1150.68 742.458 1163.14 742.458 1165.41C742.458 1166.92 742.71 1167.67 743.718 1167.67C744.473 1167.67 744.977 1167.17 745.228 1166.04C745.48 1164.91 746.11 1163.27 747.495 1161.25C749.509 1158.23 752.657 1157.48 760.337 1157.23L780.103 1156.72V1213.25H779.977ZM883.342 1217.28C883.972 1217.28 884.35 1217.53 884.601 1218.29L895.177 1247.5C895.807 1249.13 894.925 1250.39 894.044 1250.64C892.659 1250.77 892.156 1251.02 892.156 1251.9C892.156 1252.91 893.792 1252.91 896.184 1253.04C906.76 1253.29 916.455 1253.29 921.239 1253.29C926.149 1253.29 927.282 1253.04 927.282 1251.9C927.282 1250.9 926.653 1250.77 925.519 1250.77C923.883 1250.77 921.994 1250.64 919.98 1250.27C917.21 1249.39 913.307 1247.5 908.271 1235.16C899.836 1214.26 878.558 1158.11 875.411 1150.43C874.026 1147.28 873.27 1146.02 872.137 1146.02C870.752 1146.02 869.997 1147.53 868.486 1151.56L835.248 1238.05C832.604 1244.98 830.086 1249.64 823.917 1250.52C822.91 1250.64 821.021 1250.77 819.762 1250.77C818.755 1250.77 818.125 1251.02 818.125 1251.9C818.125 1253.04 818.881 1253.29 820.643 1253.29C827.568 1253.29 834.87 1252.91 836.255 1252.91C840.41 1252.91 846.076 1253.29 850.356 1253.29C851.867 1253.29 852.622 1253.04 852.622 1251.9C852.622 1251.15 852.245 1250.77 850.608 1250.77H848.594C844.439 1250.77 843.306 1249.01 843.306 1246.49C843.306 1244.85 843.935 1241.58 845.32 1238.05L852.497 1218.41C852.748 1217.53 853 1217.28 853.756 1217.28H883.342ZM856.399 1210.36C855.896 1210.36 855.77 1209.98 855.896 1209.35L868.108 1175.48C868.234 1174.98 868.486 1174.22 868.864 1174.22C869.241 1174.22 869.367 1174.85 869.493 1175.48L881.454 1209.47C881.58 1209.85 881.454 1210.36 880.824 1210.36H856.399ZM951.959 1255.18C959.009 1255.18 966.438 1253.92 972.984 1249.51C982.553 1243.09 985.449 1233.52 985.449 1225.59C985.449 1212.5 979.783 1202.93 963.668 1190.46L960.017 1187.57C949.063 1178.88 945.916 1174.1 945.916 1167.67C945.916 1159.37 951.833 1153.45 961.653 1153.45C970.215 1153.45 974.118 1157.6 976.132 1160.25C978.902 1163.9 979.531 1168.18 979.531 1169.31C979.531 1170.95 979.909 1171.83 980.916 1171.83C981.923 1171.83 982.427 1170.7 982.427 1167.67C982.427 1156.97 982.931 1152.94 982.931 1151.18C982.931 1150.17 982.301 1149.8 981.042 1149.55C977.643 1148.54 971.977 1147.15 963.416 1147.15C945.034 1147.15 932.822 1158.11 932.822 1173.21C932.822 1184.42 937.858 1193.99 952.462 1205.82L958.506 1210.73C969.459 1219.67 971.474 1225.97 971.474 1232.77C971.474 1240.07 965.682 1248.5 953.721 1248.5C945.538 1248.5 937.732 1244.73 934.71 1234.53C934.081 1232.14 933.451 1229.24 933.451 1227.48C933.451 1226.35 933.325 1225.09 932.066 1225.09C931.059 1225.09 930.681 1226.6 930.43 1228.61C930.304 1230.88 929.8 1239.06 929.8 1246.62C929.8 1249.64 930.178 1250.27 932.318 1251.27C937.984 1253.92 944.027 1254.92 951.707 1254.92L951.959 1255.18ZM98.0939 1367.1C98.0939 1380.45 98.0939 1391.4 97.4644 1397.19C97.0867 1401.22 96.2054 1403.49 93.5614 1404.12C92.3024 1404.37 90.7916 1404.62 88.7772 1404.62C87.1405 1404.62 86.6368 1405 86.6368 1405.75C86.6368 1406.76 87.5182 1407.14 89.2808 1407.14C94.5686 1407.14 102.878 1406.76 106.026 1406.76C109.551 1406.76 117.986 1407.14 126.674 1407.14C128.184 1407.14 129.192 1406.76 129.192 1405.75C129.192 1405 128.562 1404.62 127.051 1404.62C125.037 1404.62 122.141 1404.37 120.253 1404.12C116.224 1403.61 115.342 1401.1 114.965 1397.32C114.461 1391.4 114.461 1380.45 114.461 1367.1V1342.8C114.461 1321.9 114.461 1318 114.713 1313.59C114.965 1308.81 116.098 1306.42 119.623 1305.79C121.26 1305.54 122.267 1305.41 123.652 1305.41C125.037 1305.41 125.792 1305.16 125.792 1304.03C125.792 1303.27 124.785 1302.89 123.022 1302.89C117.986 1302.89 110.18 1303.27 106.907 1303.27C103.004 1303.27 94.6945 1302.89 89.6585 1302.89C87.5182 1302.89 86.5109 1303.15 86.5109 1304.03C86.5109 1305.16 87.2664 1305.41 88.6513 1305.41C90.288 1305.41 91.9247 1305.54 93.4355 1305.91C96.3313 1306.54 97.7162 1308.94 97.968 1313.59C98.2198 1318 98.2198 1321.9 98.2198 1342.8V1367.1H98.0939ZM163.94 1330.47H164.318C166.71 1333.11 181.441 1350.36 195.919 1365.21C209.643 1379.44 226.639 1397.45 234.949 1405.75C236.46 1407.27 237.971 1408.78 239.481 1408.78C240.74 1408.78 241.244 1407.52 241.244 1404.5L242.755 1317.5C242.881 1309.82 243.888 1306.92 247.665 1305.79C249.302 1305.41 250.309 1305.41 251.694 1305.41C253.331 1305.41 254.086 1305.03 254.086 1304.15C254.086 1303.02 252.701 1302.89 251.064 1302.89C244.643 1302.89 239.481 1303.27 238.097 1303.27C235.327 1303.27 228.906 1302.89 222.107 1302.89C220.093 1302.89 218.708 1303.02 218.708 1304.15C218.708 1305.03 219.211 1305.41 220.848 1305.41C222.737 1305.41 225.884 1305.41 227.898 1306.29C231.046 1307.68 232.305 1310.32 232.431 1318.76L233.69 1380.57H233.06C230.794 1378.31 212.916 1358.54 203.851 1349.1C184.462 1329.08 164.318 1306.67 162.807 1304.91C160.541 1302.39 159.408 1300.63 157.897 1300.63C156.512 1300.63 156.135 1302.52 156.135 1305.29L155.001 1386.87C154.876 1398.83 154.372 1402.86 150.847 1403.99C148.958 1404.5 146.566 1404.62 144.929 1404.62C143.544 1404.62 142.789 1404.87 142.789 1405.75C142.789 1407.01 144.048 1407.14 145.685 1407.14C152.609 1407.14 158.778 1406.76 160.038 1406.76C162.556 1406.76 167.843 1407.14 176.531 1407.14C178.419 1407.14 179.552 1406.89 179.552 1405.75C179.552 1404.87 178.797 1404.62 177.286 1404.62C175.146 1404.62 172.628 1404.5 170.361 1403.61C167.718 1402.61 165.955 1399.08 165.703 1388.38L164.192 1330.47H163.94ZM283.421 1367.1C283.421 1379.82 283.421 1390.65 282.792 1396.44C282.288 1400.47 281.658 1403.49 278.889 1403.99C277.63 1404.24 276.119 1404.5 274.104 1404.5C272.468 1404.5 271.964 1404.87 271.964 1405.63C271.964 1406.64 272.845 1407.01 274.608 1407.01C277.252 1407.01 280.651 1406.76 283.799 1406.76C286.946 1406.64 289.842 1406.64 291.353 1406.64C294.626 1406.64 299.285 1407.01 304.321 1407.52C309.357 1407.9 314.771 1408.4 319.555 1408.4C344.106 1408.4 357.829 1398.58 363.998 1392.16C371.426 1384.35 378.477 1371.13 378.477 1353.76C378.477 1337.39 372.182 1325.93 365.635 1318.76C351.156 1303.02 328.998 1303.02 312.504 1303.02C304.573 1303.02 296.263 1303.4 292.108 1303.4C288.457 1303.4 280.022 1303.02 272.971 1303.02C270.957 1303.02 270.076 1303.27 270.076 1304.28C270.076 1305.29 270.831 1305.54 272.342 1305.54C274.23 1305.54 276.497 1305.66 277.504 1305.91C281.91 1306.92 282.918 1309.06 283.169 1313.72C283.421 1318.13 283.421 1322.03 283.421 1342.93V1367.23V1367.1ZM300.04 1340.66C300.04 1329.84 300.04 1317.75 300.166 1313.09C300.166 1311.58 300.544 1310.83 301.803 1310.32C302.81 1309.82 307.72 1309.31 310.364 1309.31C320.688 1309.31 335.796 1310.95 348.009 1323.04C353.674 1328.7 360.725 1340.03 360.725 1357.53C360.725 1371.76 358.081 1384.23 349.645 1391.91C341.714 1399.08 332.649 1401.85 319.177 1401.85C308.727 1401.85 303.565 1398.96 301.803 1396.31C300.796 1394.8 300.418 1389.26 300.292 1385.86C300.166 1383.22 300.04 1372.64 300.04 1358.04V1340.66ZM446.464 1409.03C480.079 1409.03 501.357 1384.1 501.357 1352.5C501.357 1320.9 480.835 1301 447.849 1301C408.064 1301 393.081 1331.47 393.081 1355.02C393.081 1379.44 408.441 1409.03 446.464 1409.03ZM452.003 1402.1C426.571 1402.1 411.337 1379.32 411.337 1350.74C411.337 1316.36 428.712 1307.55 443.946 1307.55C465.727 1307.55 482.849 1326.69 482.849 1357.53C482.849 1397.32 461.32 1402.1 452.129 1402.1H452.003ZM534.973 1330.47H535.35C537.742 1333.11 552.473 1350.36 566.952 1365.21C580.675 1379.44 597.672 1397.45 605.981 1405.75C607.492 1407.27 609.003 1408.78 610.514 1408.78C611.773 1408.78 612.276 1407.52 612.276 1404.5L613.787 1317.5C613.913 1309.82 615.046 1306.92 618.697 1305.79C620.334 1305.41 621.341 1305.41 622.726 1305.41C624.363 1305.41 625.118 1305.03 625.118 1304.15C625.118 1303.02 623.859 1302.89 622.097 1302.89C615.55 1302.89 610.514 1303.27 609.129 1303.27C606.359 1303.27 599.938 1302.89 593.139 1302.89C591.125 1302.89 589.74 1303.02 589.74 1304.15C589.74 1305.03 590.243 1305.41 591.88 1305.41C593.769 1305.41 596.916 1305.41 598.931 1306.29C602.078 1307.68 603.337 1310.32 603.463 1318.76L604.848 1380.57H604.218C601.952 1378.31 584.074 1358.54 575.009 1349.1C555.62 1329.08 535.476 1306.67 533.965 1304.91C531.699 1302.39 530.566 1300.63 529.055 1300.63C527.796 1300.63 527.293 1302.52 527.293 1305.29L526.159 1386.87C526.034 1398.83 525.53 1402.86 522.005 1403.99C520.116 1404.5 517.724 1404.62 516.087 1404.62C514.702 1404.62 513.947 1404.87 513.947 1405.75C513.947 1407.01 515.206 1407.14 516.843 1407.14C523.767 1407.14 529.937 1406.76 531.196 1406.76C533.714 1406.76 539.001 1407.14 547.563 1407.14C549.451 1407.14 550.584 1406.89 550.584 1405.75C550.584 1404.87 549.829 1404.62 548.318 1404.62C546.178 1404.62 543.66 1404.5 541.394 1403.61C538.75 1402.61 536.987 1399.08 536.735 1388.38L535.224 1330.47H534.973ZM654.453 1367.1C654.453 1379.82 654.453 1390.65 653.824 1396.44C653.32 1400.47 652.565 1403.49 649.921 1403.99C648.662 1404.24 647.151 1404.5 645.137 1404.5C643.5 1404.5 642.996 1404.87 642.996 1405.63C642.996 1406.64 643.878 1407.01 645.64 1407.01C648.284 1407.01 651.683 1406.76 654.831 1406.76C657.978 1406.64 660.874 1406.64 662.385 1406.64C666.414 1406.64 670.443 1406.76 676.108 1407.01C681.774 1407.14 689.076 1407.39 699.022 1407.39C704.058 1407.39 705.192 1407.39 706.199 1403.74C706.828 1400.97 707.961 1391.65 707.961 1388.38C707.961 1387 707.961 1385.86 706.954 1385.86C706.073 1385.86 705.695 1386.37 705.443 1387.88C704.562 1393.54 702.925 1396.44 699.526 1398.07C696.127 1399.71 690.461 1399.71 687.062 1399.71C673.59 1399.71 671.45 1397.7 671.198 1388.13C671.072 1384.1 671.198 1371.51 671.198 1366.73V1355.9C671.198 1355.02 671.324 1354.51 671.954 1354.51C675.101 1354.51 688.195 1354.64 690.839 1354.89C695.749 1355.39 697.638 1357.53 698.267 1360.3C698.645 1362.07 698.645 1363.83 698.771 1365.21C698.771 1365.97 699.022 1366.47 700.03 1366.47C701.289 1366.47 701.289 1364.96 701.289 1363.83C701.289 1362.82 701.666 1357.41 701.792 1354.64C702.296 1347.59 702.799 1345.45 702.799 1344.57C702.799 1343.69 702.422 1343.43 701.918 1343.43C701.289 1343.43 700.659 1344.19 699.778 1345.2C698.519 1346.58 696.63 1346.96 693.357 1347.21C690.335 1347.46 675.101 1347.46 672.205 1347.46C671.45 1347.46 671.324 1346.96 671.324 1345.95V1311.08C671.324 1310.07 671.576 1309.69 672.205 1309.69C674.849 1309.69 688.824 1309.94 691.091 1310.2C697.763 1311.08 699.022 1312.71 700.03 1315.11C700.659 1316.74 700.785 1319.13 700.785 1320.02C700.785 1321.27 701.037 1321.9 702.044 1321.9C702.925 1321.9 703.303 1321.02 703.429 1320.39C703.681 1318.76 703.933 1312.71 704.058 1311.33C704.436 1305.03 705.066 1303.4 705.066 1302.39C705.066 1301.76 704.94 1301.13 704.31 1301.13C703.681 1301.13 702.925 1301.51 702.17 1301.63C701.163 1301.89 699.022 1302.14 696.504 1302.52C693.986 1302.64 667.547 1302.64 663.392 1302.64C661.504 1302.64 658.482 1302.52 655.083 1302.39C651.809 1302.39 647.906 1302.26 644.381 1302.26C642.367 1302.26 641.485 1302.52 641.485 1303.52C641.485 1304.53 642.241 1304.78 643.752 1304.78C645.64 1304.78 647.906 1304.91 648.914 1305.16C653.32 1306.17 654.327 1308.31 654.579 1312.97C654.831 1317.37 654.831 1321.27 654.831 1342.17V1366.47L654.453 1367.1Z" fill="currentColor"/>
<path d="M29.9819 1673.93H985.449V1680.98H29.9819V1673.93Z" fill="currentColor"/>
<path d="M656.595 1612.74C656.721 1617.52 654.203 1620.8 648.915 1622.56C648.286 1624.2 647.656 1625.45 647.027 1626.08C646.145 1627.09 644.761 1627.59 643.124 1627.72C641.991 1627.85 640.858 1627.72 639.599 1627.59C637.332 1627.22 634.563 1626.84 631.289 1626.21C630.408 1626.08 629.778 1625.45 629.652 1624.45C629.778 1623.31 630.911 1622.68 632.926 1622.56C635.696 1622.43 639.724 1621.93 645.012 1621.05C647.027 1620.54 648.412 1619.41 649.293 1617.52C649.797 1616.52 650.048 1615.38 650.048 1614C650.048 1611.48 648.789 1607.07 646.397 1600.78C644.005 1594.61 642.872 1590.45 642.998 1588.44C643.25 1583.53 647.782 1580 656.218 1577.99C657.099 1577.74 657.477 1578.12 657.477 1579C657.477 1579.5 657.099 1579.88 656.595 1580.13C652.441 1582.02 650.426 1584.28 650.426 1587.05C650.426 1588.19 650.552 1589.45 650.93 1591.08C651.307 1592.72 652.441 1596.62 654.329 1602.67C655.714 1607.07 656.469 1610.47 656.469 1612.74H656.595Z" fill="currentColor"/>
<path d="M665.786 1578.37C665.786 1580.13 665.283 1583.02 664.401 1587.05C664.024 1588.44 663.646 1589.32 663.268 1589.7C663.142 1589.95 662.387 1590.2 661.254 1590.58C659.869 1591.08 658.988 1591.46 658.61 1591.46C658.106 1591.46 657.729 1591.08 657.729 1590.2C657.729 1589.82 657.729 1589.19 657.98 1588.44C658.862 1584.54 659.239 1581.77 658.988 1580.25C658.736 1578.74 659.239 1577.74 660.247 1577.36C662.135 1576.35 663.394 1575.85 663.898 1575.85C665.031 1575.85 665.66 1576.73 665.66 1578.37H665.786Z" fill="currentColor"/>
<path d="M632.796 1586.43C629.271 1596.62 626.879 1605.18 625.494 1611.98C626.124 1611.48 626.879 1610.6 627.76 1609.47C628.642 1608.33 629.271 1607.58 629.523 1607.45C630.027 1606.7 630.656 1606.32 631.286 1606.32C631.789 1606.32 632.167 1606.57 632.167 1607.2C632.167 1607.58 632.041 1607.95 631.663 1608.46C628.012 1614 625.62 1619.54 624.487 1625.2C624.109 1626.84 623.606 1627.6 622.976 1627.6C622.347 1627.6 621.088 1626.97 619.325 1625.71C618.318 1624.95 617.688 1624.32 617.562 1623.94C617.436 1623.44 617.436 1622.56 617.562 1621.3C619.199 1611.23 621.213 1602.79 623.606 1595.99C620.332 1601.66 615.8 1607.83 610.008 1614.63C604.972 1620.54 601.321 1624.32 599.181 1625.96C597.544 1627.09 596.411 1627.72 595.53 1627.72C594.9 1627.72 593.767 1627.09 592.382 1625.96C590.368 1624.7 589.36 1622.94 589.36 1620.67C589.36 1620.29 589.36 1619.79 589.486 1619.16C590.116 1613.24 592.634 1606.44 596.914 1598.51C601.195 1590.71 606.105 1584.03 611.645 1578.75C613.408 1576.98 615.044 1576.1 616.429 1576.23C617.814 1576.35 620.458 1578.12 624.361 1581.89C624.739 1582.27 624.865 1582.52 624.865 1582.9C624.865 1583.53 624.487 1583.91 623.606 1583.91C623.354 1583.91 622.976 1583.91 622.724 1583.78C619.954 1582.52 617.814 1582.65 616.177 1583.91C612.526 1586.68 608.623 1591.46 604.217 1598.39C599.181 1606.32 596.159 1613.49 595.026 1619.92C595.026 1620.17 594.9 1620.42 594.9 1620.67C594.9 1621.68 595.278 1622.18 596.033 1622.18C597.292 1622.18 598.929 1621.3 600.691 1619.41C604.972 1615.13 609.631 1609.59 614.541 1603.04C619.577 1596.25 622.85 1591.08 624.235 1587.56C625.242 1585.04 625.872 1583.15 626.25 1582.14C626.753 1580.38 627.257 1579.5 627.886 1579.5C628.39 1579.5 629.775 1580.38 631.915 1581.89C632.796 1582.52 633.3 1583.15 633.3 1583.78C633.426 1584.28 633.174 1585.04 632.796 1586.3V1586.43Z" fill="currentColor"/>
<path d="M597.673 1549.91C598.806 1550.54 599.309 1551.17 599.309 1551.93C599.309 1552.43 598.932 1552.68 598.176 1552.68C598.05 1552.68 597.799 1552.68 597.421 1552.56C597.043 1552.43 596.917 1552.43 596.665 1552.43C595.155 1552.43 593.392 1554.07 591.378 1557.34C589.489 1560.24 586.971 1566.66 583.698 1576.6C583.446 1577.48 583.32 1577.99 583.32 1578.11C583.446 1578.37 583.949 1578.62 584.831 1578.62C587.097 1578.74 590.119 1578.74 593.896 1578.37C595.155 1578.24 595.784 1578.87 595.784 1580.13C595.784 1581.01 595.281 1581.51 594.273 1581.77C593.518 1581.89 589.237 1582.27 581.557 1582.9C576.899 1596.87 574.129 1608.71 573.122 1618.4C573.122 1618.91 573.122 1619.41 573.122 1619.79C573.122 1621.17 573.5 1621.8 574.129 1621.8C575.136 1621.8 578.284 1619.16 583.572 1614C584.201 1613.37 584.831 1612.99 585.334 1612.99C585.838 1612.99 586.09 1613.24 586.216 1613.62C586.342 1614.12 586.216 1614.63 585.712 1615.26C582.564 1619.54 579.543 1623.19 576.521 1626.21C575.262 1627.47 574.255 1628.1 573.374 1628.1C572.492 1628.1 571.233 1627.47 569.471 1625.96C567.204 1625.33 566.197 1624.19 566.197 1622.31C566.197 1622.05 566.197 1621.68 566.323 1621.3C567.708 1611.1 570.478 1598.38 574.633 1583.28C572.618 1583.02 570.73 1582.77 569.093 1582.39C568.338 1582.27 567.96 1581.77 567.96 1581.01C567.96 1580.13 568.338 1579.5 569.093 1579.37C569.848 1579.25 571.233 1578.74 573.374 1577.99C574.633 1577.61 575.892 1576.98 577.025 1576.23C581.054 1563.01 584.327 1554.44 586.719 1550.54C588.104 1548.28 589.489 1547.27 591 1547.27C592.511 1547.27 594.651 1548.02 597.421 1549.66L597.673 1549.91Z" fill="currentColor"/>
<path d="M559.018 1585.67C558.136 1591.08 555.744 1600.02 551.841 1612.49C552.975 1611.48 554.485 1609.59 556.5 1606.82C556.752 1606.44 557.003 1606.32 557.255 1606.32C557.885 1606.32 558.011 1606.82 557.507 1607.95C557.381 1608.33 555.744 1611.1 552.723 1616.14C550.456 1619.91 548.694 1623.31 547.687 1626.34C547.309 1627.22 546.679 1627.72 545.798 1627.72C544.917 1627.72 543.658 1627.22 542.021 1626.34C541.014 1625.83 540.51 1625.33 540.51 1625.08C540.51 1624.83 540.762 1624.32 541.14 1623.57C543.28 1619.79 545.546 1613.49 548.064 1604.55C550.456 1595.99 551.841 1589.57 552.093 1585.29C552.219 1583.53 551.967 1582.65 551.59 1582.65C551.212 1582.65 550.708 1583.15 549.701 1584.03L546.176 1587.43C544.917 1588.69 544.287 1588.69 544.287 1587.68C544.287 1587.31 544.413 1586.93 544.791 1586.43C546.554 1583.78 548.568 1581.26 550.582 1579C551.212 1578.37 551.841 1577.99 552.345 1577.99C552.975 1577.99 553.856 1578.37 554.989 1579.25C556.752 1579.75 557.759 1580 557.885 1580.13C558.766 1580.63 559.144 1581.77 559.144 1583.28C559.144 1584.03 559.018 1584.79 558.892 1585.8L559.018 1585.67Z" fill="currentColor"/>
<path d="M567.077 1559.48C567.707 1559.98 567.958 1560.49 567.958 1561.12C567.958 1562.25 566.322 1564.01 563.048 1566.53C560.908 1568.17 558.768 1568.67 556.753 1568.17C555.62 1567.92 554.613 1567.54 553.731 1566.91C553.48 1566.66 553.228 1566.41 553.102 1566.15C552.976 1565.9 552.976 1565.65 552.976 1565.52C553.102 1565.4 553.354 1565.27 553.731 1565.4C557.257 1562.12 559.523 1559.86 560.656 1558.47C561.537 1557.47 562.167 1556.96 562.545 1556.96C563.3 1556.96 564.685 1557.84 567.077 1559.48Z" fill="currentColor"/>
<path d="M539.378 1533.42C539.882 1533.8 540.133 1534.18 540.133 1534.68C540.133 1535.43 539.63 1535.94 538.749 1535.94C538.371 1535.94 537.993 1535.81 537.615 1535.56C535.853 1534.55 534.468 1534.05 533.587 1534.05C531.194 1534.05 528.55 1536.57 525.655 1541.35C515.331 1558.73 507.777 1581.64 503.118 1609.97C507.147 1602.92 510.043 1598.01 512.057 1595.11C516.086 1589.07 520.241 1584.16 524.522 1580.13C526.536 1578.24 528.425 1577.23 530.061 1577.23C530.943 1577.23 532.202 1577.74 533.964 1578.87C537.364 1580.51 538.874 1583.03 538.623 1586.42C537.993 1594.1 536.105 1601.78 533.083 1609.21C530.061 1616.52 526.536 1622.31 522.381 1626.46C521.248 1627.59 520.115 1628.22 518.856 1628.22C516.338 1628.22 512.939 1625.33 508.532 1619.41C508.029 1618.78 507.777 1618.15 507.777 1617.65C507.777 1617.02 508.154 1616.77 508.784 1616.77C509.413 1616.77 510.043 1617.02 510.672 1617.65C512.939 1619.66 514.827 1620.67 516.464 1620.67C517.975 1620.67 519.486 1619.66 520.996 1617.77C523.64 1614.25 526.032 1609.46 528.173 1603.42C530.691 1596.62 531.824 1590.58 531.824 1585.17C531.824 1583.15 531.194 1582.02 529.81 1582.02C529.054 1582.02 528.173 1582.52 527.291 1583.28C522.507 1587.56 517.723 1593.48 512.939 1601.28C507.777 1609.59 504.126 1617.65 501.733 1625.45C501.356 1626.97 500.726 1627.72 500.097 1627.72C499.719 1627.72 499.341 1627.59 498.838 1627.22C496.949 1625.83 495.816 1625.08 495.564 1624.82C494.809 1624.07 494.431 1622.94 494.431 1621.68C494.431 1621.05 494.557 1620.29 494.683 1619.41C499.215 1593.98 504.881 1572.45 511.931 1554.57C517.219 1541.1 522.004 1532.41 526.158 1528.38C527.291 1527.38 528.299 1526.75 529.432 1526.75C530.565 1526.75 531.824 1527.38 533.461 1528.76C535.349 1530.4 537.364 1532.04 539.252 1533.67L539.378 1533.42Z" fill="currentColor"/>
<path d="M489.269 1588.44C489.144 1591.97 488.388 1596.75 486.751 1602.54C484.233 1611.73 480.708 1618.91 476.176 1624.07C473.784 1626.71 471.014 1628.1 468.118 1628.1C466.985 1628.1 465.474 1627.85 463.711 1627.34C460.06 1627.09 457.165 1625.96 454.898 1623.82C452.506 1621.55 451.247 1618.53 451.499 1614.88C451.625 1610.6 453.01 1604.81 455.654 1597.13C458.549 1588.82 461.571 1582.9 464.719 1579.25C466.229 1577.49 467.488 1576.61 468.37 1576.61C469.629 1576.61 471.769 1577.99 474.665 1580.76C475.42 1580.38 477.183 1579.63 479.575 1578.49C480.834 1577.99 481.841 1577.86 482.471 1577.86C483.982 1577.86 485.618 1579.25 487.507 1582.27C488.64 1584.03 489.269 1586.05 489.144 1588.19L489.269 1588.44ZM482.597 1590.2C482.848 1587.56 482.974 1585.92 482.974 1585.17C482.974 1583.53 482.471 1582.65 481.464 1582.65C481.086 1582.65 480.582 1582.77 479.953 1582.9L471.014 1586.68C470.007 1587.06 469.377 1587.31 469.251 1587.31C468.999 1587.31 468.622 1586.93 468.37 1586.17C466.104 1589.07 464.089 1593.1 462.201 1598.39C460.69 1602.54 459.683 1606.32 459.053 1609.59C458.675 1611.86 458.424 1613.87 458.424 1615.64C458.424 1621.8 460.186 1624.83 463.837 1624.57C465.348 1624.57 466.859 1623.94 468.496 1622.81C471.769 1620.55 474.665 1616.01 477.561 1609.21C480.205 1602.79 481.841 1596.37 482.471 1590.08L482.597 1590.2Z" fill="currentColor"/>
<path d="M451.754 1581.26C451.754 1586.55 451.124 1591.46 449.739 1596.25C449.361 1597.63 448.732 1598.39 447.976 1598.39C447.473 1598.39 446.214 1597.63 444.451 1595.99C443.57 1595.24 443.318 1594.1 443.696 1592.59C444.829 1588.94 445.333 1586.05 445.333 1583.91C445.333 1583.15 445.207 1582.77 444.829 1582.77C444.325 1582.77 443.57 1583.53 442.563 1584.91C434.505 1595.74 428.588 1607.83 424.685 1621.3C423.426 1625.58 422.293 1627.72 421.411 1627.72C421.034 1627.72 419.523 1626.97 416.879 1625.58C415.62 1624.95 415.116 1623.57 415.62 1621.68C418.641 1607.95 421.915 1596.25 425.44 1586.8C422.544 1589.95 420.782 1592.09 420.026 1593.22C419.774 1593.73 419.271 1593.98 418.767 1593.98C418.138 1593.98 417.76 1593.73 417.76 1593.1C417.76 1592.72 417.886 1592.34 418.264 1591.96C420.152 1589.57 422.67 1586.05 425.818 1581.14C426.825 1579.37 427.706 1578.49 428.714 1578.49C429.343 1578.49 430.728 1579 432.868 1580.13C434.001 1580.76 434.253 1581.64 433.372 1582.65C432.491 1583.78 430.98 1587.94 428.588 1594.86C426.321 1601.66 424.811 1607.07 423.929 1610.85C429.217 1598.76 435.134 1588.06 441.681 1578.87C442.94 1577.11 443.948 1576.23 444.703 1576.23C445.333 1576.23 446.34 1576.73 447.473 1577.61C449.11 1577.86 450.117 1578.12 450.494 1578.37C451.124 1578.87 451.502 1579.88 451.502 1581.26H451.754Z" fill="currentColor"/>
<path d="M419.521 1565.02C418.513 1569.3 415.869 1574.84 411.715 1581.51C407.56 1588.19 403.909 1592.72 400.761 1594.99C398.621 1596.62 396.481 1597.38 394.34 1597.38C393.081 1597.38 390.186 1596.37 385.527 1594.48C384.646 1594.1 384.142 1593.6 384.142 1593.1C384.142 1592.34 385.149 1591.84 387.29 1591.84C390.815 1591.84 393.459 1591.08 395.222 1589.57C398.873 1586.68 402.398 1582.65 405.671 1577.61C409.952 1571.19 412.344 1564.9 413.226 1558.73C413.729 1555.33 412.596 1553.31 409.826 1552.68C408.567 1552.43 407.308 1552.43 406.049 1552.68C400.132 1552.93 394.34 1554.32 388.801 1556.71C382.38 1580.76 376.462 1600.02 371.174 1614.37C371.426 1614.25 372.685 1613.62 374.574 1612.36C375.707 1611.73 376.588 1611.35 377.218 1611.48C378.351 1611.73 379.484 1612.86 380.491 1615C381.372 1616.77 381.75 1618.03 381.75 1618.78C381.75 1619.91 381.121 1620.29 379.736 1620.17C378.728 1620.04 377.218 1620.67 374.951 1621.8C372.559 1623.19 370.419 1624.7 368.782 1626.46C367.901 1627.34 367.02 1627.72 366.138 1627.72C364.879 1627.72 363.368 1626.84 361.48 1625.08C360.347 1623.94 359.843 1622.94 359.969 1622.05C360.095 1621.43 360.725 1620.92 361.858 1620.54C371.174 1598.13 378.225 1577.61 382.757 1559.1C368.279 1565.78 361.102 1572.07 361.102 1577.99C361.102 1578.87 361.228 1579.63 361.48 1580.51C361.606 1580.76 361.984 1581.89 362.613 1583.53C362.739 1583.91 362.865 1584.28 362.865 1584.66C362.865 1585.8 362.487 1586.3 361.606 1586.3C360.473 1586.3 358.081 1582.77 354.807 1575.85C354.304 1574.84 354.052 1573.96 354.052 1572.95C354.052 1570.56 355.437 1568.04 358.332 1565.27C360.221 1563.38 363.998 1560.87 369.412 1557.59C375.203 1554.19 380.365 1551.55 385.024 1549.91C385.527 1547.9 385.653 1546.39 385.653 1545.13C385.653 1543.49 386.031 1542.74 386.786 1542.74C387.793 1542.74 389.682 1544.25 392.2 1547.14C398.495 1545.25 402.776 1544.25 405.042 1544.37C409.323 1544.5 412.344 1546.77 414.107 1551.42C416.373 1553.19 417.884 1554.57 418.765 1555.58C419.772 1556.84 420.276 1558.35 420.276 1559.99C420.276 1561.24 420.024 1562.88 419.521 1565.02Z" fill="currentColor"/>
<path d="M315.528 1612.61C315.779 1613.12 315.402 1614.5 314.269 1616.64C311.121 1622.94 308.477 1629.36 306.463 1635.78C307.218 1636.16 306.966 1636.91 305.455 1637.79C304.071 1638.8 302.686 1639.18 301.301 1638.92C300.671 1638.8 300.419 1638.3 300.419 1637.41C300.419 1636.28 301.049 1633.39 302.182 1628.98C303.945 1622.56 305.581 1618.28 307.092 1616.14C307.848 1615.26 308.603 1614.63 309.736 1614.12C313.261 1612.86 315.15 1612.36 315.276 1612.74L315.528 1612.61Z" fill="currentColor"/>
<path d="M293.242 1612.74C293.368 1617.52 290.85 1620.8 285.562 1622.56C284.933 1624.2 284.303 1625.45 283.8 1626.08C282.918 1627.09 281.533 1627.59 279.897 1627.72C278.764 1627.85 277.631 1627.72 276.372 1627.59C274.105 1627.22 271.335 1626.84 268.062 1626.21C267.181 1626.08 266.551 1625.45 266.425 1624.45C266.551 1623.31 267.684 1622.68 269.699 1622.56C272.469 1622.43 276.497 1621.93 281.785 1621.05C283.8 1620.54 285.185 1619.41 286.066 1617.52C286.57 1616.52 286.821 1615.38 286.821 1614C286.821 1611.48 285.562 1607.07 283.17 1600.78C280.778 1594.61 279.645 1590.45 279.897 1588.44C280.149 1583.53 284.681 1580 293.116 1577.99C293.998 1577.74 294.375 1578.12 294.375 1579C294.375 1579.5 294.124 1579.88 293.494 1580.13C289.339 1582.02 287.325 1584.28 287.325 1587.05C287.325 1588.19 287.451 1589.45 287.954 1591.08C288.332 1592.72 289.465 1596.62 291.354 1602.67C292.739 1607.07 293.494 1610.47 293.494 1612.74H293.242Z" fill="currentColor"/>
<path d="M302.433 1578.37C302.433 1580.13 301.929 1583.02 301.048 1587.05C300.67 1588.44 300.292 1589.32 299.915 1589.7C299.663 1589.95 299.033 1590.2 297.9 1590.58C296.515 1591.08 295.634 1591.46 295.256 1591.46C294.753 1591.46 294.375 1591.08 294.375 1590.2C294.375 1589.82 294.375 1589.19 294.627 1588.44C295.508 1584.54 295.886 1581.77 295.634 1580.25C295.382 1578.74 295.886 1577.74 296.893 1577.36C298.782 1576.35 300.041 1575.85 300.544 1575.85C301.677 1575.85 302.307 1576.73 302.307 1578.37H302.433Z" fill="currentColor"/>
<path d="M269.321 1586.43C265.796 1596.62 263.278 1605.18 262.019 1611.98C262.523 1611.48 263.404 1610.6 264.285 1609.47C265.292 1608.33 265.796 1607.58 266.048 1607.45C266.551 1606.7 267.181 1606.32 267.81 1606.32C268.314 1606.32 268.692 1606.57 268.692 1607.2C268.692 1607.58 268.566 1607.95 268.188 1608.46C264.537 1614 262.145 1619.54 261.012 1625.2C260.634 1626.84 260.13 1627.6 259.501 1627.6C258.871 1627.6 257.612 1626.97 255.85 1625.71C254.843 1624.95 254.213 1624.32 254.087 1623.94C253.835 1623.44 253.835 1622.56 254.087 1621.3C255.724 1611.23 257.738 1602.79 260.13 1595.99C256.857 1601.66 252.199 1607.83 246.533 1614.63C241.497 1620.54 237.846 1624.32 235.706 1625.96C234.069 1627.09 232.81 1627.72 232.054 1627.72C231.425 1627.72 230.292 1627.09 228.907 1625.96C226.892 1624.7 225.885 1622.94 225.885 1620.67C225.885 1620.29 225.885 1619.79 226.011 1619.16C226.767 1613.24 229.159 1606.44 233.439 1598.51C237.72 1590.71 242.63 1584.03 248.296 1578.75C250.058 1576.98 251.695 1576.1 253.08 1576.23C254.465 1576.35 257.109 1578.12 261.012 1581.89C261.39 1582.27 261.515 1582.52 261.515 1582.9C261.515 1583.53 261.138 1583.91 260.256 1583.91C260.005 1583.91 259.627 1583.91 259.375 1583.78C256.605 1582.52 254.465 1582.65 252.828 1583.91C249.303 1586.68 245.274 1591.46 240.868 1598.39C235.831 1606.32 232.81 1613.49 231.677 1619.92C231.677 1620.17 231.677 1620.42 231.677 1620.67C231.677 1621.68 232.054 1622.18 232.81 1622.18C234.069 1622.18 235.706 1621.3 237.468 1619.41C241.749 1615.13 246.407 1609.59 251.317 1603.04C256.353 1596.25 259.627 1591.08 261.012 1587.56C262.019 1585.04 262.774 1583.15 263.026 1582.14C263.53 1580.38 264.033 1579.5 264.663 1579.5C265.292 1579.5 266.551 1580.38 268.692 1581.89C269.573 1582.52 270.077 1583.15 270.077 1583.78C270.203 1584.28 269.951 1585.04 269.573 1586.3L269.321 1586.43Z" fill="currentColor"/>
<path d="M234.321 1549.91C235.454 1550.54 235.957 1551.17 235.957 1551.93C235.957 1552.43 235.58 1552.68 234.824 1552.68C234.698 1552.68 234.446 1552.68 234.069 1552.56C233.691 1552.43 233.439 1552.43 233.313 1552.43C231.803 1552.43 230.04 1554.07 228.025 1557.34C226.137 1560.24 223.619 1566.66 220.345 1576.6C220.094 1577.48 219.968 1577.99 219.968 1578.11C220.094 1578.37 220.597 1578.62 221.479 1578.62C223.745 1578.74 226.766 1578.74 230.544 1578.37C231.803 1578.24 232.432 1578.87 232.432 1580.13C232.432 1581.01 231.928 1581.51 230.921 1581.77C230.166 1581.89 225.885 1582.27 218.205 1582.9C213.547 1596.87 210.777 1608.71 209.77 1618.4C209.77 1618.91 209.77 1619.41 209.77 1619.79C209.77 1621.17 210.147 1621.8 210.777 1621.8C211.784 1621.8 214.932 1619.16 220.094 1614C220.723 1613.37 221.353 1612.99 221.856 1612.99C222.36 1612.99 222.612 1613.24 222.738 1613.62C222.864 1614.12 222.612 1614.63 222.234 1615.26C219.086 1619.54 216.065 1623.19 213.043 1626.21C211.784 1627.47 210.777 1628.1 209.896 1628.1C209.014 1628.1 207.755 1627.47 205.993 1625.96C203.852 1625.33 202.719 1624.19 202.719 1622.31C202.719 1622.05 202.719 1621.68 202.845 1621.3C204.23 1611.1 207 1598.38 211.155 1583.28C209.14 1583.02 207.252 1582.77 205.615 1582.39C204.86 1582.27 204.482 1581.77 204.482 1581.01C204.482 1580.13 204.86 1579.5 205.615 1579.37C206.37 1579.25 207.755 1578.74 209.896 1577.99C211.155 1577.61 212.414 1576.98 213.547 1576.23C217.702 1563.01 220.849 1554.44 223.241 1550.54C224.626 1548.28 226.011 1547.27 227.522 1547.27C228.907 1547.27 231.173 1548.02 233.943 1549.66L234.321 1549.91Z" fill="currentColor"/>
<path d="M195.543 1585.67C194.662 1591.08 192.27 1600.02 188.367 1612.49C189.5 1611.48 191.011 1609.59 193.025 1606.82C193.277 1606.44 193.529 1606.32 193.781 1606.32C194.41 1606.32 194.536 1606.82 194.032 1607.95C193.781 1608.33 192.27 1611.1 189.248 1616.14C186.982 1619.91 185.219 1623.31 184.212 1626.34C183.834 1627.22 183.205 1627.72 182.324 1627.72C181.442 1627.72 180.183 1627.22 178.546 1626.34C177.539 1625.83 177.036 1625.33 177.036 1625.08C177.036 1624.83 177.287 1624.32 177.665 1623.57C179.805 1619.79 182.072 1613.49 184.59 1604.55C186.982 1595.99 188.367 1589.57 188.619 1585.29C188.744 1583.53 188.619 1582.65 188.115 1582.65C187.737 1582.65 187.234 1583.15 186.226 1584.03L182.701 1587.43C181.442 1588.69 180.813 1588.69 180.813 1587.68C180.813 1587.31 181.064 1586.93 181.316 1586.43C183.079 1583.78 185.093 1581.26 187.108 1579C187.737 1578.37 188.367 1577.99 188.87 1577.99C189.5 1577.99 190.381 1578.37 191.64 1579.25C193.403 1579.75 194.41 1580 194.536 1580.13C195.417 1580.63 195.921 1581.77 195.921 1583.28C195.921 1584.03 195.795 1584.79 195.669 1585.8L195.543 1585.67Z" fill="currentColor"/>
<path d="M203.726 1559.48C204.356 1559.98 204.608 1560.49 204.608 1561.12C204.608 1562.25 202.971 1564.01 199.698 1566.53C197.557 1568.17 195.417 1568.67 193.403 1568.17C192.269 1567.92 191.262 1567.54 190.381 1566.91C190.129 1566.66 189.877 1566.41 189.751 1566.15C189.625 1565.9 189.625 1565.65 189.625 1565.52C189.751 1565.4 190.003 1565.27 190.381 1565.4C193.906 1562.12 196.172 1559.86 197.305 1558.47C198.187 1557.47 198.816 1556.96 199.194 1556.96C199.824 1556.96 201.334 1557.84 203.601 1559.48H203.726Z" fill="currentColor"/>
<path d="M178.67 1581.26C178.67 1586.55 178.041 1591.46 176.656 1596.25C176.278 1597.63 175.648 1598.39 174.893 1598.39C174.389 1598.39 173.13 1597.63 171.368 1595.99C170.486 1595.24 170.235 1594.1 170.612 1592.59C171.745 1588.94 172.249 1586.05 172.249 1583.91C172.249 1583.15 172.123 1582.77 171.745 1582.77C171.242 1582.77 170.486 1583.53 169.479 1584.91C161.421 1595.74 155.504 1607.83 151.601 1621.3C150.342 1625.58 149.209 1627.72 148.328 1627.72C147.95 1627.72 146.439 1626.97 143.795 1625.58C142.536 1624.95 142.033 1623.57 142.536 1621.68C145.558 1607.95 148.831 1596.25 152.357 1586.8C149.461 1589.95 147.698 1592.09 146.943 1593.22C146.691 1593.73 146.187 1593.98 145.684 1593.98C145.054 1593.98 144.677 1593.73 144.677 1593.1C144.677 1592.72 144.802 1592.34 145.18 1591.96C147.069 1589.57 149.587 1586.05 152.734 1581.14C153.741 1579.37 154.623 1578.49 155.63 1578.49C156.26 1578.49 157.77 1579 159.785 1580.13C160.918 1580.76 161.17 1581.64 160.414 1582.65C159.533 1583.78 158.022 1587.94 155.63 1594.86C153.364 1601.66 151.853 1607.07 150.972 1610.85C156.26 1598.76 162.177 1588.06 168.724 1578.87C169.983 1577.11 170.99 1576.23 171.745 1576.23C172.501 1576.23 173.382 1576.73 174.641 1577.61C176.278 1577.86 177.285 1578.12 177.663 1578.37C178.292 1578.87 178.67 1579.88 178.67 1581.26Z" fill="currentColor"/>
<path d="M137.752 1609.21C128.435 1621.68 121.888 1627.85 118.111 1627.85C116.348 1627.85 114.082 1626.59 111.312 1623.94C108.417 1622.56 107.032 1620.67 107.032 1618.28C107.032 1617.9 107.032 1617.4 107.158 1616.89C107.787 1611.48 109.298 1605.44 111.312 1598.76C109.927 1598.01 109.172 1597.25 109.172 1596.62C109.172 1595.99 109.55 1595.74 110.431 1595.74C111.061 1595.74 111.69 1595.87 112.32 1596.25C115.719 1588.31 118.866 1582.65 121.51 1579.25C123.273 1576.98 124.91 1575.85 126.295 1575.85C126.924 1575.85 128.561 1576.48 131.079 1577.61C130.827 1576.35 131.205 1575.72 132.086 1575.47C132.086 1575.47 132.967 1575.47 134.73 1575.47C136.367 1575.47 137.248 1575.72 137.248 1576.35C137.248 1576.48 137.122 1576.86 136.996 1577.36C136.87 1577.86 136.87 1578.37 136.87 1578.87C136.87 1580.38 136.87 1582.14 136.87 1584.16C136.87 1586.3 136.996 1587.68 136.996 1588.44C136.996 1593.35 135.737 1596.87 133.093 1598.76C130.701 1600.53 128.057 1601.41 125.036 1601.41C123.525 1601.41 120.881 1600.9 117.23 1600.15C116.6 1601.41 115.845 1603.8 114.964 1607.45C113.956 1611.98 113.453 1616.01 113.453 1619.54C113.453 1621.55 114.082 1622.68 115.341 1622.68C115.845 1622.68 116.348 1622.56 117.104 1622.31C121.51 1620.67 127.806 1615.63 135.737 1607.32C136.241 1606.82 136.745 1606.57 137.248 1606.57C138.004 1606.57 138.381 1606.95 138.381 1607.7C138.381 1608.21 138.255 1608.58 137.752 1609.09V1609.21ZM131.079 1582.77C131.079 1581.26 130.701 1580.51 130.072 1580.51C129.694 1580.51 129.065 1580.76 128.183 1581.51C124.406 1584.66 121.133 1590.2 118.237 1598.01C118.992 1598.13 120.377 1598.26 122.266 1598.39C125.413 1598.51 127.68 1597.76 129.19 1596.12C130.324 1594.99 130.953 1592.97 131.079 1590.2C130.953 1592.22 130.953 1589.82 130.953 1582.77H131.079Z" fill="currentColor"/>
<path d="M976.381 1586.43C972.856 1596.62 970.338 1605.18 969.079 1611.98C969.583 1611.48 970.464 1610.6 971.345 1609.47C972.353 1608.33 972.856 1607.58 973.108 1607.45C973.612 1606.7 974.241 1606.32 974.871 1606.32C975.5 1606.32 975.752 1606.57 975.752 1607.2C975.752 1607.58 975.626 1607.95 975.248 1608.46C971.597 1614 969.205 1619.54 968.072 1625.2C967.694 1626.84 967.191 1627.6 966.561 1627.6C965.932 1627.6 964.673 1626.97 962.91 1625.71C961.903 1624.95 961.273 1624.32 961.147 1623.94C960.895 1623.44 960.895 1622.56 961.147 1621.3C962.784 1611.23 964.798 1602.79 967.191 1595.99C963.917 1601.66 959.259 1607.83 953.593 1614.63C948.557 1620.54 944.906 1624.32 942.766 1625.96C941.129 1627.09 939.87 1627.72 939.114 1627.72C938.485 1627.72 937.352 1627.09 935.967 1625.96C933.953 1624.7 932.945 1622.94 932.945 1620.67C932.945 1620.29 932.945 1619.79 933.071 1619.16C933.701 1613.24 936.219 1606.44 940.499 1598.51C944.78 1590.71 949.69 1584.03 955.356 1578.75C957.118 1576.98 958.755 1576.1 960.14 1576.23C961.525 1576.35 964.169 1578.12 968.072 1581.89C968.45 1582.27 968.575 1582.52 968.575 1582.9C968.575 1583.53 968.198 1583.91 967.316 1583.91C967.065 1583.91 966.687 1583.91 966.435 1583.78C963.791 1582.52 961.525 1582.65 959.888 1583.91C956.237 1586.68 952.334 1591.46 947.928 1598.39C942.892 1606.32 939.87 1613.49 938.737 1619.92C938.737 1620.17 938.737 1620.42 938.737 1620.67C938.737 1621.68 939.114 1622.18 939.87 1622.18C941.129 1622.18 942.766 1621.3 944.528 1619.41C948.809 1615.13 953.467 1609.59 958.377 1603.04C963.414 1596.25 966.561 1591.08 968.072 1587.56C969.079 1585.04 969.709 1583.15 970.086 1582.14C970.59 1580.38 971.094 1579.5 971.723 1579.5C972.227 1579.5 973.612 1580.38 975.752 1581.89C976.633 1582.52 977.137 1583.15 977.137 1583.78C977.263 1584.28 977.011 1585.04 976.633 1586.3L976.381 1586.43Z" fill="currentColor"/>
<path d="M930.178 1585.67C929.297 1591.08 926.905 1600.02 923.002 1612.49C924.135 1611.48 925.646 1609.59 927.66 1606.82C927.912 1606.44 928.164 1606.32 928.416 1606.32C929.045 1606.32 929.171 1606.82 928.668 1607.95C928.542 1608.33 926.905 1611.1 923.883 1616.14C921.617 1619.91 919.855 1623.31 918.847 1626.34C918.47 1627.22 917.84 1627.72 916.959 1627.72C916.077 1627.72 914.818 1627.22 913.182 1626.34C912.175 1625.83 911.671 1625.33 911.671 1625.08C911.671 1624.83 911.923 1624.32 912.3 1623.57C914.441 1619.79 916.707 1613.49 919.225 1604.55C921.617 1595.99 923.002 1589.57 923.254 1585.29C923.38 1583.53 923.128 1582.65 922.75 1582.65C922.373 1582.65 921.869 1583.15 920.862 1584.03L917.336 1587.43C916.077 1588.69 915.448 1588.69 915.448 1587.68C915.448 1587.31 915.574 1586.93 915.952 1586.43C917.714 1583.78 919.729 1581.26 921.743 1579C922.373 1578.37 923.002 1577.99 923.506 1577.99C924.135 1577.99 925.016 1578.37 926.15 1579.25C927.912 1579.75 928.919 1580 929.045 1580.13C929.927 1580.63 930.304 1581.77 930.304 1583.28C930.304 1584.03 930.178 1584.79 930.053 1585.8L930.178 1585.67Z" fill="currentColor"/>
<path d="M938.235 1559.48C938.864 1559.98 939.116 1560.49 939.116 1561.12C939.116 1562.25 937.479 1564.01 934.206 1566.53C932.066 1568.17 929.925 1568.67 927.911 1568.17C926.778 1567.92 925.771 1567.54 924.889 1566.91C924.637 1566.66 924.386 1566.41 924.26 1566.15C924.134 1565.9 924.134 1565.65 924.134 1565.52C924.26 1565.4 924.511 1565.27 924.889 1565.4C928.414 1562.12 930.681 1559.86 931.814 1558.47C932.695 1557.47 933.325 1556.96 933.702 1556.96C934.458 1556.96 935.843 1557.84 938.235 1559.48Z" fill="currentColor"/>
<path d="M918.971 1549.91C920.105 1550.54 920.608 1551.17 920.608 1551.93C920.608 1552.43 920.23 1552.68 919.475 1552.68C919.349 1552.68 919.097 1552.68 918.72 1552.56C918.342 1552.43 918.216 1552.43 917.964 1552.43C916.579 1552.43 914.691 1554.07 912.676 1557.34C910.788 1560.24 908.27 1566.66 904.996 1576.6C904.745 1577.48 904.619 1577.99 904.619 1578.11C904.745 1578.37 905.248 1578.62 906.129 1578.62C908.396 1578.74 911.417 1578.74 915.194 1578.37C916.453 1578.24 917.083 1578.87 917.083 1580.13C917.083 1581.01 916.579 1581.51 915.572 1581.77C914.817 1581.89 910.536 1582.27 902.856 1582.9C898.198 1596.87 895.428 1608.71 894.421 1618.4C894.421 1618.91 894.421 1619.41 894.421 1619.79C894.421 1621.17 894.798 1621.8 895.428 1621.8C896.435 1621.8 899.583 1619.16 904.745 1614C905.374 1613.37 906.004 1612.99 906.507 1612.99C907.011 1612.99 907.263 1613.24 907.388 1613.62C907.514 1614.12 907.263 1614.63 906.885 1615.26C903.737 1619.54 900.716 1623.19 897.694 1626.21C896.435 1627.47 895.428 1628.1 894.547 1628.1C893.665 1628.1 892.406 1627.47 890.644 1625.96C888.377 1625.33 887.37 1624.19 887.37 1622.31C887.37 1622.05 887.37 1621.68 887.496 1621.3C888.881 1611.1 891.651 1598.38 895.806 1583.28C893.791 1583.02 891.903 1582.77 890.266 1582.39C889.51 1582.27 889.133 1581.77 889.133 1581.01C889.133 1580.13 889.51 1579.5 890.266 1579.37C891.021 1579.25 892.406 1578.74 894.547 1577.99C895.806 1577.61 897.065 1576.98 898.198 1576.23C902.352 1563.01 905.5 1554.44 907.892 1550.54C909.277 1548.28 910.662 1547.27 912.173 1547.27C913.684 1547.27 915.824 1548.02 918.594 1549.66L918.971 1549.91Z" fill="currentColor"/>
<path d="M880.197 1585.67C879.315 1591.08 876.923 1600.02 873.02 1612.49C874.153 1611.48 875.664 1609.59 877.678 1606.82C877.93 1606.44 878.182 1606.32 878.434 1606.32C879.063 1606.32 879.189 1606.82 878.686 1607.95C878.56 1608.33 876.923 1611.1 873.901 1616.14C871.635 1619.91 869.873 1623.31 868.865 1626.34C868.488 1627.22 867.858 1627.72 866.977 1627.72C866.096 1627.72 864.837 1627.22 863.2 1626.34C862.193 1625.83 861.689 1625.33 861.689 1625.08C861.689 1624.83 861.941 1624.32 862.318 1623.57C864.459 1619.79 866.725 1613.49 869.243 1604.55C871.635 1595.99 873.02 1589.57 873.398 1585.29C873.524 1583.53 873.272 1582.65 872.894 1582.65C872.517 1582.65 871.887 1583.15 871.006 1584.03L867.355 1587.43C866.096 1588.69 865.466 1588.69 865.466 1587.68C865.466 1587.31 865.592 1586.93 865.97 1586.43C867.732 1583.78 869.747 1581.26 871.761 1579C872.391 1578.37 873.02 1577.99 873.524 1577.99C874.153 1577.99 875.035 1578.37 876.294 1579.25C878.056 1579.75 879.063 1580 879.189 1580.13C880.071 1580.63 880.448 1581.77 880.448 1583.28C880.448 1584.03 880.322 1584.79 880.197 1585.8V1585.67Z" fill="currentColor"/>
<path d="M888.251 1559.48C888.88 1559.98 889.132 1560.49 889.132 1561.12C889.132 1562.25 887.495 1564.01 884.222 1566.53C882.082 1568.17 879.941 1568.67 877.927 1568.17C876.794 1567.92 875.787 1567.54 874.905 1566.91C874.654 1566.66 874.402 1566.41 874.276 1566.15C874.15 1565.9 874.15 1565.65 874.15 1565.52C874.276 1565.4 874.528 1565.27 874.905 1565.4C878.431 1562.12 880.697 1559.86 881.83 1558.47C882.711 1557.47 883.341 1556.96 883.718 1556.96C884.348 1556.96 885.859 1557.84 888.251 1559.48Z" fill="currentColor"/>
<path d="M868.989 1549.91C870.123 1550.54 870.626 1551.17 870.626 1551.93C870.626 1552.43 870.249 1552.68 869.493 1552.68C869.367 1552.68 869.115 1552.68 868.738 1552.56C868.36 1552.43 868.234 1552.43 867.982 1552.43C866.471 1552.43 864.709 1554.07 862.694 1557.34C860.806 1560.24 858.288 1566.66 855.014 1576.6C854.763 1577.48 854.637 1577.99 854.637 1578.11C854.763 1578.37 855.266 1578.62 856.148 1578.62C858.414 1578.74 861.435 1578.74 865.212 1578.37C866.471 1578.24 867.101 1578.87 867.101 1580.13C867.101 1581.01 866.597 1581.51 865.59 1581.77C864.835 1581.89 860.554 1582.27 852.874 1582.9C848.216 1596.87 845.446 1608.71 844.439 1618.4C844.439 1618.91 844.439 1619.41 844.439 1619.79C844.439 1621.17 844.816 1621.8 845.446 1621.8C846.453 1621.8 849.601 1619.16 854.763 1614C855.392 1613.37 856.022 1612.99 856.525 1612.99C857.029 1612.99 857.281 1613.24 857.407 1613.62C857.532 1614.12 857.281 1614.63 856.903 1615.26C853.755 1619.54 850.734 1623.19 847.712 1626.21C846.453 1627.47 845.446 1628.1 844.565 1628.1C843.683 1628.1 842.424 1627.47 840.662 1625.96C838.521 1625.33 837.388 1624.19 837.388 1622.31C837.388 1622.05 837.388 1621.68 837.514 1621.3C838.899 1611.1 841.669 1598.38 845.824 1583.28C843.809 1583.02 841.921 1582.77 840.284 1582.39C839.529 1582.27 839.151 1581.77 839.151 1581.01C839.151 1580.13 839.529 1579.5 840.284 1579.37C841.039 1579.25 842.424 1578.74 844.565 1577.99C845.824 1577.61 847.083 1576.98 848.216 1576.23C852.37 1563.01 855.518 1554.44 857.91 1550.54C859.295 1548.28 860.68 1547.27 862.191 1547.27C863.702 1547.27 865.842 1548.02 868.612 1549.66L868.989 1549.91Z" fill="currentColor"/>
<path d="M825.681 1612.74C825.807 1617.52 823.289 1620.8 818.001 1622.56C817.371 1624.2 816.742 1625.45 816.112 1626.08C815.231 1627.09 813.846 1627.59 812.209 1627.72C811.076 1627.85 809.943 1627.72 808.684 1627.59C806.418 1627.22 803.648 1626.84 800.375 1626.21C799.493 1626.08 798.864 1625.45 798.738 1624.45C798.864 1623.31 799.997 1622.68 802.011 1622.56C804.781 1622.43 808.81 1621.93 814.098 1621.05C816.112 1620.54 817.497 1619.41 818.378 1617.52C818.882 1616.52 819.134 1615.38 819.134 1614C819.134 1611.48 817.875 1607.07 815.483 1600.78C813.091 1594.61 811.957 1590.45 812.209 1588.44C812.461 1583.53 816.994 1580 825.429 1577.99C826.31 1577.74 826.688 1578.12 826.688 1579C826.688 1579.5 826.436 1579.88 825.807 1580.13C821.652 1582.02 819.637 1584.28 819.637 1587.05C819.637 1588.19 819.763 1589.45 820.267 1591.08C820.645 1592.72 821.778 1596.62 823.666 1602.67C825.051 1607.07 825.807 1610.47 825.807 1612.74H825.681Z" fill="currentColor"/>
<path d="M834.869 1578.37C834.869 1580.13 834.365 1583.02 833.484 1587.05C833.106 1588.44 832.728 1589.32 832.351 1589.7C832.099 1589.95 831.469 1590.2 830.336 1590.58C828.951 1591.08 828.07 1591.46 827.692 1591.46C827.063 1591.46 826.811 1591.08 826.811 1590.2C826.811 1589.82 826.811 1589.19 827.063 1588.44C827.944 1584.54 828.322 1581.77 828.07 1580.25C827.944 1578.74 828.322 1577.74 829.329 1577.36C831.218 1576.35 832.477 1575.85 832.98 1575.85C834.113 1575.85 834.743 1576.73 834.743 1578.37H834.869Z" fill="currentColor"/>
<path d="M804.781 1582.9C799.745 1592.72 795.842 1604.3 793.324 1617.65C794.457 1615.63 795.716 1613.24 797.227 1610.22C797.353 1609.72 797.731 1609.34 798.108 1609.34C798.738 1609.34 798.99 1609.72 798.99 1610.47C798.99 1610.72 798.99 1610.98 798.864 1611.23C796.472 1617.02 794.835 1621.55 794.08 1624.7C793.576 1626.71 792.946 1627.72 792.191 1627.72C791.436 1627.72 789.925 1626.97 787.659 1625.33C786.526 1624.45 786.022 1622.94 786.4 1620.67C788.036 1611.98 789.925 1604.43 792.191 1598.01C784.763 1610.6 778.594 1619.79 773.558 1625.71C772.425 1626.97 771.291 1627.72 769.906 1627.72C768.773 1627.72 767.514 1627.22 766.129 1626.34C763.486 1625.83 762.101 1624.45 762.101 1622.06C762.101 1621.68 762.101 1621.17 762.226 1620.67C763.234 1609.21 765.122 1599.77 768.144 1592.22C767.514 1592.85 766.507 1593.73 765.248 1594.99C764.745 1595.36 764.367 1595.49 764.115 1595.36C763.863 1595.11 763.863 1594.61 764.241 1593.98C766.255 1590.83 767.514 1588.82 767.892 1587.81C769.151 1584.66 770.284 1582.27 771.669 1580.63C772.299 1579.75 773.054 1579.25 773.809 1579.25C774.817 1579.25 776.327 1579.88 778.342 1581.14C778.846 1581.51 779.223 1581.89 779.223 1582.27C779.223 1582.27 778.846 1582.9 777.964 1584.28C776.076 1587.31 774.061 1592.72 771.795 1600.27C769.403 1608.58 768.27 1615.38 768.27 1620.54C768.27 1622.31 768.647 1623.06 769.277 1623.06C769.906 1623.06 770.914 1622.31 772.299 1620.8C775.194 1617.52 779.475 1611.35 785.141 1602.29C790.051 1594.23 793.072 1589.07 794.08 1586.68C795.842 1582.65 797.227 1580.26 798.234 1579.5C798.99 1579 799.493 1578.74 800.123 1578.74C800.626 1578.74 801.634 1579.12 803.27 1580C804.781 1580.89 805.537 1581.51 805.537 1581.89C805.537 1582.02 805.411 1582.14 805.159 1582.4C804.907 1582.65 804.655 1582.77 804.529 1583.03L804.781 1582.9Z" fill="currentColor"/>
<path d="M760.086 1565.02C758.701 1576.6 755.176 1589.57 749.51 1603.8C742.837 1620.67 736.29 1628.98 729.995 1629.1C726.218 1629.1 721.56 1627.09 716.146 1622.81C715.768 1622.43 715.517 1621.93 715.517 1621.42C715.517 1620.04 716.146 1619.28 717.405 1619.28C717.657 1619.28 718.035 1619.41 718.286 1619.54C721.56 1621.3 724.456 1622.18 726.722 1622.18C731.758 1622.31 737.423 1614.5 743.593 1598.51C749.384 1583.15 752.658 1569.43 753.035 1557.22C753.161 1553.31 751.273 1551.3 747.37 1551.3C746.74 1551.3 746.111 1551.3 745.355 1551.42C742.334 1551.8 738.934 1554.32 735.157 1558.85C730.877 1563.89 727.981 1569.55 726.218 1575.97C725.966 1576.86 725.841 1577.61 725.841 1578.37C725.841 1579.88 726.344 1581.14 727.225 1582.4C728.107 1583.28 728.988 1584.28 729.869 1585.17C730.247 1585.67 730.499 1586.05 730.499 1586.42C730.499 1587.18 729.869 1587.56 728.736 1587.56C728.233 1587.56 727.855 1587.43 727.603 1587.31C724.33 1585.29 722.063 1583.65 720.804 1582.27C719.294 1580.76 718.664 1579 718.664 1576.98C718.664 1575.09 719.294 1572.58 720.679 1569.3C722.693 1564.39 725.589 1559.73 729.618 1555.07C733.395 1550.67 736.794 1547.77 739.816 1546.51C741.201 1545.88 744.096 1546.26 748.377 1547.52C748.629 1547.14 749.006 1547.02 749.636 1547.02C751.147 1547.02 754.043 1548.53 758.449 1551.55C760.463 1552.81 760.967 1557.34 760.086 1564.9V1565.02Z" fill="currentColor"/>
<path d="M678.881 1612.61C679.132 1613.12 678.755 1614.5 677.622 1616.64C674.474 1622.94 671.83 1629.36 669.816 1635.78C670.697 1636.16 670.319 1636.91 668.809 1637.79C667.424 1638.8 666.039 1639.18 664.654 1638.92C664.15 1638.8 663.772 1638.3 663.772 1637.41C663.772 1636.28 664.402 1633.39 665.535 1628.98C667.298 1622.56 668.934 1618.28 670.445 1616.14C671.075 1615.26 671.956 1614.63 672.963 1614.12C676.489 1612.86 678.377 1612.36 678.503 1612.74L678.881 1612.61Z" fill="currentColor"/>
<path d="M119.874 1549.91C120.378 1550.67 120.63 1551.3 120.63 1551.93C120.63 1552.68 118.993 1554.32 115.594 1556.59C110.935 1562.38 104.514 1572.2 96.4566 1586.17C87.7694 1601.16 81.852 1612.87 78.4527 1621.68C78.5786 1622.56 78.7045 1623.31 78.7045 1623.69C78.7045 1625.08 77.4454 1626.21 75.0533 1627.47C74.0461 1627.97 73.2907 1628.23 72.5353 1628.23C71.5281 1628.23 70.2691 1627.34 68.7582 1625.46C68.1287 1624.7 67.8769 1623.94 67.8769 1623.19C67.8769 1622.06 68.3805 1620.92 69.5136 1619.92C69.2618 1606.57 67.6251 1593.35 64.3517 1580.13C61.4559 1568.42 58.4343 1560.11 55.035 1555.08C53.9018 1553.31 52.391 1552.43 50.3766 1552.43C48.2363 1552.43 45.3405 1553.94 41.4376 1556.96C41.0599 1557.22 40.5563 1557.47 39.9268 1557.47C38.7936 1557.47 38.29 1557.09 38.29 1556.21C38.29 1555.71 38.5418 1555.2 39.1714 1554.57C42.4448 1551.17 46.4736 1547.9 51.3838 1545.13C53.1464 1544.12 54.5314 1543.62 55.5386 1543.62C57.3012 1543.62 59.0638 1545 60.8264 1547.65C68.6323 1559.61 74.172 1581.01 77.1936 1611.73C79.8376 1606.07 84.9995 1596.37 92.4277 1582.65C99.3523 1569.93 103.255 1562.88 104.137 1561.5C103.381 1561.62 102.626 1560.87 101.87 1559.23C101.115 1557.59 100.611 1555.96 100.611 1554.32C100.611 1553.06 100.989 1552.43 101.744 1552.43C102.626 1552.43 103.507 1552.43 104.388 1552.43C105.396 1552.18 106.781 1551.3 108.417 1549.79C109.55 1548.78 110.683 1547.77 111.691 1546.77C112.824 1546.01 113.579 1545.51 114.209 1545.51C115.72 1545.51 117.482 1547.02 119.622 1550.17L119.874 1549.91Z" fill="currentColor"/>
<path d="M29.9819 1487.34H985.449V1494.39H29.9819V1487.34Z" fill="currentColor"/>
</g>
<defs>
<filter id="filter0_d_349_2" x="-14.414" y="-1.93211" width="1044.83" height="1761.02" filterUnits="userSpaceOnUse" color-interpolation-filters="sRGB">
<feFlood flood-opacity="0" result="BackgroundImageFix"/>
<feColorMatrix in="SourceAlpha" type="matrix" values="0 0 0 0 0 0 0 0 0 0 0 0 0 0 0 0 0 0 127 0" result="hardAlpha"/>
<feOffset dy="11.5312"/>
<feGaussianBlur stdDeviation="7.207"/>
<feComposite in2="hardAlpha" operator="out"/>
<feColorMatrix type="matrix" values="0 0 0 0 0 0 0 0 0 0 0 0 0 0 0 0 0 0 0.25 0"/>
<feBlend mode="normal" in2="BackgroundImageFix" result="effect1_dropShadow_349_2"/>
<feBlend mode="normal" in="SourceGraphic" in2="effect1_dropShadow_349_2" result="shape"/>
</filter>
</defs>
</svg>
