<?xml version="1.0" encoding="UTF-8" standalone="no"?>
<!-- Created with Inkscape (http://www.inkscape.org/) -->

<svg
  width="100%"
  height="100%"
   viewBox="0 0 87.312498 27.252082"
   version="1.1"
   id="svg1"
   inkscape:version="1.3.1 (9b9bdc1480, 2023-11-25, custom)"
   sodipodi:docname="ui-logo-3_color1.svg"
   xmlns:inkscape="http://www.inkscape.org/namespaces/inkscape"
   xmlns:sodipodi="http://sodipodi.sourceforge.net/DTD/sodipodi-0.dtd"
   xmlns="http://www.w3.org/2000/svg"
   xmlns:svg="http://www.w3.org/2000/svg">
  <sodipodi:namedview
     id="namedview1"
     pagecolor="#505050"
     bordercolor="#ffffff"
     borderopacity="1"
     inkscape:showpageshadow="0"
     inkscape:pageopacity="0"
     inkscape:pagecheckerboard="1"
     inkscape:deskcolor="#505050"
     inkscape:document-units="mm"
     inkscape:zoom="2.8079686"
     inkscape:cx="170.58595"
     inkscape:cy="76.923937"
     inkscape:window-width="1841"
     inkscape:window-height="991"
     inkscape:window-x="0"
     inkscape:window-y="0"
     inkscape:window-maximized="1"
     inkscape:current-layer="svg1"
     showgrid="false" />
  <defs
     id="defs1" />
  <path
     id="makara"
     d="M 0,0 C 0.061,-0.004 0.122,-0.007 0.184,-0.008 2.456,-0.048 4.356,2.156 3.098,4.819 2.96,2.758 2.053,1.644 0.133,1.644 0.088,1.644 0.044,1.644 0,1.645 -0.044,1.644 -0.088,1.644 -0.133,1.644 c -1.92,0 -2.827,1.114 -2.966,3.175 -1.258,-2.663 0.643,-4.867 2.915,-4.827 C -0.122,-0.007 -0.061,-0.004 0,0 M 0,3.278 C 0.048,3.274 0.097,3.271 0.148,3.271 1.835,3.227 2.192,4.936 1.775,5.967 1.507,4.936 0.727,4.412 0,4.577 c -0.727,-0.165 -1.508,0.359 -1.775,1.39 -0.417,-1.031 -0.06,-2.74 1.627,-2.696 0.051,0 0.1,0.003 0.148,0.007 M 0,8.377 C 0.185,8.384 0.362,8.385 0.526,8.378 5.837,8.145 12.603,6.322 15.393,7.404 17.31,8.147 20.405,10.47 21.849,8.429 22.287,7.81 20.527,6.272 20.491,8.092 19.779,9.557 18.256,7.367 19.362,6.204 15.332,2.218 4.376,6.763 3.329,7.058 3.03,7.143 2.864,6.824 3.101,6.401 3.483,5.719 4.656,4.722 4.94,3.672 5.513,1.556 3.81,-1.838 0.415,-1.933 0.274,-1.937 0.135,-1.934 0,-1.927 c -0.135,-0.007 -0.274,-0.01 -0.416,-0.006 -3.394,0.095 -5.097,3.489 -4.524,5.605 0.284,1.05 1.457,2.047 1.839,2.729 0.237,0.423 0.071,0.742 -0.228,0.657 -1.047,-0.295 -12.003,-4.84 -16.033,-0.854 1.106,1.163 -0.417,3.353 -1.129,1.888 -0.036,-1.82 -1.796,-0.282 -1.359,0.337 1.445,2.041 4.54,-0.282 6.457,-1.025 2.79,-1.082 9.556,0.741 14.867,0.974 C -0.362,8.385 -0.185,8.384 0,8.377 m 0,6.294 c -0.298,0.043 -0.637,-0.084 -0.661,-0.374 -0.343,-2.889 -0.036,-2.464 -1.035,-3.676 -1.417,-1.719 -2.803,-1.568 -5.032,-1.692 -2.106,-0.117 -3.78,-0.259 -4.138,0.648 -0.189,0.48 0.989,4.067 4.248,4.726 1.159,0.235 3.299,-0.342 3.298,0.346 -0.003,1.17 -3.213,0.821 -4.222,0.562 -3.534,-0.911 -6.516,-2.352 -9.265,-6.336 5.2,-2.704 10.787,-0.051 16.668,0.254 C -0.093,9.125 -0.047,9.12 0,9.115 0.046,9.12 0.093,9.125 0.139,9.129 6.02,8.824 11.607,6.171 16.807,8.875 14.058,12.859 11.076,14.3 7.542,15.211 6.532,15.47 3.323,15.819 3.32,14.649 3.319,13.961 5.459,14.538 6.617,14.303 9.877,13.644 11.055,10.057 10.866,9.577 10.508,8.67 8.834,8.812 6.728,8.929 4.499,9.053 3.112,8.902 1.696,10.621 0.697,11.833 1.004,11.408 0.66,14.297 0.637,14.587 0.298,14.714 0,14.671 m 0,17.27 c -0.154,0.088 -0.291,0.398 -0.301,0.898 -0.05,2.366 -0.667,4.883 -0.429,7.64 0.097,0.972 0.401,1.514 0.73,1.641 C 0.328,41.993 0.633,41.451 0.73,40.479 0.968,37.722 0.351,35.205 0.301,32.839 0.29,32.339 0.154,32.029 0,31.941 m 0,24.532 c -3.54,-2.659 -9.149,-3.241 -9.052,-10.097 -0.055,-2.718 1.207,-4.239 5.943,-4.194 1.417,0.014 1.42,-4.843 1.378,-6.975 -0.887,1.514 -1.722,2.544 -3.319,3.752 -3.647,3.186 -5.376,3.862 -5.376,7.757 0,2.962 0.732,3.904 2.284,5.889 -5.457,-0.888 -13.31,-5.567 -7.536,-11.218 2.558,-2.486 6.658,-0.478 9.462,-2.826 1.601,-1.162 4.634,-4.667 4.634,-7.074 l 0.08,-1.419 -0.247,-6.359 c -0.025,-0.373 -0.499,-0.298 -0.505,0.037 0,6.87 -3.663,11.74 -10.066,11.74 -2.366,0 -3.725,-0.492 -6.218,-0.393 -2.354,-0.03 -5.127,1.847 -5.22,3.832 -2.618,-2.516 -2.228,-8.64 2.587,-8.136 3.097,0.654 3.44,3.643 7.895,3.643 2.8,0.018 5.075,-0.049 7.282,-2.354 0.967,-1.009 1.796,-1.963 2.336,-5.45 0.051,-0.799 -0.279,-0.764 -0.471,-0.328 -1.653,3.746 -3.372,4.658 -6.418,4.787 -4.898,0.029 -9.117,-7.164 -12.675,-7.164 -1.625,0 -2.566,0.642 -3.507,1.919 0.085,-2.982 0.495,-5.756 3.71,-5.784 1.972,-0.03 3.574,2.395 4.639,4.14 1.849,3.029 5.383,6.566 9.25,5.764 3.394,-0.89 5.361,-4.459 5.361,-9.726 0,-1.051 -0.427,-2.905 -1.694,-2.905 -1.213,0 -1.648,0.292 -1.648,1.477 0,2.18 0.757,7.337 -1.724,7.337 -1.352,0.053 -1.943,-0.741 -1.99,-1.773 0.004,-1.143 2.268,-2.109 1.858,-0.326 -0.127,0.549 0.767,0.771 0.818,-0.059 -0.045,-1.789 -1.615,-1.581 -1.453,-5.435 0,-2.964 2.353,-2.352 5.429,-2.369 2.525,-0.303 1.63,-3.008 -0.142,-3.017 -0.875,-0.035 -1.159,0.493 -1.741,0.575 -0.486,0.067 -0.964,-0.07 -1.073,-0.42 -0.271,-1.462 1.822,-1.869 3.482,-1.869 1.183,-0.062 -0.457,-1.007 -1.27,-1.031 -0.562,-0.018 -0.538,-0.589 -0.029,-0.602 2.891,0.082 3.086,2.064 3.653,4.73 0.052,0.69 0.491,0.99 1.293,1.031 0.802,-0.041 1.241,-0.341 1.293,-1.031 0.566,-2.666 0.762,-4.648 3.653,-4.73 0.509,0.013 0.533,0.584 -0.029,0.602 -0.813,0.024 -2.453,0.969 -1.27,1.031 1.66,0 3.753,0.407 3.482,1.869 -0.109,0.35 -0.587,0.487 -1.073,0.42 -0.582,-0.082 -0.866,-0.61 -1.741,-0.575 -1.772,0.009 -2.667,2.714 -0.142,3.017 3.076,0.017 5.429,-0.595 5.429,2.369 0.162,3.854 -1.409,3.646 -1.453,5.435 0.051,0.83 0.945,0.608 0.818,0.059 -0.41,-1.783 1.854,-0.817 1.858,0.326 -0.047,1.032 -0.639,1.826 -1.991,1.773 -2.48,0 -1.723,-5.157 -1.723,-7.337 0,-1.185 -0.436,-1.477 -1.648,-1.477 -1.268,0 -1.694,1.854 -1.694,2.905 0,5.267 1.967,8.836 5.361,9.726 3.867,0.802 7.401,-2.735 9.25,-5.764 1.065,-1.745 2.667,-4.17 4.639,-4.14 3.215,0.028 3.625,2.802 3.71,5.784 -0.941,-1.277 -1.883,-1.919 -3.507,-1.919 -3.558,0 -7.777,7.193 -12.676,7.164 C 7.5,30.958 5.782,30.046 4.129,26.3 3.937,25.864 3.607,25.829 3.658,26.628 c 0.54,3.487 1.369,4.441 2.335,5.45 2.208,2.305 4.482,2.372 7.283,2.354 4.455,0 4.798,-2.989 7.895,-3.643 4.815,-0.504 5.205,5.62 2.586,8.136 -0.092,-1.985 -2.865,-3.862 -5.219,-3.832 -2.493,-0.099 -3.852,0.393 -6.218,0.393 -6.403,0 -10.066,-4.87 -10.066,-11.74 -0.006,-0.335 -0.48,-0.41 -0.505,-0.037 l -0.247,6.359 0.08,1.419 c 0,2.407 3.033,5.912 4.634,7.074 2.804,2.348 6.904,0.34 9.462,2.826 5.773,5.651 -2.079,10.33 -7.536,11.218 1.552,-1.985 2.283,-2.927 2.283,-5.889 0,-3.895 -1.728,-4.571 -5.375,-7.757 C 3.453,37.751 2.618,36.721 1.731,35.207 1.689,37.339 1.692,42.196 3.109,42.182 7.845,42.137 9.107,43.658 9.052,46.376 9.149,53.232 3.54,53.814 0,56.473 m -2.112,-4.302 c -1.281,-0.356 -1.952,-2.428 -1.849,-4.583 0,-1.141 0.963,-2.655 1.641,-3.127 -0.463,1.249 -1.154,4.209 0.208,7.71 m 1.4,-29.167 c 0,0.673 -0.692,0.768 -0.718,-0.244 0.097,-3.076 -1.311,-2.96 -1.397,-4.149 0,-0.879 0.171,-1.503 1.302,-1.384 1,0 0.828,1.894 0.828,2.771 z m -11.975,15.839 c -0.822,-1.339 -3.436,-2.53 -5.113,-2.53 -6.111,0 -5.872,6.617 -1.156,9.738 -0.123,-4.508 2.161,-7.196 6.269,-7.208 m -6.6,-8.833 c -0.743,-2.939 -1.959,-4.774 -4.459,-4.774 -3.337,0.327 -3.165,5.146 -2.451,7 1.672,-3.015 4.414,-3.213 6.91,-2.226 M -5.478,19.468 c 0.61,0.06 0.842,-0.584 0.614,-1.028 -0.228,-0.444 -0.862,-0.391 -1.135,0.042 -0.209,0.33 -0.08,0.968 0.521,0.986 M -21.95,15.766 c -1.387,0 -3.091,2.203 -3.285,3.58 0.856,-0.374 1.91,-0.78 2.962,-0.616 1.198,0.238 1.262,0.356 1.892,1.213 1.118,-1.771 0.858,-4.177 -1.569,-4.177 m 2.413,-2.996 c -1.826,-0.559 -3.173,1.692 -3.514,2.362 1.197,-0.737 3.511,-0.701 3.981,0.614 0.468,-1.254 0.726,-2.414 -0.467,-2.976 m 0.653,-2.331 c -0.777,0.134 -1.25,0.489 -1.399,1.068 0.954,-0.15 1.957,0.132 2.327,0.932 0.494,-0.865 0.367,-2.224 -0.928,-2 m 8.863,2.501 c -0.825,-0.799 -1.619,-2.296 -2.265,-3.251 -0.417,-0.618 -1.069,-0.402 -0.898,-0.043 0.519,1.087 2.005,2.937 3.163,3.294 m -0.658,0.52 c -0.803,-0.812 -1.777,-1.766 -1.984,-2.012 -1.309,-1.558 -1.957,-2.468 -2.325,-1.559 -0.075,0.183 0.647,1.264 1.714,2.048 0.839,0.615 1.558,1.222 2.595,1.523 m 5.628,-14.322 c -1.231,-0.655 -4.358,0.095 -4.82,1.617 1.817,0.889 2.71,1.586 4.074,2.662 -0.05,-2.027 0.161,-2.683 0.746,-4.279 m -9.975,4.235 c 0.913,0.126 3.03,-0.011 4.373,0.418 2.185,0.697 3.383,0.875 5.423,1.732 -0.787,-1.474 -3.021,-2.802 -3.75,-3.298 -1.886,-1.62 -5.671,-1.494 -6.046,1.148 M 2.111,52.171 c 1.282,-0.356 1.952,-2.428 1.85,-4.583 0,-1.141 -0.963,-2.655 -1.641,-3.127 0.463,1.249 1.154,4.209 -0.209,7.71 M 0.712,23.004 c 0,0.673 0.691,0.768 0.718,-0.244 -0.097,-3.076 1.311,-2.96 1.397,-4.149 0,-0.879 -0.171,-1.503 -1.302,-1.384 -1,0 -0.828,1.894 -0.828,2.771 z m 11.975,15.839 c 0.822,-1.339 3.436,-2.53 5.112,-2.53 6.112,0 5.873,6.617 1.157,9.738 0.122,-4.508 -2.161,-7.196 -6.269,-7.208 m 6.6,-8.833 c 0.743,-2.939 1.959,-4.774 4.459,-4.774 3.337,0.327 3.165,5.146 2.451,7 -1.672,-3.015 -4.414,-3.213 -6.91,-2.226 M 5.478,19.468 c -0.61,0.06 -0.842,-0.584 -0.614,-1.028 0.228,-0.444 0.861,-0.391 1.135,0.042 0.209,0.33 0.08,0.968 -0.521,0.986 m 16.471,-3.702 c 1.388,0 3.092,2.203 3.286,3.58 -0.857,-0.374 -1.91,-0.78 -2.962,-0.616 -1.198,0.238 -1.262,0.356 -1.892,1.213 -1.118,-1.771 -0.858,-4.177 1.568,-4.177 M 19.537,12.77 c 1.826,-0.559 3.173,1.692 3.514,2.362 -1.198,-0.737 -3.511,-0.701 -3.981,0.614 -0.468,-1.254 -0.727,-2.414 0.467,-2.976 m -0.653,-2.331 c 0.776,0.134 1.25,0.489 1.399,1.068 -0.954,-0.15 -1.957,0.132 -2.327,0.932 -0.495,-0.865 -0.367,-2.224 0.928,-2 m -8.863,2.501 c 0.825,-0.799 1.619,-2.296 2.265,-3.251 0.417,-0.618 1.069,-0.402 0.898,-0.043 -0.519,1.087 -2.005,2.937 -3.163,3.294 m 0.658,0.52 c 0.803,-0.812 1.777,-1.766 1.984,-2.012 1.309,-1.558 1.956,-2.468 2.325,-1.559 0.074,0.183 -0.647,1.264 -1.714,2.048 -0.84,0.615 -1.558,1.222 -2.595,1.523 M 5.051,-0.862 C 6.282,-1.517 9.409,-0.767 9.871,0.755 8.054,1.644 7.161,2.341 5.796,3.417 5.847,1.39 5.635,0.734 5.051,-0.862 m 9.975,4.235 C 14.113,3.499 11.996,3.362 10.653,3.791 8.468,4.488 7.27,4.666 5.23,5.523 6.017,4.049 8.251,2.721 8.98,2.225 c 1.886,-1.62 5.671,-1.494 6.046,1.148"
     style="fill:#ffd900;fill-opacity:1;fill-rule:evenodd;stroke:none"
     transform="matrix(0.44573664,0,0,-0.44573664,12.697806,25.780881)" />
  <path
     id="path110"
     d="m 32.0401,8.5563824 c 0,0.8433593 0.239779,1.2733072 0.545703,1.5420246 0.438216,0.384473 1.062468,0.396875 1.37666,0.396875 0.392741,0 0.851628,-0.06201 1.273308,-0.417546 0.508496,-0.417545 0.578776,-1.103808 0.578776,-1.752864 V 7.7006208 c 0,-0.8847005 0.0041,-1.0459309 0.0124,-1.2319661 0.0124,-0.2067059 0.05374,-0.2893882 0.219108,-0.3141927 0.07441,-0.016535 0.107487,-0.020669 0.177767,-0.020669 0.07028,0 0.103353,-0.020669 0.103353,-0.062012 0,-0.041341 -0.04134,-0.053744 -0.124023,-0.053744 -0.231511,0 -0.636654,0.012404 -0.706934,0.012404 -0.0041,0 -0.409277,-0.012404 -0.719336,-0.012404 -0.07855,0 -0.119889,0.012404 -0.119889,0.053744 0,0.041341 0.03307,0.062012 0.09922,0.062012 0.07028,0 0.173632,0.00413 0.219108,0.020669 0.194303,0.053744 0.239778,0.1157552 0.256315,0.3141927 0.0041,0.1860352 0.0124,0.3472656 0.0124,1.2319661 V 8.432359 c 0,0.5994466 -0.0124,1.1038085 -0.347265,1.4180012 -0.239779,0.2356448 -0.549837,0.3100588 -0.810287,0.3100588 -0.206705,0 -0.491959,-0.02067 -0.760677,-0.2315106 C 33.032288,9.6932639 32.866923,9.3666688 32.866923,8.5150413 V 7.7006208 c 0,-0.8847005 0,-1.0459309 0.0124,-1.2319661 0.01654,-0.2067059 0.06201,-0.2893882 0.219108,-0.3141927 0.07855,-0.016535 0.111621,-0.020669 0.181901,-0.020669 0.05788,0 0.09508,-0.020669 0.09508,-0.062012 0,-0.041341 -0.04134,-0.053744 -0.132292,-0.053744 -0.219108,0 -0.624251,0.012404 -0.773079,0.012404 -0.177767,0 -0.58291,-0.012404 -0.905371,-0.012404 -0.08682,0 -0.128158,0.012404 -0.128158,0.053744 0,0.041341 0.03307,0.062012 0.103353,0.062012 0.08268,0 0.181901,0.00413 0.231511,0.020669 0.190169,0.053744 0.248046,0.1074868 0.260449,0.3141927 0.0124,0.1860352 0.0083,0.3472656 0.0083,1.2319661 z m 5.635831,-1.3063801 h 0.02067 c 0.115755,0.1033528 0.752408,0.8061523 1.409732,1.4386718 0.63252,0.6077148 1.384929,1.3270509 1.761133,1.6784499 0.06201,0.06201 0.144694,0.124024 0.248047,0.124024 0.04961,0 0.09509,-0.05788 0.09509,-0.186035 l 0.07028,-3.6710938 c 0.0041,-0.3307291 0.05374,-0.4340821 0.219108,-0.4795572 0.07441,-0.020669 0.124023,-0.020669 0.186035,-0.020669 0.06615,0 0.09922,-0.028938 0.09922,-0.062012 0,-0.049609 -0.05374,-0.053744 -0.136426,-0.053744 -0.293522,0 -0.520899,0.012404 -0.587044,0.012404 -0.132292,0 -0.454753,-0.012404 -0.768945,-0.012404 -0.08682,0 -0.148829,0.00413 -0.148829,0.053744 0,0.033073 0.02067,0.062012 0.09508,0.062012 0.08268,0 0.227376,0 0.314193,0.033073 0.144694,0.053744 0.198437,0.1570966 0.206705,0.5126302 L 40.82199,9.271586 H 40.79305 C 40.706237,9.1889033 39.904218,8.3662146 39.490807,7.9610714 38.614375,7.1053097 37.709004,6.1792679 37.634589,6.104854 37.531237,6.0015011 37.448555,5.9146846 37.37414,5.9146846 c -0.06201,0 -0.103353,0.082682 -0.103353,0.1984375 l -0.05374,3.4519856 c -0.0083,0.5043623 -0.0248,0.6655923 -0.186035,0.7069333 -0.07855,0.01654 -0.19017,0.02481 -0.272852,0.02481 -0.05374,0 -0.09508,0.02894 -0.09508,0.06201 0,0.05374 0.05374,0.06201 0.136426,0.06201 0.310058,0 0.595312,-0.02067 0.649056,-0.02067 0.111621,0 0.39274,0.02067 0.781347,0.02067 0.08268,0 0.14056,-0.0124 0.14056,-0.06201 0,-0.03307 -0.03721,-0.06201 -0.103353,-0.06201 -0.09922,0 -0.214974,-0.0083 -0.318327,-0.04134 -0.115761,-0.04134 -0.190175,-0.177769 -0.202577,-0.6283869 z m 5.455998,1.4800129 c 0,0.5622396 0,1.0252604 -0.02894,1.265039 -0.02067,0.1736328 -0.05374,0.2563148 -0.177766,0.2811198 -0.05374,0.0124 -0.124024,0.02067 -0.21084,0.02067 -0.07855,0 -0.09922,0.03307 -0.09922,0.06201 0,0.04134 0.04134,0.06201 0.119889,0.06201 0.235645,0 0.649056,-0.02067 0.785482,-0.02067 0.165365,0 0.574642,0.02067 0.971517,0.02067 0.07028,0 0.119889,-0.02067 0.119889,-0.06201 0,-0.02894 -0.02894,-0.06201 -0.09922,-0.06201 -0.08682,0 -0.223243,-0.0083 -0.305925,-0.02067 -0.177763,-0.0248 -0.219104,-0.115755 -0.239775,-0.272852 C 43.93808,9.7552756 43.93808,9.2922548 43.93808,8.7300152 V 7.7006208 c 0,-0.8847005 0,-1.0459309 0.0124,-1.2319661 0.01653,-0.2067059 0.06201,-0.2893882 0.227376,-0.3141927 0.07028,-0.016535 0.115755,-0.020669 0.177767,-0.020669 0.06201,0 0.09509,-0.016535 0.09509,-0.07028 0,-0.033073 -0.04548,-0.045475 -0.11989,-0.045475 -0.235644,0 -0.624251,0.012404 -0.777213,0.012404 -0.169499,0 -0.58291,-0.012404 -0.806152,-0.012404 -0.09508,0 -0.144695,0.012404 -0.144695,0.045475 0,0.053744 0.03307,0.07028 0.09509,0.07028 0.07441,0 0.152962,0.00413 0.219108,0.024804 0.132292,0.041341 0.194304,0.111621 0.206706,0.3100585 0.0083,0.1860353 0.0083,0.3472656 0.0083,1.2319661 z m 3.739306,1.4180008 c 0.115756,0.272852 0.165365,0.347266 0.248047,0.347266 0.07855,0 0.136426,-0.08682 0.285254,-0.425814 0.136426,-0.2935218 0.417546,-0.9301754 0.802018,-1.7776689 0.330729,-0.7152018 0.487826,-1.0293945 0.727604,-1.5750976 0.157097,-0.3720704 0.239779,-0.4588866 0.314193,-0.5167644 0.103353,-0.074414 0.231511,-0.066146 0.293522,-0.066146 0.06201,0 0.09508,-0.020669 0.09508,-0.062012 0,-0.041341 -0.04547,-0.053744 -0.119889,-0.053744 -0.186036,0 -0.467155,0.012404 -0.570508,0.012404 -0.07441,0 -0.343132,-0.012404 -0.644922,-0.012404 -0.115755,0 -0.169499,0.012404 -0.169499,0.053744 0,0.041341 0.04548,0.062012 0.103353,0.062012 0.07441,0 0.169499,0.00413 0.239779,0.024804 0.05374,0.020669 0.08268,0.041341 0.08268,0.1033526 0,0.049609 -0.02894,0.1364259 -0.05788,0.214974 -0.144694,0.3803385 -0.917773,2.2572266 -1.178222,2.8608073 h -0.02067 L 46.288326,6.7291027 C 46.205646,6.5223972 46.1519,6.3653007 46.1519,6.2908868 c 0,-0.053744 0.02067,-0.090951 0.06201,-0.1157552 0.04548,-0.037207 0.136426,-0.041341 0.23151,-0.041341 0.05374,0 0.09508,-0.020669 0.09508,-0.062012 0,-0.041341 -0.06614,-0.053744 -0.14056,-0.053744 -0.30179,0 -0.620117,0.012404 -0.768945,0.012404 -0.21084,0 -0.553971,-0.012404 -0.876432,-0.012404 -0.09095,0 -0.152962,0.00413 -0.152962,0.053744 0,0.033073 0.01653,0.062012 0.07028,0.062012 0.04961,0 0.144694,0 0.23151,0.020669 0.219108,0.053744 0.310059,0.1074868 0.446484,0.4299479 z m 3.412712,-1.4180008 c 0,0.5333008 0,0.9921875 -0.02894,1.2402343 -0.02067,0.1694985 -0.05374,0.2811195 -0.177767,0.3059245 -0.05374,0.0124 -0.124023,0.02067 -0.210839,0.02067 -0.07855,0 -0.09922,0.03307 -0.09922,0.06201 0,0.04134 0.04134,0.06201 0.119889,0.06201 0.11989,0 0.272852,-0.0083 0.417546,-0.0124 0.14056,0 0.272851,-0.0083 0.338997,-0.0083 0.181901,0 0.405143,0.0083 0.698665,0.0124 0.297657,0.01654 0.661459,0.02067 1.112077,0.02067 0.227377,0 0.28112,0 0.322461,-0.148828 0.03307,-0.115755 0.08268,-0.5126304 0.08268,-0.644922 0,-0.062012 -0.0083,-0.1364258 -0.05788,-0.1364258 -0.04134,0 -0.05374,0.028939 -0.06615,0.086816 -0.04134,0.2397786 -0.111621,0.3638021 -0.260449,0.4340818 -0.157097,0.06615 -0.413412,0.07441 -0.570508,0.07441 -0.615983,0 -0.802018,-0.08682 -0.814421,-0.4878253 -0.0083,-0.1694987 0,-0.6614583 0,-0.8598958 v -0.467154 c 0,-0.033073 0.0083,-0.062012 0.03307,-0.062012 0.152963,0 0.839225,0.012402 0.946713,0.028939 0.227376,0.020671 0.30179,0.1074869 0.334863,0.2232422 0.01653,0.078548 0.01653,0.1529622 0.02067,0.2149739 0,0.024804 0.01653,0.045475 0.05788,0.045475 0.05374,0 0.05788,-0.082682 0.05788,-0.1281576 0,-0.041341 0.01653,-0.2728515 0.02894,-0.3927408 0.03307,-0.2935222 0.04961,-0.3886068 0.04961,-0.4216797 0,-0.037207 -0.02067,-0.062012 -0.04961,-0.062012 -0.02894,0 -0.04961,0.033073 -0.09509,0.074414 -0.05374,0.062012 -0.144694,0.074414 -0.289388,0.09095 -0.136424,0.012402 -0.917772,0.012402 -1.054198,0.012402 -0.03307,0 -0.04134,-0.028939 -0.04134,-0.062012 V 6.406643 c 0,-0.033073 0.0124,-0.053743 0.04134,-0.053743 0.124024,0 0.84336,0.012404 0.946712,0.024804 0.301791,0.028938 0.347266,0.1116213 0.396875,0.2149739 0.03307,0.066146 0.04134,0.1694988 0.04134,0.2108401 0,0.049609 0.0041,0.074414 0.04547,0.074414 0.04961,0 0.06201,-0.066146 0.07028,-0.095085 0.0124,-0.066146 0.02894,-0.3224611 0.03307,-0.3844728 0.01653,-0.2645833 0.04961,-0.3348633 0.04961,-0.3762043 0,-0.024804 -0.0083,-0.053744 -0.04134,-0.053744 -0.02894,0 -0.06201,0.020669 -0.09508,0.028938 -0.04961,0.00413 -0.144694,0.024804 -0.256315,0.033073 -0.115755,0.00413 -1.451074,0 -1.641243,0 -0.173633,0 -0.558106,-0.012404 -0.872298,-0.012404 -0.08682,0 -0.136426,0.012404 -0.136426,0.053744 0,0.041341 0.04134,0.062012 0.103353,0.062012 0.09095,0 0.190169,0.00413 0.239778,0.020669 0.19017,0.053744 0.248047,0.1157552 0.260449,0.3141927 0.0083,0.1860352 0.0083,0.3472656 0.0083,1.2319661 z m 3.809586,0 c 0,0.5333008 0,0.9921875 -0.02894,1.2402343 -0.02067,0.1694985 -0.05374,0.2811195 -0.177767,0.3059245 -0.05374,0.0124 -0.124024,0.02067 -0.21084,0.02067 -0.07855,0 -0.09922,0.03307 -0.09922,0.06201 0,0.04134 0.04134,0.06201 0.11989,0.06201 0.235644,0 0.620117,-0.02067 0.735872,-0.02067 0.09095,0 0.591178,0.02067 0.938444,0.02067 0.07855,0 0.124023,-0.02067 0.124023,-0.06201 0,-0.02894 -0.0248,-0.06201 -0.07441,-0.06201 -0.07441,0 -0.206706,-0.0083 -0.293522,-0.02067 -0.186035,-0.0248 -0.214974,-0.136426 -0.235644,-0.3059245 -0.0248,-0.2480468 -0.03307,-0.6986653 -0.03307,-1.2402343 v -0.082682 c 0,-0.033073 0.02067,-0.049609 0.04961,-0.049609 l 0.541569,0.016536 c 0.04134,0 0.07441,0.00413 0.107487,0.037207 0.07441,0.09095 0.330729,0.4795572 0.570508,0.797884 0.334863,0.4506185 0.562239,0.7234698 0.822689,0.8557618 0.157096,0.08268 0.318326,0.115755 0.657323,0.115755 h 0.574642 c 0.07441,0 0.115756,-0.0124 0.115756,-0.06201 0,-0.02894 -0.02894,-0.06201 -0.07441,-0.06201 -0.04961,0 -0.08268,0 -0.144694,-0.0124 -0.09509,-0.02067 -0.310068,-0.04961 -0.644931,-0.3844724 C 57.070096,9.5361675 56.648416,9.011135 56.110981,8.3538108 56.702159,7.8783877 56.950206,7.493915 56.950206,7.0639671 c 0,-0.3886069 -0.256315,-0.6862631 -0.425814,-0.8020183 -0.322461,-0.2108398 -0.760677,-0.2439127 -1.145149,-0.2439127 -0.186036,0 -0.731739,0.012404 -0.938444,0.012404 -0.124024,0 -0.508496,-0.012404 -0.822689,-0.012404 -0.08682,0 -0.136426,0.012404 -0.136426,0.053744 0,0.041341 0.04134,0.062012 0.103353,0.062012 0.09095,0 0.190169,0.00413 0.239779,0.020669 0.190169,0.053743 0.248047,0.1157552 0.260449,0.3141927 0.0083,0.1860352 0.0083,0.3472656 0.0083,1.231966 z m 0.764811,-2.3109699 c 0,-0.045475 0.01653,-0.066146 0.05374,-0.082682 0.06201,-0.012404 0.206706,-0.020669 0.359668,-0.020669 0.355534,0 0.917773,0.2149739 0.917773,1.0376628 0,0.4795572 -0.206705,0.7317382 -0.392741,0.8598957 -0.103353,0.078548 -0.186035,0.099219 -0.425813,0.099219 -0.148828,0 -0.326596,-0.016536 -0.458887,-0.057878 -0.03721,-0.020671 -0.05374,-0.041341 -0.05374,-0.099219 z m 4.480347,4.0762367 c 0.322461,0 0.719336,-0.03307 1.008724,-0.239779 0.438216,-0.305924 0.599446,-0.6573238 0.599446,-1.0872717 0,-0.5291666 -0.243913,-0.975651 -1.037663,-1.4138671 L 59.661152,7.6179385 c -0.541569,-0.3017904 -0.636654,-0.504362 -0.636654,-0.7648111 0,-0.396875 0.388607,-0.6242515 0.822689,-0.6242515 0.388607,0 0.578776,0.1653645 0.669726,0.2728517 0.132292,0.1529623 0.157097,0.3307291 0.157097,0.3844726 0,0.07028 0.02067,0.1033529 0.06201,0.1033529 0.04961,0 0.07442,-0.062012 0.07442,-0.1860351 0,-0.4588869 0.02067,-0.6242515 0.02067,-0.6986654 0,-0.041341 -0.0248,-0.062012 -0.08268,-0.074414 -0.157096,-0.041341 -0.46302,-0.095085 -0.855761,-0.095085 -0.835091,0 -1.521355,0.4588866 -1.521355,1.1699545 0,0.5126302 0.235645,0.905371 0.946713,1.3229166 l 0.3514,0.2025716 c 0.5333,0.3183268 0.595312,0.5705078 0.595312,0.8226887 0,0.4134115 -0.318327,0.740006 -0.835091,0.740006 -0.380339,0 -0.830957,-0.144694 -0.959115,-0.5746414 -0.03721,-0.1033529 -0.05788,-0.2273763 -0.05788,-0.3017903 0,-0.041341 -0.0041,-0.095085 -0.06201,-0.095085 -0.04548,0 -0.07441,0.062012 -0.07441,0.1488282 -0.0041,0.099219 -0.03307,0.4588866 -0.03307,0.7772135 0,0.128157 0.02067,0.157096 0.115755,0.198437 0.260449,0.115756 0.63252,0.148829 0.979785,0.148829 z m 2.913517,-1.7652668 c 0,0.5622396 0,1.0252604 -0.02894,1.265039 -0.02067,0.1736328 -0.05374,0.2563148 -0.177767,0.2811198 -0.05374,0.0124 -0.124024,0.02067 -0.21084,0.02067 -0.07855,0 -0.09922,0.03307 -0.09922,0.06201 0,0.04134 0.04134,0.06201 0.119889,0.06201 0.235645,0 0.649056,-0.02067 0.785482,-0.02067 0.165365,0 0.574642,0.02067 0.971517,0.02067 0.07028,0 0.119889,-0.02067 0.119889,-0.06201 0,-0.02894 -0.02894,-0.06201 -0.09922,-0.06201 -0.08682,0 -0.223243,-0.0083 -0.305925,-0.02067 C 63.149311,10.251374 63.10797,10.160419 63.0873,10.003322 63.05836,9.7552756 63.05836,9.2922548 63.05836,8.7300152 V 7.7006208 c 0,-0.8847005 0,-1.0459309 0.0124,-1.2319661 0.01653,-0.2067059 0.06201,-0.2893882 0.227376,-0.3141927 0.07028,-0.016535 0.115755,-0.020669 0.177767,-0.020669 0.06201,0 0.09508,-0.016535 0.09508,-0.07028 0,-0.033073 -0.04548,-0.045475 -0.119889,-0.045475 -0.235644,0 -0.624251,0.012404 -0.777213,0.012404 -0.169499,0 -0.58291,-0.012404 -0.806153,-0.012404 -0.09508,0 -0.144694,0.012404 -0.144694,0.045475 0,0.053744 0.03307,0.07028 0.09508,0.07028 0.07441,0 0.152962,0.00413 0.219108,0.024804 0.132292,0.041341 0.194303,0.111621 0.206706,0.3100585 0.0083,0.1860353 0.0083,0.3472656 0.0083,1.2319661 z m 3.586344,0 c 0,0.5333008 0,0.9921875 -0.0248,1.2402343 -0.02067,0.1694985 -0.05374,0.2811195 -0.177766,0.3059245 -0.04961,0.0124 -0.124024,0.02067 -0.214974,0.02067 -0.07442,0 -0.09508,0.03307 -0.09508,0.06201 0,0.04134 0.04134,0.06201 0.115755,0.06201 0.239779,0 0.65319,-0.02067 0.789616,-0.02067 0.169499,0 0.574642,0.02067 0.971517,0.02067 0.07028,0 0.115753,-0.02067 0.115753,-0.06201 0,-0.02894 -0.0248,-0.06201 -0.09508,-0.06201 -0.08681,0 -0.223241,-0.0083 -0.305925,-0.02067 -0.177765,-0.0248 -0.214972,-0.136426 -0.235645,-0.3017903 -0.0248,-0.252181 -0.03306,-0.7110677 -0.03306,-1.2443685 V 6.3735701 l 0.760677,0.012404 c 0.54157,0.00827 0.698665,0.1860352 0.711069,0.3348633 l 0.0083,0.062012 c 0.0083,0.09095 0.02067,0.1157552 0.06615,0.1157552 0.03721,0 0.04961,-0.033073 0.05788,-0.095085 0,-0.1488281 0.01242,-0.5829102 0.01242,-0.7069338 0,-0.086816 -0.0083,-0.119889 -0.04961,-0.119889 -0.02067,0 -0.06615,0.012404 -0.16123,0.024804 -0.09095,0.016535 -0.219107,0.028938 -0.413413,0.028938 h -2.443259 c -0.198438,0 -0.425814,-0.00827 -0.603581,-0.028938 -0.152962,-0.020669 -0.210839,-0.066146 -0.260449,-0.066146 -0.03307,0 -0.05374,0.033073 -0.07028,0.1074872 -0.0124,0.049609 -0.128157,0.6118489 -0.128157,0.7069335 0,0.062012 0.0124,0.095085 0.05374,0.095085 0.04134,0 0.05374,-0.028938 0.07028,-0.074414 0.0124,-0.041341 0.04134,-0.1157552 0.103353,-0.1984375 0.08682,-0.1322916 0.23151,-0.173633 0.578776,-0.1777672 l 0.897103,-0.020669 z m 4.805909,0.2232422 c 0.0248,0 0.04547,0.00827 0.05788,0.041341 l 0.467155,1.1740886 c 0.02893,0.06615 -0.01242,0.119889 -0.05375,0.128157 -0.06201,0.0083 -0.07441,0.02894 -0.07441,0.06201 0,0.04134 0.06615,0.04134 0.177765,0.04961 0.504363,0.0124 0.94258,0.0124 1.157552,0.0124 0.223245,0 0.260449,-0.0124 0.260449,-0.06201 0,-0.04134 -0.02893,-0.06201 -0.08268,-0.06201 -0.07028,0 -0.136426,-0.0083 -0.227376,-0.02067 -0.107488,-0.02067 -0.281122,-0.09508 -0.512633,-0.6242493 -0.384471,-0.8805663 -1.389062,-3.2659503 -1.533754,-3.5884114 -0.06201,-0.1281575 -0.09095,-0.1860349 -0.177768,-0.1860349 -0.06201,0 -0.111622,0.07028 -0.177768,0.2356443 l -1.579231,3.6628255 c -0.119888,0.2935218 -0.223241,0.4754228 -0.496094,0.5126298 -0.05788,0 -0.124022,0.0083 -0.181899,0.0083 -0.04548,0 -0.06615,0.02894 -0.06615,0.06201 0,0.04961 0.03306,0.06201 0.107484,0.06201 0.318329,0 0.636655,-0.02067 0.698666,-0.02067 0.194303,0 0.475425,0.02067 0.673862,0.02067 0.06201,0 0.09508,-0.0124 0.09508,-0.06201 0,-0.03307 -0.01242,-0.06201 -0.09095,-0.06201 h -0.08682 c -0.186034,0 -0.239776,-0.06201 -0.239776,-0.165364 0,-0.06615 0.02893,-0.2108401 0.08682,-0.3555341 l 0.32246,-0.7813477 c 0.01655,-0.033073 0.02067,-0.041341 0.05788,-0.041341 z M 69.346348,8.6307965 c -0.02067,0 -0.03306,-0.012402 -0.02067,-0.037207 l 0.582909,-1.4758789 c 0.0083,-0.020671 0.01654,-0.053743 0.03721,-0.053743 0.01242,0 0.02067,0.033073 0.0248,0.053743 l 0.570509,1.480013 c 0.0041,0.020671 0,0.033073 -0.02893,0.033073 z m 4.529956,1.8644855 c 0.32246,0 0.719335,-0.03307 1.008722,-0.239779 0.438217,-0.305924 0.599447,-0.6573238 0.599447,-1.0872717 0,-0.5291666 -0.24391,-0.975651 -1.03766,-1.4138671 L 74.198764,7.6179385 C 73.657197,7.3161481 73.56211,7.1135765 73.56211,6.8531274 c 0,-0.396875 0.388609,-0.6242515 0.822692,-0.6242515 0.388605,0 0.578774,0.1653645 0.669723,0.2728517 0.132292,0.1529623 0.157099,0.3307291 0.157099,0.3844726 0,0.07028 0.02067,0.1033529 0.06201,0.1033529 0.04961,0 0.07441,-0.062012 0.07441,-0.1860351 0,-0.4588869 0.02067,-0.6242515 0.02067,-0.6986654 0,-0.041341 -0.0248,-0.062012 -0.08268,-0.074414 -0.157096,-0.041341 -0.463021,-0.095085 -0.855761,-0.095085 -0.835092,0 -1.521354,0.4588866 -1.521354,1.1699545 0,0.5126302 0.235645,0.905371 0.946714,1.3229166 l 0.351398,0.2025716 c 0.533302,0.3183268 0.595313,0.5705078 0.595313,0.8226887 0,0.4134115 -0.318326,0.740006 -0.835092,0.740006 -0.380337,0 -0.830958,-0.144694 -0.959115,-0.5746414 -0.03721,-0.1033529 -0.05788,-0.2273763 -0.05788,-0.3017903 0,-0.041341 -0.0041,-0.095085 -0.06201,-0.095085 -0.04548,0 -0.07442,0.062012 -0.07442,0.1488282 -0.0041,0.099219 -0.03305,0.4588866 -0.03305,0.7772135 0,0.128157 0.02067,0.157096 0.115757,0.198437 0.260449,0.115756 0.632516,0.148829 0.979784,0.148829 z M 32.546529,15.14306 c 0,0.56224 0,1.02526 -0.02894,1.265039 -0.02067,0.173633 -0.05374,0.256315 -0.177767,0.28112 -0.05374,0.0124 -0.124023,0.02067 -0.210839,0.02067 -0.07855,0 -0.09922,0.03307 -0.09922,0.06201 0,0.04134 0.04134,0.06201 0.119889,0.06201 0.235645,0 0.649056,-0.02067 0.785482,-0.02067 0.165364,0 0.574642,0.02067 0.971517,0.02067 0.07028,0 0.119889,-0.02067 0.119889,-0.06201 0,-0.02894 -0.02894,-0.06201 -0.09922,-0.06201 -0.08682,0 -0.223242,-0.0083 -0.305924,-0.02067 -0.177767,-0.0248 -0.219108,-0.115755 -0.239779,-0.272852 -0.02894,-0.248047 -0.02894,-0.711067 -0.02894,-1.273307 v -1.029395 c 0,-0.8847 0,-1.04593 0.0124,-1.231965 0.01654,-0.206706 0.06201,-0.289388 0.227376,-0.314193 0.07028,-0.01654 0.115755,-0.02067 0.177767,-0.02067 0.06201,0 0.09508,-0.01654 0.09508,-0.07028 0,-0.03307 -0.04547,-0.04547 -0.119889,-0.04547 -0.235644,0 -0.624251,0.0124 -0.777213,0.0124 -0.169499,0 -0.58291,-0.0124 -0.806153,-0.0124 -0.09508,0 -0.144694,0.0124 -0.144694,0.04547 0,0.05374 0.03307,0.07028 0.09509,0.07028 0.07441,0 0.152962,0.0041 0.219108,0.0248 0.132292,0.04134 0.194303,0.111621 0.206706,0.310058 0.0083,0.186036 0.0083,0.347266 0.0083,1.231966 z m 3.656624,-1.480013 h 0.02067 c 0.115756,0.103353 0.752409,0.806152 1.409733,1.438672 0.63252,0.607715 1.384929,1.32705 1.761133,1.67845 0.06201,0.06201 0.144694,0.124024 0.248047,0.124024 0.04961,0 0.09508,-0.05788 0.09508,-0.186035 l 0.07028,-3.671094 c 0.0041,-0.330729 0.05374,-0.434082 0.219108,-0.479557 0.07441,-0.02067 0.124024,-0.02067 0.186035,-0.02067 0.06615,0 0.09922,-0.02894 0.09922,-0.06201 0,-0.04961 -0.05374,-0.05374 -0.136426,-0.05374 -0.293522,0 -0.520898,0.0124 -0.587044,0.0124 -0.132292,0 -0.454753,-0.0124 -0.768945,-0.0124 -0.08682,0 -0.148829,0.0041 -0.148829,0.05374 0,0.03307 0.02067,0.06201 0.09508,0.06201 0.08268,0 0.227377,0 0.314193,0.03307 0.144694,0.05374 0.198437,0.157096 0.206706,0.51263 l 0.06201,2.59209 h -0.02894 c -0.0868,-0.08268 -0.888823,-0.905371 -1.302234,-1.310514 -0.876433,-0.855762 -1.781804,-1.781803 -1.856218,-1.856218 -0.103353,-0.103352 -0.186035,-0.190169 -0.260449,-0.190169 -0.06201,0 -0.103353,0.08268 -0.103353,0.198438 l -0.05374,3.451985 c -0.0083,0.504362 -0.0248,0.665592 -0.186036,0.706934 -0.07855,0.01653 -0.190169,0.0248 -0.272851,0.0248 -0.05374,0 -0.09509,0.02894 -0.09509,0.06201 0,0.05374 0.05374,0.06201 0.136426,0.06201 0.310059,0 0.595312,-0.02067 0.649056,-0.02067 0.111621,0 0.392741,0.02067 0.781348,0.02067 0.08268,0 0.140559,-0.0124 0.140559,-0.06201 0,-0.03307 -0.03721,-0.06201 -0.103352,-0.06201 -0.09922,0 -0.214974,-0.0083 -0.318327,-0.04134 -0.115755,-0.04134 -0.19017,-0.177767 -0.202572,-0.628386 z m 6.017204,1.480013 c 0,0.533301 0,0.992187 -0.02894,1.240234 -0.02067,0.169499 -0.05374,0.28112 -0.177767,0.305925 -0.05374,0.0124 -0.124023,0.02067 -0.21084,0.02067 -0.07855,0 -0.09922,0.03307 -0.09922,0.06201 0,0.04134 0.04134,0.06201 0.119889,0.06201 0.119889,0 0.272851,-0.0083 0.417546,-0.0124 0.140559,0 0.272851,-0.0083 0.338997,-0.0083 0.152962,0 0.37207,0.0124 0.611849,0.03307 0.239779,0.01654 0.500228,0.03721 0.719336,0.03721 1.107943,0 1.744596,-0.413411 2.021582,-0.686263 0.343131,-0.334863 0.657324,-0.892969 0.657324,-1.624707 0,-0.690397 -0.268717,-1.178223 -0.570508,-1.480013 -0.657324,-0.661458 -1.670182,-0.661458 -2.422591,-0.661458 -0.363802,0 -0.797884,0.0124 -0.979785,0.0124 -0.173633,0 -0.558105,-0.0124 -0.872298,-0.0124 -0.08682,0 -0.136426,0.0124 -0.136426,0.05374 0,0.04134 0.04134,0.06201 0.103353,0.06201 0.09095,0 0.190169,0.0041 0.239779,0.02067 0.190169,0.05374 0.248046,0.115755 0.260449,0.314193 0.0083,0.186035 0.0083,0.347265 0.0083,1.231965 z m 0.806152,-1.116211 c 0,-0.458887 0,-0.938444 0.0083,-1.136881 0,-0.07028 0.02067,-0.09922 0.07441,-0.11989 0.04961,-0.0248 0.248047,-0.04134 0.367936,-0.04134 0.475423,0 1.132747,0.06201 1.686719,0.558106 0.268717,0.23151 0.562239,0.711067 0.562239,1.451074 0,0.60358 -0.124023,1.124479 -0.51263,1.44694 -0.363802,0.297656 -0.768945,0.396875 -1.314648,0.396875 -0.475423,0 -0.715202,-0.124023 -0.789616,-0.235645 -0.04961,-0.06201 -0.06201,-0.264583 -0.07028,-0.409277 -0.0041,-0.115755 -0.0124,-0.56224 -0.0124,-1.178223 z m 7.255371,2.881478 c 1.554427,0 2.525944,-1.045931 2.525944,-2.38125 0,-1.339453 -0.942578,-2.178678 -2.463932,-2.178678 -1.827279,0 -2.525945,1.285709 -2.525945,2.277897 0,1.037663 0.711068,2.282031 2.463933,2.282031 z m 0.248046,-0.314193 c -1.136881,0 -1.823144,-0.946712 -1.823144,-2.145605 0,-1.438672 0.789616,-1.794206 1.459342,-1.794206 0.971518,0 1.744597,0.79375 1.744597,2.083594 0,1.65778 -0.959115,1.856217 -1.380795,1.856217 z m 4.273641,-2.931087 h 0.02067 c 0.115756,0.103353 0.752409,0.806152 1.409734,1.438672 0.632519,0.607715 1.384928,1.32705 1.761132,1.67845 0.06201,0.06201 0.144694,0.124024 0.248047,0.124024 0.04961,0 0.09508,-0.05788 0.09508,-0.186035 l 0.07028,-3.671094 c 0.0041,-0.330729 0.05374,-0.434082 0.219108,-0.479557 0.07441,-0.02067 0.124023,-0.02067 0.186035,-0.02067 0.06615,0 0.09922,-0.02894 0.09922,-0.06201 0,-0.04961 -0.05374,-0.05374 -0.136426,-0.05374 -0.293522,0 -0.520898,0.0124 -0.587044,0.0124 -0.132292,0 -0.454753,-0.0124 -0.768945,-0.0124 -0.08682,0 -0.148828,0.0041 -0.148828,0.05374 0,0.03307 0.02067,0.06201 0.09508,0.06201 0.08268,0 0.227376,0 0.314193,0.03307 0.144694,0.05374 0.198437,0.157096 0.206706,0.51263 l 0.06201,2.59209 h -0.02894 c -0.08681,-0.08268 -0.888824,-0.905371 -1.302236,-1.310514 -0.876432,-0.855762 -1.781803,-1.781803 -1.856217,-1.856218 -0.103353,-0.103352 -0.186035,-0.190169 -0.260449,-0.190169 -0.06201,0 -0.103353,0.08268 -0.103353,0.198438 l -0.05374,3.451985 c -0.0083,0.504362 -0.0248,0.665592 -0.186036,0.706934 -0.07855,0.01653 -0.190169,0.0248 -0.272851,0.0248 -0.05374,0 -0.09509,0.02894 -0.09509,0.06201 0,0.05374 0.05374,0.06201 0.136426,0.06201 0.310058,0 0.595312,-0.02067 0.649056,-0.02067 0.111621,0 0.392741,0.02067 0.781348,0.02067 0.08268,0 0.140559,-0.0124 0.140559,-0.06201 0,-0.03307 -0.03721,-0.06201 -0.103352,-0.06201 -0.09922,0 -0.214974,-0.0083 -0.318327,-0.04134 -0.115755,-0.04134 -0.190169,-0.177767 -0.202572,-0.628386 z m 6.017204,1.480013 c 0,0.533301 0,0.992187 -0.02894,1.240234 -0.02067,0.169499 -0.05374,0.28112 -0.177767,0.305925 -0.05374,0.0124 -0.124023,0.02067 -0.210839,0.02067 -0.07855,0 -0.09922,0.03307 -0.09922,0.06201 0,0.04134 0.04134,0.06201 0.119889,0.06201 0.11989,0 0.272852,-0.0083 0.417546,-0.0124 0.14056,0 0.272851,-0.0083 0.338997,-0.0083 0.181901,0 0.405143,0.0083 0.698665,0.0124 0.297657,0.01653 0.661459,0.02067 1.112077,0.02067 0.227377,0 0.28112,0 0.322461,-0.148828 0.03307,-0.115755 0.08268,-0.51263 0.08268,-0.644922 0,-0.06201 -0.0083,-0.136426 -0.05788,-0.136426 -0.04134,0 -0.05374,0.02894 -0.06615,0.08682 -0.04134,0.239778 -0.111621,0.363802 -0.260449,0.434082 -0.157097,0.06615 -0.413412,0.07441 -0.570508,0.07441 -0.615983,0 -0.802018,-0.08682 -0.814421,-0.487826 -0.0083,-0.169499 0,-0.661458 0,-0.859896 v -0.467155 c 0,-0.03307 0.0083,-0.06201 0.03307,-0.06201 0.152963,0 0.839225,0.0124 0.946713,0.02894 0.227376,0.02067 0.30179,0.107487 0.334863,0.223243 0.01653,0.07855 0.01653,0.152962 0.02067,0.214973 0,0.0248 0.01654,0.04548 0.05788,0.04548 0.05374,0 0.05788,-0.08268 0.05788,-0.128158 0,-0.04134 0.01654,-0.272852 0.02894,-0.392741 0.03307,-0.293522 0.04961,-0.388606 0.04961,-0.421679 0,-0.03721 -0.02067,-0.06201 -0.04961,-0.06201 -0.02894,0 -0.04961,0.03307 -0.09508,0.07441 -0.05374,0.06201 -0.144694,0.07441 -0.289388,0.09095 -0.136426,0.0124 -0.917774,0.0124 -1.054199,0.0124 -0.03307,0 -0.04134,-0.02894 -0.04134,-0.06201 v -1.438638 c 0,-0.03307 0.0124,-0.05374 0.04134,-0.05374 0.124023,0 0.843359,0.0124 0.946712,0.02481 0.30179,0.02894 0.347266,0.111621 0.396875,0.214974 0.03307,0.06615 0.04134,0.169498 0.04134,0.21084 0,0.04961 0.0041,0.07441 0.04548,0.07441 0.04961,0 0.06201,-0.06615 0.07028,-0.09508 0.0124,-0.06615 0.02894,-0.322461 0.03307,-0.384473 0.01654,-0.264583 0.04961,-0.334863 0.04961,-0.376204 0,-0.0248 -0.0083,-0.05374 -0.04134,-0.05374 -0.02894,0 -0.06201,0.02067 -0.09508,0.02894 -0.04961,0.0041 -0.144694,0.02481 -0.256315,0.03307 -0.115755,0.0041 -1.451075,0 -1.641244,0 -0.173633,0 -0.558105,-0.0124 -0.872298,-0.0124 -0.08682,0 -0.136425,0.0124 -0.136425,0.05374 0,0.04134 0.04134,0.06201 0.103352,0.06201 0.09095,0 0.19017,0.0041 0.239779,0.02067 0.190169,0.05374 0.248047,0.115755 0.260449,0.314192 0.0083,0.186035 0.0083,0.347266 0.0083,1.231966 z m 5.157307,1.765267 c 0.322461,0 0.719336,-0.03307 1.008724,-0.239779 0.438217,-0.305924 0.599447,-0.657324 0.599447,-1.087272 0,-0.529166 -0.243915,-0.975651 -1.037663,-1.413867 l -0.248047,-0.136426 c -0.541568,-0.30179 -0.636653,-0.504362 -0.636653,-0.764811 0,-0.396875 0.388607,-0.624251 0.822689,-0.624251 0.388608,0 0.578776,0.165364 0.669726,0.272851 0.132291,0.152963 0.157095,0.33073 0.157095,0.384473 0,0.07028 0.02067,0.103353 0.06201,0.103353 0.04961,0 0.07442,-0.06201 0.07442,-0.186035 0,-0.458887 0.02067,-0.624251 0.02067,-0.698666 0,-0.04134 -0.0248,-0.06201 -0.08268,-0.07441 -0.157095,-0.04134 -0.463021,-0.09509 -0.855761,-0.09509 -0.835091,0 -1.521354,0.458887 -1.521354,1.169955 0,0.51263 0.235644,0.905371 0.946712,1.322917 l 0.351399,0.202571 c 0.533303,0.318327 0.595314,0.570508 0.595314,0.822689 0,0.413411 -0.318328,0.740007 -0.835092,0.740007 -0.380339,0 -0.830957,-0.144695 -0.959115,-0.574643 -0.03721,-0.103352 -0.05788,-0.227376 -0.05788,-0.30179 0,-0.04134 -0.0041,-0.09508 -0.06201,-0.09508 -0.04547,0 -0.07441,0.06201 -0.07441,0.148828 -0.0041,0.09922 -0.03307,0.458887 -0.03307,0.777213 0,0.128158 0.02067,0.157097 0.115755,0.198438 0.26045,0.115755 0.63252,0.148828 0.979785,0.148828 z m 3.474725,-1.765267 c 0,0.56224 0,1.02526 -0.02893,1.265039 -0.02067,0.173633 -0.05375,0.256315 -0.177768,0.28112 -0.05374,0.0124 -0.124023,0.02067 -0.210841,0.02067 -0.07855,0 -0.09922,0.03307 -0.09922,0.06201 0,0.04134 0.04134,0.06201 0.119891,0.06201 0.235645,0 0.649055,-0.02067 0.785481,-0.02067 0.165365,0 0.574643,0.02067 0.971518,0.02067 0.07028,0 0.119888,-0.02067 0.119888,-0.06201 0,-0.02894 -0.02893,-0.06201 -0.09922,-0.06201 -0.08682,0 -0.223242,-0.0083 -0.305926,-0.02067 -0.177764,-0.0248 -0.219106,-0.115755 -0.239779,-0.272852 -0.02893,-0.248047 -0.02893,-0.711067 -0.02893,-1.273307 v -1.029395 c 0,-0.8847 0,-1.04593 0.01242,-1.231965 0.01654,-0.206706 0.06201,-0.289388 0.227376,-0.314193 0.07028,-0.01654 0.115757,-0.02067 0.177768,-0.02067 0.06201,0 0.09508,-0.01654 0.09508,-0.07028 0,-0.03307 -0.04548,-0.04547 -0.119891,-0.04547 -0.235642,0 -0.624251,0.0124 -0.777212,0.0124 -0.169499,0 -0.582909,-0.0124 -0.806154,-0.0124 -0.09508,0 -0.144692,0.0124 -0.144692,0.04547 0,0.05374 0.03306,0.07028 0.09508,0.07028 0.07441,0 0.15296,0.0041 0.219106,0.0248 0.132292,0.04134 0.194303,0.111621 0.206707,0.310058 0.0083,0.186036 0.0083,0.347266 0.0083,1.231966 z m 5.028116,0.223242 c 0.0248,0 0.04547,0.0083 0.05788,0.04134 l 0.467156,1.174089 c 0.02893,0.06615 -0.01242,0.119889 -0.05375,0.128157 -0.06201,0.0083 -0.07441,0.02894 -0.07441,0.06201 0,0.04134 0.06615,0.04134 0.177765,0.04961 0.504363,0.0124 0.94258,0.0124 1.157552,0.0124 0.223245,0 0.260449,-0.0124 0.260449,-0.06201 0,-0.04134 -0.02893,-0.06201 -0.08268,-0.06201 -0.07028,0 -0.136426,-0.0083 -0.227375,-0.02067 -0.107488,-0.02067 -0.281122,-0.09508 -0.512632,-0.624251 -0.384474,-0.880563 -1.389065,-3.265947 -1.533757,-3.588408 -0.06201,-0.128158 -0.09095,-0.186035 -0.177768,-0.186035 -0.06201,0 -0.111622,0.07028 -0.177768,0.235644 l -1.579231,3.662825 c -0.119888,0.293523 -0.223241,0.475424 -0.496094,0.512631 -0.05788,0 -0.124022,0.0083 -0.181899,0.0083 -0.04548,0 -0.06615,0.02894 -0.06615,0.06201 0,0.04961 0.03306,0.06201 0.107485,0.06201 0.318329,0 0.636654,-0.02067 0.698665,-0.02067 0.194303,0 0.475425,0.02067 0.673862,0.02067 0.06201,0 0.09508,-0.0124 0.09508,-0.06201 0,-0.03307 -0.01242,-0.06201 -0.09095,-0.06201 h -0.08682 c -0.186034,0 -0.239776,-0.06201 -0.239776,-0.165365 0,-0.06615 0.02893,-0.21084 0.08682,-0.355533 l 0.32246,-0.781348 c 0.01655,-0.03307 0.02067,-0.04134 0.05788,-0.04134 z m -1.298112,-0.322461 c -0.02067,0 -0.03306,-0.0124 -0.02067,-0.03721 l 0.582909,-1.475879 c 0.0083,-0.02067 0.01655,-0.05374 0.03721,-0.05374 0.01242,0 0.02067,0.03307 0.0248,0.05374 l 0.570503,1.480016 c 0.0041,0.02067 0,0.03307 -0.02893,0.03307 z m 0,0"
     style="fill: currentColor;fill-opacity:1;fill-rule:nonzero;stroke:none;stroke-width:0.352778"
     aria-label="universitas&#10;indonesia"
     transform="matrix(1.2635055,0,0,1.2635055,-11.034469,-3.0095023)" />
  <path
     id="path111"
     d="M 0,0 H 132.055"
     style="fill:currentColor;stroke:currentColor;stroke-width:0.5;stroke-linecap:butt;stroke-linejoin:miter;stroke-miterlimit:2.613;stroke-dasharray:none;stroke-opacity:1"
     transform="matrix(0.44573664,0,0,-0.44573664,27.667037,20.489273)" />
  <path
     id="path112"
     d="m 34.722106,20.271429 c 0.01654,0.0248 0.02481,0.04547 0.02481,0.06201 0,0.0248 -0.05374,0.07338 -0.161231,0.144694 -0.151928,0.179834 -0.357601,0.483691 -0.615983,0.913639 -0.275952,0.460954 -0.467155,0.825789 -0.574642,1.09554 0.0052,0.02791 0.0083,0.04858 0.0083,0.06201 0,0.04134 -0.03927,0.08061 -0.115755,0.115755 -0.03307,0.01344 -0.06098,0.02067 -0.08268,0.02067 -0.03101,0 -0.07235,-0.02791 -0.124023,-0.08268 -0.01964,-0.0248 -0.02894,-0.04961 -0.02894,-0.07441 0,-0.03514 0.01757,-0.06821 0.05374,-0.09922 -0.0083,-0.410311 -0.06408,-0.819589 -0.165364,-1.227832 -0.09095,-0.360702 -0.19017,-0.61805 -0.297656,-0.77308 -0.03617,-0.05478 -0.08578,-0.08268 -0.148829,-0.08268 -0.06615,0 -0.16123,0.04754 -0.285254,0.14056 -0.01447,0.0083 -0.03101,0.0124 -0.04961,0.0124 -0.03617,0 -0.05374,-0.0124 -0.05374,-0.03721 0,-0.01344 0.0093,-0.03101 0.02894,-0.05374 0.104387,-0.104387 0.236678,-0.200505 0.396875,-0.289388 0.05478,-0.03307 0.09922,-0.04961 0.132292,-0.04961 0.05788,0 0.113688,0.04134 0.169499,0.124024 0.253214,0.37207 0.427881,1.032495 0.525032,1.98024 0.08475,-0.173632 0.249081,-0.472322 0.49196,-0.897102 0.220141,-0.393775 0.345198,-0.611849 0.376204,-0.65319 -0.0248,0.0031 -0.04961,-0.02067 -0.07441,-0.07028 -0.0248,-0.05168 -0.03721,-0.101286 -0.03721,-0.148828 0,-0.04134 0.01033,-0.06201 0.03307,-0.06201 0.02687,0.0031 0.05581,0.0041 0.08682,0.0041 0.03307,-0.0083 0.07545,-0.03514 0.128158,-0.08268 0.03514,-0.03307 0.07028,-0.06408 0.103353,-0.09509 0.03514,-0.0248 0.06304,-0.03721 0.08268,-0.03721 0.04961,0 0.107487,0.04754 0.173633,0.14056 z m 1.170988,1.835547 c -0.300757,0.383439 -0.511596,0.574642 -0.632519,0.574642 -0.05788,0 -0.131258,-0.04031 -0.219108,-0.11989 -0.09405,-0.04341 -0.14056,-0.101286 -0.14056,-0.173633 0,-0.01344 0.001,-0.02894 0.0041,-0.04547 0.0217,-0.167431 0.06718,-0.353467 0.136426,-0.558105 -0.04754,-0.02481 -0.07028,-0.04651 -0.07028,-0.06615 0,-0.0186 0.0124,-0.02894 0.03721,-0.02894 0.0217,0 0.04237,0.0062 0.06201,0.01654 0.109554,-0.244947 0.208772,-0.419613 0.297656,-0.525033 0.05478,-0.06821 0.10542,-0.103353 0.152962,-0.103353 0.0217,0 0.07235,0.0186 0.152962,0.05374 -0.0062,-0.03514 0.0052,-0.05581 0.03307,-0.06201 0.0021,0 0.03101,0 0.08682,0 0.05168,0 0.07855,0.0083 0.07855,0.02481 0,0.0062 -0.0021,0.01654 -0.0041,0.03307 -0.0031,0.01654 -0.0041,0.03307 -0.0041,0.04961 0,0.04444 0,0.09922 0,0.165364 0.0021,0.06408 0.0041,0.106454 0.0041,0.128158 0,0.155029 -0.04341,0.260449 -0.128158,0.318327 -0.07751,0.05788 -0.163297,0.08682 -0.256315,0.08682 -0.05271,0 -0.136426,-0.01344 -0.252181,-0.04134 -0.02274,0.03927 -0.04548,0.113688 -0.07028,0.223242 -0.03617,0.14056 -0.05271,0.264584 -0.04961,0.372071 0.0021,0.06614 0.02274,0.09922 0.06201,0.09922 0.01344,0 0.03307,-0.0041 0.05788,-0.0124 0.142627,-0.05168 0.341065,-0.206706 0.595313,-0.463021 0.01653,-0.01654 0.03307,-0.0248 0.04961,-0.0248 0.0217,0 0.03307,0.01137 0.03307,0.03307 0,0.01447 -0.0062,0.02894 -0.01653,0.04547 z m -0.219108,-0.818555 c 0,-0.04961 -0.01034,-0.07441 -0.02894,-0.07441 -0.01447,0 -0.03307,0.01137 -0.05788,0.03307 -0.121956,0.09715 -0.227376,0.26665 -0.318327,0.508496 0.02481,0.0062 0.06718,0.01033 0.128158,0.0124 0.09922,0.0031 0.173633,-0.0186 0.223242,-0.06615 0.03514,-0.03824 0.05581,-0.100252 0.06201,-0.186035 -0.0062,0.06408 -0.0083,-0.0124 -0.0083,-0.227376 z m 2.125969,-0.04547 c 0,0.160197 -0.02067,0.313159 -0.06201,0.458887 -0.01447,0.04754 -0.03307,0.07028 -0.05788,0.07028 -0.01653,0 -0.05374,-0.0248 -0.111621,-0.07441 -0.03101,-0.0248 -0.03927,-0.05994 -0.0248,-0.107487 0.03514,-0.112654 0.05374,-0.202571 0.05374,-0.268717 0,-0.02481 -0.0062,-0.03721 -0.01653,-0.03721 -0.01447,0 -0.03721,0.02274 -0.07028,0.06615 -0.256315,0.33693 -0.448551,0.711067 -0.574642,1.124479 -0.04134,0.132292 -0.07648,0.198437 -0.103353,0.198437 -0.01137,0 -0.06098,-0.02067 -0.148828,-0.06201 -0.04134,-0.0217 -0.05581,-0.06305 -0.04134,-0.124024 0.09612,-0.426847 0.200505,-0.786515 0.314193,-1.079004 -0.09095,0.09715 -0.148828,0.163298 -0.173633,0.198438 -0.01137,0.01447 -0.0248,0.02067 -0.04134,0.02067 -0.01964,0 -0.02894,-0.0093 -0.02894,-0.02894 0,-0.01034 0.0041,-0.02274 0.0124,-0.03721 0.05994,-0.07131 0.141594,-0.181901 0.243913,-0.330729 0.02997,-0.05478 0.05994,-0.08268 0.09095,-0.08268 0.0217,0 0.06718,0.0186 0.136426,0.05374 0.03824,0.01964 0.04341,0.04547 0.01653,0.07855 -0.0279,0.03617 -0.07855,0.163298 -0.152962,0.380339 -0.07235,0.209806 -0.121957,0.37517 -0.148828,0.496093 0.167431,-0.374137 0.359668,-0.704866 0.574642,-0.992187 0.03824,-0.05168 0.07028,-0.07855 0.09508,-0.07855 0.0217,0 0.05168,0.01447 0.09095,0.04134 0.05168,0.0083 0.08475,0.01654 0.09922,0.0248 0.0186,0.01654 0.02894,0.04754 0.02894,0.09095 z m 1.400431,-0.677995 c 0.0186,0.01447 0.02894,0.03101 0.02894,0.04961 0,0.03617 -0.05271,0.09095 -0.157096,0.165365 -0.07235,0.04961 -0.14056,0.06821 -0.206706,0.05374 -0.03617,-0.0083 -0.06821,-0.0217 -0.09508,-0.04134 -0.0083,-0.0083 -0.0155,-0.01654 -0.02067,-0.0248 -0.0031,-0.0083 -0.0031,-0.01344 0,-0.01654 0.0021,-0.0052 0.0093,-0.0062 0.02067,-0.0041 0.112655,-0.09922 0.187069,-0.170532 0.223243,-0.214974 0.02997,-0.02997 0.05064,-0.04547 0.06201,-0.04547 0.0217,0 0.07028,0.02687 0.144694,0.07855 z m -0.260449,0.810286 c -0.03101,0.165365 -0.107488,0.442351 -0.231511,0.830957 0.03514,-0.03307 0.08475,-0.09198 0.148828,-0.177766 0.0083,-0.01034 0.01653,-0.01654 0.0248,-0.01654 0.0186,0 0.0217,0.0186 0.0083,0.05374 -0.0062,0.01447 -0.05788,0.09819 -0.157096,0.252181 -0.07441,0.118855 -0.128158,0.223242 -0.161231,0.314192 -0.01137,0.02687 -0.03204,0.04134 -0.06201,0.04134 -0.03101,0 -0.07028,-0.01447 -0.11989,-0.04134 -0.03307,-0.01654 -0.04961,-0.02894 -0.04961,-0.03721 0,-0.0083 0.0062,-0.0248 0.02067,-0.04961 0.06821,-0.117822 0.142627,-0.314193 0.223242,-0.587044 0.07648,-0.266651 0.120923,-0.465088 0.132292,-0.595313 0.0021,-0.05478 -0.0031,-0.08268 -0.01653,-0.08268 -0.01137,0 -0.03204,0.01447 -0.06201,0.04134 l -0.111621,0.107487 c -0.04134,0.03617 -0.06201,0.03721 -0.06201,0.0041 0,-0.0083 0.0052,-0.02067 0.01653,-0.03721 0.05788,-0.07958 0.119889,-0.157096 0.186034,-0.23151 0.0186,-0.0186 0.03824,-0.02894 0.05788,-0.02894 0.0186,0 0.04754,0.01447 0.08682,0.04134 0.05478,0.01447 0.08475,0.02274 0.09095,0.02481 0.02997,0.01964 0.04547,0.05271 0.04547,0.09922 0,0.02274 -0.0031,0.04754 -0.0083,0.07441 z m 1.838647,-1.103808 c 0.03307,0.01964 0.04961,0.04031 0.04961,0.06201 0,0.01654 -0.01137,0.0248 -0.03307,0.0248 -0.0062,0 -0.01447,0 -0.0248,0 -0.0083,-0.0021 -0.0155,-0.0041 -0.02067,-0.0041 -0.04754,0 -0.103353,0.05168 -0.169498,0.152962 -0.06098,0.09095 -0.143661,0.289388 -0.248047,0.595313 -0.0083,0.02791 -0.0124,0.04444 -0.0124,0.04961 0.0052,0.0083 0.0217,0.0124 0.04961,0.0124 0.07131,0.0083 0.169499,0.0072 0.293522,-0.0041 0.04134,-0.0052 0.06201,0.01137 0.06201,0.04961 0,0.02791 -0.01654,0.04548 -0.04961,0.05374 -0.0248,0.0031 -0.161231,0.01447 -0.409278,0.03307 -0.146761,0.433048 -0.235644,0.797884 -0.268717,1.09554 0,0.01654 0,0.03204 0,0.04547 0,0.04134 0.0093,0.06201 0.02894,0.06201 0.03307,0 0.133326,-0.08061 0.301791,-0.243913 0.0186,-0.0186 0.03824,-0.02894 0.05788,-0.02894 0.01653,0 0.02584,0.0072 0.02894,0.02067 0.0052,0.01447 0,0.03101 -0.01653,0.04961 -0.09922,0.132291 -0.197404,0.245979 -0.293522,0.338997 -0.04134,0.03824 -0.07441,0.05788 -0.09922,0.05788 -0.0279,0 -0.07028,-0.02274 -0.128157,-0.06615 -0.06925,-0.0186 -0.103353,-0.05581 -0.103353,-0.111621 0,-0.0083 0.001,-0.01757 0.0041,-0.02894 0.04341,-0.31626 0.132292,-0.707967 0.264584,-1.174089 -0.06408,-0.0083 -0.12299,-0.01654 -0.177767,-0.0248 -0.02274,-0.0052 -0.03307,-0.02067 -0.03307,-0.04547 0,-0.02687 0.0124,-0.04341 0.03721,-0.04961 0.0248,-0.0083 0.07028,-0.0217 0.136426,-0.04134 0.04134,-0.01344 0.08062,-0.03307 0.119889,-0.05788 0.129191,-0.407211 0.232544,-0.671794 0.310059,-0.79375 0.04134,-0.06821 0.08682,-0.103353 0.136425,-0.103353 0.04651,0 0.115756,0.0248 0.206706,0.07441 z m 1.721858,1.128613 c -0.115755,0.314193 -0.194303,0.578776 -0.235644,0.79375 0.01654,-0.0186 0.03927,-0.04651 0.07028,-0.08268 0.02997,-0.03514 0.04961,-0.05581 0.05788,-0.06201 0.01653,-0.0217 0.03411,-0.03307 0.05374,-0.03307 0.0186,0 0.02894,0.01034 0.02894,0.02894 0,0.01137 -0.0041,0.02377 -0.0124,0.03721 -0.115755,0.171566 -0.19327,0.345198 -0.231511,0.520898 -0.01137,0.04961 -0.0279,0.07441 -0.04961,0.07441 -0.02274,0 -0.06201,-0.02067 -0.119889,-0.06201 -0.03307,-0.0217 -0.05168,-0.03927 -0.05374,-0.05374 -0.0083,-0.01344 -0.0083,-0.04134 0,-0.08268 0.04961,-0.311092 0.113688,-0.570508 0.194303,-0.777214 -0.107486,0.173633 -0.254248,0.36587 -0.438216,0.574642 -0.163297,0.185002 -0.280086,0.301791 -0.351399,0.3514 -0.05271,0.03514 -0.09302,0.05374 -0.11989,0.05374 -0.02274,0 -0.05581,-0.0186 -0.09922,-0.05374 -0.06614,-0.03824 -0.09922,-0.09198 -0.09922,-0.16123 0,-0.01344 0.0021,-0.02894 0.0041,-0.04548 0.02274,-0.183968 0.101286,-0.396875 0.239779,-0.636653 0.137459,-0.241846 0.295589,-0.447518 0.475423,-0.615983 0.05788,-0.05168 0.109554,-0.07855 0.157096,-0.07855 0.04341,0.0031 0.128158,0.06098 0.252181,0.173632 0.01034,0.01137 0.01653,0.02274 0.01653,0.03307 0,0.01964 -0.0124,0.02894 -0.03721,0.02894 -0.01137,0 -0.02067,-10e-4 -0.02894,-0.0041 -0.08888,-0.03824 -0.159164,-0.03721 -0.21084,0.0041 -0.115755,0.08578 -0.243913,0.234611 -0.384473,0.446484 -0.163298,0.248047 -0.260449,0.470256 -0.293522,0.665593 -0.0031,0.01137 -0.0041,0.01964 -0.0041,0.0248 0,0.03101 0.0124,0.04548 0.03721,0.04548 0.04134,0 0.09095,-0.02894 0.148828,-0.08682 0.137459,-0.132291 0.286287,-0.299723 0.446484,-0.504362 0.159164,-0.211873 0.262516,-0.370003 0.310059,-0.475423 0.03307,-0.07958 0.05478,-0.136426 0.06614,-0.169499 0.01344,-0.05478 0.02997,-0.08268 0.04961,-0.08268 0.0186,0 0.06201,0.0248 0.128157,0.07441 0.02997,0.02274 0.04651,0.04134 0.04961,0.05788 0,0.01654 -0.0062,0.04341 -0.01653,0.07855 z M 44.155122,21.152 c 0,0.05581 -0.0155,0.143661 -0.04547,0.264584 -0.01137,0.04134 -0.02377,0.06925 -0.03721,0.08268 -0.0062,0.0062 -0.02687,0.0155 -0.06201,0.02894 -0.04754,0.01654 -0.07648,0.0248 -0.08682,0.0248 -0.01653,0 -0.0248,-0.0124 -0.0248,-0.03721 0,-0.01344 10e-4,-0.03101 0.0041,-0.05374 0.02997,-0.120923 0.04134,-0.204639 0.03307,-0.252181 -0.0062,-0.04961 0.0093,-0.07958 0.04547,-0.09095 0.05994,-0.02997 0.09922,-0.04547 0.115755,-0.04547 0.03824,0 0.05788,0.02687 0.05788,0.07855 z m -0.297656,1.058334 c 0.0052,0.148828 -0.07648,0.251147 -0.243913,0.305924 -0.02274,0.05271 -0.04341,0.08888 -0.06201,0.107487 -0.0279,0.02687 -0.06925,0.04341 -0.124023,0.04961 -0.03617,0.0021 -0.07441,10e-4 -0.115756,-0.0041 -0.07235,-0.01137 -0.16123,-0.0248 -0.268717,-0.04134 -0.02687,-0.0052 -0.04547,-0.02274 -0.05374,-0.05374 0.0062,-0.03307 0.04134,-0.05168 0.107487,-0.05788 0.08578,-0.0052 0.212908,-0.02067 0.384473,-0.04547 0.06615,-0.01654 0.112655,-0.05374 0.14056,-0.111621 0.01344,-0.02687 0.02067,-0.06305 0.02067,-0.107487 0,-0.07648 -0.03927,-0.212907 -0.115755,-0.409278 -0.07751,-0.192236 -0.113688,-0.320393 -0.107487,-0.384472 0.01034,-0.153996 0.153996,-0.261483 0.429948,-0.322461 0.0248,-0.0052 0.03721,0.0041 0.03721,0.02894 0,0.01654 -0.01034,0.02894 -0.02894,0.03721 -0.132291,0.05788 -0.198437,0.130224 -0.198437,0.214973 0,0.03307 0.0052,0.07441 0.01653,0.124024 0.01344,0.04961 0.05064,0.169499 0.111621,0.359668 0.04651,0.138493 0.07028,0.241846 0.07028,0.310058 z m 1.311547,0 c 0.01034,0.01654 -0.0021,0.05788 -0.03721,0.124023 -0.102319,0.19327 -0.186035,0.38964 -0.252181,0.591178 0.02687,0.01034 0.01757,0.03101 -0.02894,0.06201 -0.04754,0.02997 -0.09095,0.04134 -0.132292,0.03307 -0.01861,-0.0031 -0.02894,-0.0186 -0.02894,-0.04547 0,-0.03617 0.01964,-0.124024 0.05788,-0.264584 0.05478,-0.198437 0.10852,-0.330729 0.16123,-0.396875 0.0217,-0.02687 0.04961,-0.04754 0.08268,-0.06201 0.112655,-0.03824 0.171566,-0.05168 0.177767,-0.04134 z m 3.939811,-1.471745 c -0.03307,0.132292 -0.117822,0.30179 -0.252181,0.508496 -0.135392,0.206706 -0.252181,0.346232 -0.351399,0.417545 -0.06925,0.04961 -0.138493,0.07441 -0.206706,0.07441 -0.03927,0 -0.134359,-0.02997 -0.285254,-0.09095 -0.03101,-0.01033 -0.04547,-0.0248 -0.04547,-0.04134 0,-0.02481 0.03411,-0.03721 0.103353,-0.03721 0.112654,0 0.198437,-0.02274 0.256315,-0.07028 0.117822,-0.08785 0.229443,-0.21084 0.334863,-0.367936 0.137459,-0.198438 0.219108,-0.393775 0.243913,-0.587045 0.01344,-0.104386 -0.02274,-0.166398 -0.107487,-0.186035 -0.03927,-0.0083 -0.07855,-0.0093 -0.11989,-0.0041 -0.190169,0.01137 -0.37517,0.05374 -0.553971,0.128158 -0.204638,0.74414 -0.392741,1.338419 -0.566374,1.781803 0.01034,-0.0021 0.04651,-0.02274 0.107487,-0.06201 0.03514,-0.0217 0.06408,-0.03101 0.08682,-0.02894 0.03514,0.0062 0.07028,0.04134 0.103353,0.107486 0.02997,0.05271 0.04547,0.09302 0.04547,0.11989 0,0.03307 -0.02274,0.04754 -0.06615,0.04134 -0.03101,-0.0021 -0.08165,0.0155 -0.152962,0.05374 -0.07751,0.04134 -0.143661,0.08992 -0.198438,0.144694 -0.02791,0.02687 -0.05684,0.04134 -0.08682,0.04134 -0.04134,0 -0.09095,-0.02791 -0.148828,-0.08268 -0.03927,-0.03514 -0.05581,-0.06615 -0.04961,-0.09095 0.0052,-0.0217 0.02584,-0.03721 0.06201,-0.04547 0.299723,-0.694532 0.522966,-1.328085 0.669727,-1.901693 -0.463021,0.209806 -0.694532,0.40411 -0.694532,0.58291 0,0.02481 0.0041,0.04961 0.0124,0.07441 0.0021,0.01137 0.01344,0.04341 0.03307,0.09509 0.0052,0.01447 0.0083,0.02687 0.0083,0.03721 0,0.03307 -0.01447,0.04961 -0.04134,0.04961 -0.03927,0 -0.111621,-0.107487 -0.219108,-0.322461 -0.01653,-0.02687 -0.0248,-0.05581 -0.0248,-0.08682 0,-0.07441 0.04548,-0.152962 0.136426,-0.235645 0.06304,-0.05788 0.181901,-0.137459 0.355534,-0.239778 0.187069,-0.104387 0.353467,-0.183968 0.500228,-0.239779 0.01653,-0.05994 0.0248,-0.109554 0.0248,-0.148828 0,-0.04651 0.0124,-0.07028 0.03721,-0.07028 0.03307,0 0.09095,0.04444 0.173633,0.132292 0.203605,-0.05788 0.341065,-0.08682 0.413412,-0.08682 0.137459,0.0031 0.235644,0.07441 0.293522,0.214974 0.07441,0.05581 0.121956,0.09818 0.144694,0.128158 0.03307,0.03927 0.04961,0.08475 0.04961,0.136425 0,0.03927 -0.0083,0.09095 -0.0248,0.157097 z m 1.626774,0.504362 c 0,0.160197 -0.02067,0.313159 -0.06201,0.458887 -0.01447,0.04754 -0.03307,0.07028 -0.05788,0.07028 -0.01653,0 -0.05374,-0.0248 -0.111621,-0.07441 -0.03101,-0.0248 -0.03927,-0.05994 -0.0248,-0.107487 0.03514,-0.112654 0.05374,-0.202571 0.05374,-0.268717 0,-0.02481 -0.0062,-0.03721 -0.01653,-0.03721 -0.01447,0 -0.03721,0.02274 -0.07028,0.06615 -0.256315,0.33693 -0.448552,0.711067 -0.574642,1.124479 -0.04134,0.132292 -0.07648,0.198437 -0.103353,0.198437 -0.01137,0 -0.06098,-0.02067 -0.148828,-0.06201 -0.04134,-0.0217 -0.05581,-0.06305 -0.04134,-0.124024 0.09612,-0.426847 0.200504,-0.786515 0.314192,-1.079004 -0.09095,0.09715 -0.148828,0.163298 -0.173632,0.198438 -0.01137,0.01447 -0.0248,0.02067 -0.04134,0.02067 -0.01964,0 -0.02894,-0.0093 -0.02894,-0.02894 0,-0.01034 0.0041,-0.02274 0.0124,-0.03721 0.05994,-0.07131 0.141593,-0.181901 0.243913,-0.330729 0.02997,-0.05478 0.05994,-0.08268 0.09095,-0.08268 0.0217,0 0.06718,0.0186 0.136426,0.05374 0.03824,0.01964 0.04341,0.04547 0.01654,0.07855 -0.02791,0.03617 -0.07855,0.163298 -0.152963,0.380339 -0.07235,0.209806 -0.121956,0.37517 -0.148828,0.496093 0.167432,-0.374137 0.359668,-0.704866 0.574642,-0.992187 0.03824,-0.05168 0.07028,-0.07855 0.09509,-0.07855 0.0217,0 0.05168,0.01447 0.09095,0.04134 0.05168,0.0083 0.08475,0.01654 0.09922,0.0248 0.0186,0.01654 0.02894,0.04754 0.02894,0.09095 z m 1.804541,0.219108 c -0.0031,0.110587 -0.02894,0.255281 -0.07855,0.434082 -0.08061,0.287321 -0.194303,0.508496 -0.343131,0.665592 -0.07751,0.08475 -0.163298,0.128158 -0.256315,0.128158 -0.03927,0 -0.08682,-0.0083 -0.144695,-0.02481 -0.115755,-0.0083 -0.209806,-0.04341 -0.281119,-0.107487 -0.08062,-0.07131 -0.117823,-0.163297 -0.111621,-0.276985 0.0052,-0.129192 0.05064,-0.311093 0.136425,-0.545704 0.09302,-0.256315 0.19017,-0.440283 0.289388,-0.553971 0.04961,-0.05168 0.08888,-0.07855 0.11989,-0.07855 0.04134,0 0.10852,0.04341 0.202571,0.128157 0.02687,-0.01344 0.08062,-0.03721 0.161231,-0.07028 0.03824,-0.01034 0.06821,-0.01654 0.09095,-0.01654 0.04651,0 0.100252,0.04444 0.161231,0.132292 0.03824,0.05581 0.05581,0.117822 0.05374,0.186035 z m -0.214974,0.05374 c 0.01034,-0.08268 0.01654,-0.134358 0.01654,-0.157096 0,-0.05168 -0.01654,-0.07855 -0.04961,-0.07855 -0.01137,0 -0.0279,0.0031 -0.04961,0.0083 l -0.285254,0.115755 c -0.03307,0.01447 -0.05271,0.02067 -0.05788,0.02067 -0.0083,0 -0.0186,-0.0124 -0.02894,-0.03721 -0.07235,0.08888 -0.138493,0.214974 -0.198437,0.380338 -0.04961,0.130225 -0.08268,0.24598 -0.09922,0.347266 -0.01447,0.06925 -0.02067,0.132292 -0.02067,0.190169 0,0.190169 0.05788,0.283187 0.173633,0.276986 0.04651,-0.0021 0.09715,-0.02067 0.152962,-0.05374 0.101286,-0.07131 0.198438,-0.211873 0.289388,-0.421679 0.08475,-0.198438 0.137459,-0.394808 0.157096,-0.591179 z m 2.421558,-1.752864 c 0.01344,0.01137 0.02067,0.02377 0.02067,0.03721 0,0.0248 -0.0155,0.03721 -0.04547,0.03721 -0.01137,0 -0.02274,-0.0041 -0.03307,-0.0124 -0.05788,-0.02997 -0.101286,-0.04548 -0.128158,-0.04548 -0.07751,0 -0.163297,0.07648 -0.256315,0.227377 -0.33383,0.540535 -0.574642,1.247469 -0.72347,2.1208 0.129191,-0.214974 0.225309,-0.367936 0.289388,-0.458886 0.12609,-0.183968 0.258382,-0.338998 0.396875,-0.463021 0.06615,-0.05995 0.12609,-0.09095 0.181901,-0.09095 0.0248,0 0.06615,0.01654 0.124024,0.04961 0.109554,0.05271 0.16123,0.131258 0.152962,0.235644 -0.02274,0.239779 -0.08268,0.475423 -0.181901,0.706934 -0.09715,0.223242 -0.209807,0.399975 -0.338998,0.529166 -0.03927,0.03514 -0.07751,0.05374 -0.115755,0.05374 -0.08061,0 -0.192236,-0.09095 -0.334863,-0.272852 -0.01653,-0.0217 -0.0248,-0.03927 -0.0248,-0.05374 0,-0.0186 0.01034,-0.02894 0.03307,-0.02894 0.0217,0 0.04237,0.0083 0.06201,0.02481 0.07131,0.06408 0.133326,0.09508 0.186036,0.09508 0.04961,0 0.09715,-0.02997 0.144694,-0.09095 0.08475,-0.107487 0.162264,-0.254248 0.23151,-0.44235 0.07958,-0.208773 0.119889,-0.396875 0.119889,-0.56224 0,-0.06304 -0.02274,-0.09509 -0.06614,-0.09509 -0.0248,0 -0.05271,0.0124 -0.08268,0.03721 -0.151928,0.132292 -0.305924,0.318327 -0.46302,0.558106 -0.165365,0.259416 -0.285254,0.508496 -0.359668,0.748275 -0.01447,0.04341 -0.03101,0.06615 -0.04961,0.06615 -0.01137,0 -0.0248,-0.0062 -0.04134,-0.01654 -0.06408,-0.04134 -0.09922,-0.06615 -0.107487,-0.07441 -0.0248,-0.0248 -0.03721,-0.05581 -0.03721,-0.09508 0,-0.0186 0.0041,-0.04237 0.0124,-0.07028 0.142627,-0.785481 0.327628,-1.455208 0.553971,-2.009179 0.167432,-0.413412 0.320394,-0.683163 0.458887,-0.810287 0.03514,-0.03307 0.07028,-0.04961 0.103353,-0.04961 0.03307,0 0.07545,0.02067 0.128157,0.06201 0.06305,0.05271 0.126091,0.103353 0.190169,0.152962 z m 1.483113,0.802018 c 0.0186,0.01447 0.02894,0.03101 0.02894,0.04961 0,0.03617 -0.05271,0.09095 -0.157097,0.165365 -0.07235,0.04961 -0.14056,0.06821 -0.206705,0.05374 -0.03617,-0.0083 -0.06821,-0.0217 -0.09508,-0.04134 -0.0083,-0.0083 -0.0155,-0.01654 -0.02067,-0.0248 -0.0031,-0.0083 -0.0031,-0.01344 0,-0.01654 0.0021,-0.0052 0.0093,-0.0062 0.02067,-0.0041 0.112655,-0.09922 0.187069,-0.170532 0.223242,-0.214974 0.02997,-0.02997 0.05064,-0.04547 0.06201,-0.04547 0.0217,0 0.07028,0.02687 0.144694,0.07855 z m -0.260449,0.810286 c -0.03101,0.165365 -0.107487,0.442351 -0.23151,0.830957 0.03514,-0.03307 0.08475,-0.09198 0.148828,-0.177766 0.0083,-0.01034 0.01654,-0.01654 0.0248,-0.01654 0.0186,0 0.0217,0.0186 0.0083,0.05374 -0.0062,0.01447 -0.05788,0.09819 -0.157097,0.252181 -0.07441,0.118855 -0.128157,0.223242 -0.16123,0.314192 -0.01137,0.02687 -0.03204,0.04134 -0.06201,0.04134 -0.03101,0 -0.07028,-0.01447 -0.119889,-0.04134 -0.03307,-0.01654 -0.04961,-0.02894 -0.04961,-0.03721 0,-0.0083 0.0062,-0.0248 0.02067,-0.04961 0.06821,-0.117822 0.142627,-0.314193 0.223242,-0.587044 0.07648,-0.266651 0.120923,-0.465088 0.132291,-0.595313 0.0021,-0.05478 -0.0031,-0.08268 -0.01653,-0.08268 -0.01137,0 -0.03204,0.01447 -0.06201,0.04134 l -0.111621,0.107487 c -0.04134,0.03617 -0.06201,0.03721 -0.06201,0.0041 0,-0.0083 0.0052,-0.02067 0.01654,-0.03721 0.05788,-0.07958 0.119889,-0.157096 0.186035,-0.23151 0.0186,-0.0186 0.03824,-0.02894 0.05788,-0.02894 0.0186,0 0.04754,0.01447 0.08682,0.04134 0.05478,0.01447 0.08475,0.02274 0.09095,0.02481 0.02997,0.01964 0.04547,0.05271 0.04547,0.09922 0,0.02274 -0.0031,0.04754 -0.0083,0.07441 z m 1.839681,-1.103808 c 0.03307,0.01964 0.04961,0.04031 0.04961,0.06201 0,0.01654 -0.01137,0.0248 -0.03307,0.0248 -0.0062,0 -0.01447,0 -0.0248,0 -0.0083,-0.0021 -0.0155,-0.0041 -0.02067,-0.0041 -0.04754,0 -0.103353,0.05168 -0.169499,0.152962 -0.06098,0.09095 -0.14366,0.289388 -0.248047,0.595313 -0.0083,0.02791 -0.0124,0.04444 -0.0124,0.04961 0.0052,0.0083 0.0217,0.0124 0.04961,0.0124 0.07131,0.0083 0.169499,0.0072 0.293522,-0.0041 0.04134,-0.0052 0.06201,0.01137 0.06201,0.04961 0,0.02791 -0.01654,0.04548 -0.04961,0.05374 -0.0248,0.0031 -0.161231,0.01447 -0.409278,0.03307 -0.146761,0.433048 -0.235644,0.797884 -0.268717,1.09554 0,0.01654 0,0.03204 0,0.04547 0,0.04134 0.0093,0.06201 0.02894,0.06201 0.03307,0 0.133326,-0.08061 0.301791,-0.243913 0.0186,-0.0186 0.03824,-0.02894 0.05788,-0.02894 0.01654,0 0.02584,0.0072 0.02894,0.02067 0.0052,0.01447 0,0.03101 -0.01653,0.04961 -0.09922,0.132291 -0.197404,0.245979 -0.293523,0.338997 -0.04134,0.03824 -0.07441,0.05788 -0.09922,0.05788 -0.02791,0 -0.07028,-0.02274 -0.128158,-0.06615 -0.06925,-0.0186 -0.103353,-0.05581 -0.103353,-0.111621 0,-0.0083 10e-4,-0.01757 0.0041,-0.02894 0.04341,-0.31626 0.132291,-0.707967 0.264583,-1.174089 -0.06408,-0.0083 -0.12299,-0.01654 -0.177767,-0.0248 -0.02274,-0.0052 -0.03307,-0.02067 -0.03307,-0.04547 0,-0.02687 0.0124,-0.04341 0.03721,-0.04961 0.0248,-0.0083 0.07028,-0.0217 0.136426,-0.04134 0.04134,-0.01344 0.08062,-0.03307 0.119889,-0.05788 0.129191,-0.407211 0.232544,-0.671794 0.310059,-0.79375 0.04134,-0.06821 0.08682,-0.103353 0.136426,-0.103353 0.04651,0 0.115755,0.0248 0.206706,0.07441 z m 1.720825,1.128613 c -0.115755,0.314193 -0.194303,0.578776 -0.235645,0.79375 0.01653,-0.0186 0.03927,-0.04651 0.07028,-0.08268 0.02997,-0.03514 0.04961,-0.05581 0.05788,-0.06201 0.01653,-0.0217 0.03411,-0.03307 0.05374,-0.03307 0.0186,0 0.02894,0.01034 0.02894,0.02894 0,0.01137 -0.0041,0.02377 -0.0124,0.03721 -0.115755,0.171566 -0.193269,0.345198 -0.23151,0.520898 -0.01137,0.04961 -0.02791,0.07441 -0.04961,0.07441 -0.02274,0 -0.06201,-0.02067 -0.119889,-0.06201 -0.03307,-0.0217 -0.05168,-0.03927 -0.05374,-0.05374 -0.0083,-0.01344 -0.0083,-0.04134 0,-0.08268 0.04961,-0.311092 0.113688,-0.570508 0.194303,-0.777214 -0.107487,0.173633 -0.254248,0.36587 -0.438216,0.574642 -0.163298,0.185002 -0.280086,0.301791 -0.3514,0.3514 -0.05271,0.03514 -0.09302,0.05374 -0.119889,0.05374 -0.02274,0 -0.05581,-0.0186 -0.09922,-0.05374 -0.06615,-0.03824 -0.09922,-0.09198 -0.09922,-0.16123 0,-0.01344 0.0021,-0.02894 0.0041,-0.04548 0.02274,-0.183968 0.101286,-0.396875 0.239778,-0.636653 0.13746,-0.241846 0.29559,-0.447518 0.475424,-0.615983 0.05788,-0.05168 0.109554,-0.07855 0.157096,-0.07855 0.04341,0.0031 0.128157,0.06098 0.252181,0.173632 0.01034,0.01137 0.01653,0.02274 0.01653,0.03307 0,0.01964 -0.0124,0.02894 -0.03721,0.02894 -0.01137,0 -0.02067,-10e-4 -0.02894,-0.0041 -0.08888,-0.03824 -0.159163,-0.03721 -0.210839,0.0041 -0.115756,0.08578 -0.243913,0.234611 -0.384473,0.446484 -0.163298,0.248047 -0.260449,0.470256 -0.293522,0.665593 -0.0031,0.01137 -0.0041,0.01964 -0.0041,0.0248 0,0.03101 0.0124,0.04548 0.03721,0.04548 0.04134,0 0.09095,-0.02894 0.148828,-0.08682 0.13746,-0.132291 0.286288,-0.299723 0.446485,-0.504362 0.159163,-0.211873 0.262516,-0.370003 0.310058,-0.475423 0.03307,-0.07958 0.05478,-0.136426 0.06615,-0.169499 0.01344,-0.05478 0.02997,-0.08268 0.04961,-0.08268 0.0186,0 0.06201,0.0248 0.128158,0.07441 0.02997,0.02274 0.04651,0.04134 0.04961,0.05788 0,0.01654 -0.0062,0.04341 -0.01653,0.07855 z m 1.654679,-0.248047 c 0,0.05581 -0.0155,0.143661 -0.04548,0.264584 -0.01137,0.04134 -0.02377,0.06925 -0.03721,0.08268 -0.0062,0.0062 -0.02687,0.0155 -0.06201,0.02894 -0.04754,0.01654 -0.07648,0.0248 -0.08682,0.0248 -0.01654,0 -0.0248,-0.0124 -0.0248,-0.03721 0,-0.01344 10e-4,-0.03101 0.0041,-0.05374 0.02997,-0.120923 0.04134,-0.204639 0.03307,-0.252181 -0.0062,-0.04961 0.0093,-0.07958 0.04548,-0.09095 0.05994,-0.02997 0.09922,-0.04547 0.115755,-0.04547 0.03824,0 0.05788,0.02687 0.05788,0.07855 z m -0.297656,1.058334 c 0.0052,0.148828 -0.07648,0.251147 -0.243912,0.305924 -0.02274,0.05271 -0.04341,0.08888 -0.06201,0.107487 -0.0279,0.02687 -0.06925,0.04341 -0.124024,0.04961 -0.03617,0.0021 -0.07441,10e-4 -0.115755,-0.0041 -0.07235,-0.01137 -0.16123,-0.0248 -0.268717,-0.04134 -0.02687,-0.0052 -0.04548,-0.02274 -0.05374,-0.05374 0.0062,-0.03307 0.04134,-0.05168 0.107487,-0.05788 0.08578,-0.0052 0.212907,-0.02067 0.384473,-0.04547 0.06615,-0.01654 0.112655,-0.05374 0.14056,-0.111621 0.01344,-0.02687 0.02067,-0.06305 0.02067,-0.107487 0,-0.07648 -0.03927,-0.212907 -0.115755,-0.409278 -0.07752,-0.192236 -0.113689,-0.320394 -0.107488,-0.384472 0.01034,-0.153996 0.153996,-0.261483 0.429948,-0.322461 0.0248,-0.0052 0.03721,0.0041 0.03721,0.02894 0,0.01654 -0.01034,0.02894 -0.02894,0.03721 -0.132292,0.05788 -0.198437,0.130224 -0.198437,0.214973 0,0.03307 0.0052,0.07441 0.01653,0.124024 0.01344,0.04961 0.05064,0.169499 0.111621,0.359668 0.04651,0.138493 0.07028,0.241846 0.07028,0.310058 z m 1.312581,0 c 0.01034,0.01654 -0.0021,0.05788 -0.03721,0.124023 -0.102319,0.19327 -0.186035,0.38964 -0.25218,0.591178 0.02687,0.01034 0.01757,0.03101 -0.02894,0.06201 -0.04754,0.02997 -0.09095,0.04134 -0.132291,0.03307 -0.0186,-0.0031 -0.02894,-0.0186 -0.02894,-0.04547 0,-0.03617 0.01964,-0.124024 0.05788,-0.264584 0.05478,-0.198437 0.10852,-0.330729 0.16123,-0.396875 0.0217,-0.02687 0.04961,-0.04754 0.08268,-0.06201 0.112654,-0.03824 0.171565,-0.05168 0.177767,-0.04134 z m 3.203939,-1.471745 c -0.04134,0.358634 -0.155029,0.75861 -0.338997,1.198893 -0.214974,0.518831 -0.424781,0.778247 -0.628386,0.781348 -0.121956,0 -0.268717,-0.06511 -0.44235,-0.194304 -0.01447,-0.01034 -0.02067,-0.02584 -0.02067,-0.04547 0,-0.04134 0.0186,-0.06201 0.05788,-0.06201 0.01034,0 0.02067,0.0021 0.02894,0.0041 0.107487,0.05581 0.198437,0.08475 0.272851,0.08682 0.162264,0.0031 0.343132,-0.240812 0.541569,-0.731738 0.187069,-0.473357 0.287321,-0.89917 0.301791,-1.277442 0.0052,-0.120923 -0.05581,-0.181901 -0.181902,-0.181901 -0.01963,0 -0.04031,0.0021 -0.06201,0.0041 -0.09715,0.01447 -0.205672,0.09095 -0.326595,0.231511 -0.138493,0.155029 -0.234611,0.330729 -0.289388,0.529166 -0.0062,0.02791 -0.0083,0.05271 -0.0083,0.07442 0,0.04754 0.01447,0.08888 0.04547,0.124023 0.02687,0.03101 0.05478,0.05995 0.08268,0.08682 0.01344,0.01447 0.02067,0.02687 0.02067,0.03721 0,0.02481 -0.0186,0.03721 -0.05374,0.03721 -0.01654,0 -0.02894,-0.0021 -0.03721,-0.0083 -0.107487,-0.06305 -0.180868,-0.113688 -0.219109,-0.152962 -0.04754,-0.04961 -0.07028,-0.104386 -0.07028,-0.165364 0,-0.05788 0.0217,-0.13746 0.06615,-0.239779 0.06304,-0.148828 0.159163,-0.294556 0.289387,-0.438216 0.117823,-0.13746 0.22531,-0.225309 0.322462,-0.264584 0.04341,-0.0186 0.134358,-0.0083 0.272851,0.03307 0.01034,-0.01034 0.0248,-0.01654 0.04134,-0.01654 0.04651,0 0.14056,0.04547 0.28112,0.136426 0.06304,0.04134 0.08061,0.179834 0.05374,0.413411 z m 2.029851,0.553971 c -0.163297,0.303858 -0.285256,0.660425 -0.367936,1.070736 0.03514,-0.05994 0.07648,-0.13746 0.124022,-0.231511 0.0083,-0.01654 0.01859,-0.0248 0.03306,-0.0248 0.01655,0 0.0248,0.01137 0.0248,0.03307 0,0.0083 -0.0021,0.01654 -0.0041,0.0248 -0.08062,0.181901 -0.132292,0.321428 -0.157099,0.417546 -0.01446,0.05995 -0.03306,0.09095 -0.05788,0.09095 -0.0248,0 -0.07338,-0.02377 -0.144693,-0.07028 -0.03928,-0.02687 -0.05168,-0.07545 -0.03721,-0.144694 0.05168,-0.269751 0.113689,-0.504362 0.186036,-0.702799 -0.237712,0.388607 -0.437183,0.675928 -0.599447,0.859896 -0.03617,0.03824 -0.07441,0.05788 -0.115755,0.05788 -0.03617,0 -0.07752,-0.01447 -0.124024,-0.04134 -0.08266,-0.01344 -0.124005,-0.05788 -0.124005,-0.132291 0,-0.01344 0,-0.02894 0,-0.04548 0.03307,-0.352433 0.09715,-0.644922 0.194303,-0.876432 -0.02274,0.01964 -0.05374,0.04858 -0.09508,0.08682 -0.01653,0.01447 -0.02894,0.01654 -0.03721,0.0083 -0.0083,-0.0052 -0.0062,-0.0186 0.0083,-0.04134 0.06615,-0.09612 0.104386,-0.159163 0.115755,-0.190169 0.03824,-0.09612 0.07855,-0.171566 0.11989,-0.227376 0.0217,-0.0248 0.04547,-0.03721 0.07028,-0.03721 0.03307,0 0.08268,0.01964 0.148828,0.05788 0.01653,0.01137 0.0248,0.02274 0.0248,0.03307 0,0 -0.01447,0.02067 -0.04134,0.06201 -0.06098,0.09405 -0.12609,0.259416 -0.194303,0.496094 -0.07752,0.256315 -0.115755,0.465088 -0.115755,0.624251 0,0.05271 0.01034,0.07855 0.03307,0.07855 0.0186,0 0.05064,-0.0217 0.09508,-0.06615 0.09612,-0.101285 0.233578,-0.293522 0.413412,-0.574642 0.159163,-0.248046 0.256316,-0.409277 0.289388,-0.483691 0.05478,-0.12609 0.09922,-0.200504 0.132292,-0.223242 0.0217,-0.01344 0.04238,-0.02067 0.06201,-0.02067 0.01655,0 0.04961,0.01447 0.09922,0.04134 0.04961,0.02481 0.07441,0.04341 0.07441,0.05374 0,0.0062 -0.0062,0.01137 -0.01654,0.01654 -0.0083,0.0062 -0.01446,0.0124 -0.01654,0.02067 z m 1.565794,-0.14056 c 0,0.05581 -0.01549,0.143661 -0.04547,0.264584 -0.01136,0.04134 -0.02378,0.06925 -0.03721,0.08268 -0.0062,0.0062 -0.02688,0.0155 -0.06201,0.02894 -0.04754,0.01654 -0.07648,0.0248 -0.08682,0.0248 -0.01655,0 -0.0248,-0.0124 -0.0248,-0.03721 0,-0.01344 0.0011,-0.03101 0.0041,-0.05374 0.02999,-0.120923 0.04134,-0.204639 0.03306,-0.252181 -0.0062,-0.04961 0.0093,-0.07958 0.04548,-0.09095 0.05994,-0.02997 0.09922,-0.04547 0.115754,-0.04547 0.03824,0 0.05788,0.02687 0.05788,0.07855 z m -0.297657,1.058334 c 0.0052,0.148828 -0.07648,0.251147 -0.24391,0.305924 -0.02275,0.05271 -0.04341,0.08888 -0.06201,0.107487 -0.02791,0.02687 -0.06925,0.04341 -0.124026,0.04961 -0.03617,0.0021 -0.07441,10e-4 -0.115754,-0.0041 -0.07235,-0.01137 -0.16123,-0.0248 -0.268718,-0.04134 -0.02688,-0.0052 -0.04548,-0.02274 -0.05374,-0.05374 0.0062,-0.03307 0.04134,-0.05168 0.107484,-0.05788 0.08579,-0.0052 0.212909,-0.02067 0.384475,-0.04547 0.06615,-0.01654 0.112653,-0.05374 0.140561,-0.111621 0.01344,-0.02687 0.02067,-0.06305 0.02067,-0.107487 0,-0.07648 -0.03928,-0.212907 -0.115757,-0.409278 -0.07751,-0.192236 -0.113686,-0.320394 -0.107485,-0.384472 0.01034,-0.153996 0.153995,-0.261483 0.429948,-0.322461 0.0248,-0.0052 0.03721,0.0041 0.03721,0.02894 0,0.01654 -0.01034,0.02894 -0.02893,0.03721 -0.132292,0.05788 -0.198437,0.130224 -0.198437,0.214973 0,0.03307 0.0052,0.07441 0.01654,0.124024 0.01344,0.04961 0.05064,0.169499 0.111622,0.359668 0.04651,0.138493 0.07028,0.241846 0.07028,0.310058 z m 1.985409,-1.9389 c 0.03305,0.01964 0.04961,0.04031 0.04961,0.06201 0,0.01654 -0.01136,0.0248 -0.03306,0.0248 -0.0062,0 -0.01446,0 -0.0248,0 -0.0083,-0.0021 -0.01549,-0.0041 -0.02067,-0.0041 -0.04754,0 -0.103354,0.05168 -0.169499,0.152962 -0.06098,0.09095 -0.143659,0.289388 -0.248045,0.595313 -0.0083,0.02791 -0.01242,0.04444 -0.01242,0.04961 0.0052,0.0083 0.0217,0.0124 0.04961,0.0124 0.07131,0.0083 0.169499,0.0072 0.293522,-0.0041 0.04134,-0.0052 0.06201,0.01137 0.06201,0.04961 0,0.02791 -0.01655,0.04548 -0.04961,0.05374 -0.0248,0.0031 -0.161233,0.01447 -0.409278,0.03307 -0.146763,0.433048 -0.235645,0.797884 -0.268718,1.09554 0,0.01654 0,0.03204 0,0.04547 0,0.04134 0.0093,0.06201 0.02893,0.06201 0.03306,0 0.133326,-0.08061 0.301791,-0.243913 0.01859,-0.0186 0.03824,-0.02894 0.05788,-0.02894 0.01655,0 0.02582,0.0072 0.02893,0.02067 0.0052,0.01447 0,0.03101 -0.01655,0.04961 -0.09922,0.132291 -0.197404,0.245979 -0.293522,0.338997 -0.04134,0.03824 -0.07442,0.05788 -0.09922,0.05788 -0.02791,0 -0.07028,-0.02274 -0.128157,-0.06615 -0.06925,-0.0186 -0.103353,-0.05581 -0.103353,-0.111621 0,-0.0083 0.0011,-0.01757 0.0041,-0.02894 0.04341,-0.31626 0.132292,-0.707967 0.264583,-1.174089 -0.06408,-0.0083 -0.122992,-0.01654 -0.177768,-0.0248 -0.02272,-0.0052 -0.03305,-0.02067 -0.03305,-0.04547 0,-0.02687 0.01242,-0.04341 0.03721,-0.04961 0.0248,-0.0083 0.07028,-0.0217 0.136427,-0.04134 0.04134,-0.01344 0.08061,-0.03307 0.119888,-0.05788 0.12919,-0.407211 0.232544,-0.671794 0.31006,-0.79375 0.04134,-0.06821 0.08682,-0.103353 0.136426,-0.103353 0.04651,0 0.115753,0.0248 0.206703,0.07441 z m 1.213365,0.293522 c 0.01859,0.01447 0.02893,0.03101 0.02893,0.04961 0,0.03617 -0.05271,0.09095 -0.157096,0.165365 -0.07235,0.04961 -0.140561,0.06821 -0.206706,0.05374 -0.03617,-0.0083 -0.06821,-0.0217 -0.09508,-0.04134 -0.0083,-0.0083 -0.01552,-0.01654 -0.02067,-0.0248 -0.0032,-0.0083 -0.0032,-0.01344 0,-0.01654 0.0021,-0.0052 0.0093,-0.0062 0.02067,-0.0041 0.112653,-0.09922 0.187068,-0.170532 0.223242,-0.214974 0.02999,-0.02997 0.05064,-0.04547 0.06201,-0.04547 0.0217,0 0.07028,0.02687 0.144695,0.07855 z m -0.260449,0.810286 c -0.03101,0.165365 -0.107488,0.442351 -0.23151,0.830957 0.03514,-0.03307 0.08475,-0.09198 0.148826,-0.177766 0.0083,-0.01034 0.01654,-0.01654 0.0248,-0.01654 0.01859,0 0.0217,0.0186 0.0083,0.05374 -0.0062,0.01447 -0.05788,0.09819 -0.157095,0.252181 -0.07442,0.118855 -0.128157,0.223242 -0.16123,0.314192 -0.01136,0.02687 -0.03203,0.04134 -0.06201,0.04134 -0.03101,0 -0.07028,-0.01447 -0.119892,-0.04134 -0.03306,-0.01654 -0.04961,-0.02894 -0.04961,-0.03721 0,-0.0083 0.0062,-0.0248 0.02067,-0.04961 0.06821,-0.117822 0.142628,-0.314193 0.223242,-0.587044 0.07648,-0.266651 0.120925,-0.465088 0.132291,-0.595313 0.0021,-0.05478 -0.0032,-0.08268 -0.01654,-0.08268 -0.01136,0 -0.03203,0.01447 -0.06201,0.04134 l -0.111623,0.107487 c -0.04134,0.03617 -0.06201,0.03721 -0.06201,0.0041 0,-0.0083 0.0052,-0.02067 0.01655,-0.03721 0.05788,-0.07958 0.119892,-0.157096 0.186038,-0.23151 0.01859,-0.0186 0.03824,-0.02894 0.05788,-0.02894 0.01859,0 0.04754,0.01447 0.08682,0.04134 0.05478,0.01447 0.08475,0.02274 0.09095,0.02481 0.02999,0.01964 0.04547,0.05271 0.04547,0.09922 0,0.02274 -0.0032,0.04754 -0.0083,0.07441 z m 1.838646,-1.103808 c 0.03305,0.01964 0.04961,0.04031 0.04961,0.06201 0,0.01654 -0.01136,0.0248 -0.03306,0.0248 -0.0062,0 -0.01446,0 -0.0248,0 -0.0083,-0.0021 -0.01549,-0.0041 -0.02067,-0.0041 -0.04754,0 -0.103353,0.05168 -0.169499,0.152962 -0.06098,0.09095 -0.143661,0.289388 -0.248048,0.595313 -0.0083,0.02791 -0.01242,0.04444 -0.01242,0.04961 0.0052,0.0083 0.0217,0.0124 0.04961,0.0124 0.07131,0.0083 0.1695,0.0072 0.293522,-0.0041 0.04134,-0.0052 0.06202,0.01137 0.06202,0.04961 0,0.02791 -0.01655,0.04548 -0.04961,0.05374 -0.0248,0.0031 -0.16123,0.01447 -0.409279,0.03307 -0.146759,0.433048 -0.235641,0.797884 -0.268714,1.09554 0,0.01654 0,0.03204 0,0.04547 0,0.04134 0.0093,0.06201 0.02893,0.06201 0.03306,0 0.133325,-0.08061 0.30179,-0.243913 0.01859,-0.0186 0.03824,-0.02894 0.05788,-0.02894 0.01654,0 0.02582,0.0072 0.02893,0.02067 0.0052,0.01447 0,0.03101 -0.01654,0.04961 -0.09922,0.132291 -0.197404,0.245979 -0.293522,0.338997 -0.04134,0.03824 -0.07441,0.05788 -0.09922,0.05788 -0.02791,0 -0.07028,-0.02274 -0.128157,-0.06615 -0.06925,-0.0186 -0.103353,-0.05581 -0.103353,-0.111621 0,-0.0083 0.0011,-0.01757 0.0041,-0.02894 0.04341,-0.31626 0.132292,-0.707967 0.264584,-1.174089 -0.06408,-0.0083 -0.122989,-0.01654 -0.177765,-0.0248 -0.02275,-0.0052 -0.03306,-0.02067 -0.03306,-0.04547 0,-0.02687 0.01242,-0.04341 0.0372,-0.04961 0.0248,-0.0083 0.07028,-0.0217 0.136426,-0.04134 0.04134,-0.01344 0.08062,-0.03307 0.119891,-0.05788 0.129191,-0.407211 0.232544,-0.671794 0.310057,-0.79375 0.04134,-0.06821 0.08682,-0.103353 0.136426,-0.103353 0.04651,0 0.115757,0.0248 0.206706,0.07441 z m 1.213362,0.293522 c 0.01859,0.01447 0.02893,0.03101 0.02893,0.04961 0,0.03617 -0.05271,0.09095 -0.157095,0.165365 -0.07235,0.04961 -0.140561,0.06821 -0.206707,0.05374 -0.03617,-0.0083 -0.06821,-0.0217 -0.09508,-0.04134 -0.0083,-0.0083 -0.01549,-0.01654 -0.02067,-0.0248 -0.0032,-0.0083 -0.0032,-0.01344 0,-0.01654 0.0021,-0.0052 0.0093,-0.0062 0.02067,-0.0041 0.112656,-0.09922 0.187071,-0.170532 0.223245,-0.214974 0.02999,-0.02997 0.05064,-0.04547 0.06201,-0.04547 0.0217,0 0.07028,0.02687 0.144692,0.07855 z m -0.260449,0.810286 c -0.03101,0.165365 -0.107488,0.442351 -0.231511,0.830957 0.03514,-0.03307 0.08475,-0.09198 0.14883,-0.177766 0.0083,-0.01034 0.01655,-0.01654 0.0248,-0.01654 0.01859,0 0.02169,0.0186 0.0083,0.05374 -0.0062,0.01447 -0.05788,0.09819 -0.157099,0.252181 -0.07441,0.118855 -0.128158,0.223242 -0.16123,0.314192 -0.01136,0.02687 -0.03203,0.04134 -0.06201,0.04134 -0.03101,0 -0.07028,-0.01447 -0.119888,-0.04134 -0.03306,-0.01654 -0.04961,-0.02894 -0.04961,-0.03721 0,-0.0083 0.0062,-0.0248 0.02067,-0.04961 0.06821,-0.117822 0.142624,-0.314193 0.223241,-0.587044 0.07648,-0.266651 0.120922,-0.465088 0.132292,-0.595313 0.0021,-0.05478 -0.0032,-0.08268 -0.01655,-0.08268 -0.01136,0 -0.03203,0.01447 -0.06201,0.04134 l -0.111619,0.107487 c -0.04134,0.03617 -0.06201,0.03721 -0.06201,0.0041 0,-0.0083 0.0052,-0.02067 0.01655,-0.03721 0.05788,-0.07958 0.119888,-0.157096 0.186034,-0.23151 0.01859,-0.0186 0.03824,-0.02894 0.05788,-0.02894 0.01859,0 0.04754,0.01447 0.08682,0.04134 0.05477,0.01447 0.08475,0.02274 0.09095,0.02481 0.02999,0.01964 0.04548,0.05271 0.04548,0.09922 0,0.02274 -0.0032,0.04754 -0.0083,0.07441 z m 2.08256,0.02481 c -0.115754,0.314193 -0.194303,0.578776 -0.235645,0.79375 0.01655,-0.0186 0.03928,-0.04651 0.07028,-0.08268 0.02999,-0.03514 0.04961,-0.05581 0.05788,-0.06201 0.01655,-0.0217 0.03411,-0.03307 0.05375,-0.03307 0.01859,0 0.02893,0.01034 0.02893,0.02894 0,0.01137 -0.0041,0.02377 -0.01242,0.03721 -0.115754,0.171566 -0.19327,0.345198 -0.231511,0.520898 -0.01136,0.04961 -0.0279,0.07441 -0.04961,0.07441 -0.02276,0 -0.06201,-0.02067 -0.119892,-0.06201 -0.03306,-0.02171 -0.05168,-0.03927 -0.05374,-0.05374 -0.0083,-0.01344 -0.0083,-0.04134 0,-0.08268 0.04961,-0.311092 0.11369,-0.570508 0.194303,-0.777214 -0.107488,0.173633 -0.254247,0.365869 -0.438217,0.574642 -0.163297,0.185002 -0.280084,0.30179 -0.351399,0.3514 -0.05271,0.03514 -0.09302,0.05374 -0.119888,0.05374 -0.02275,0 -0.05581,-0.0186 -0.09922,-0.05374 -0.06615,-0.03824 -0.09922,-0.09198 -0.09922,-0.161231 0,-0.01344 0.0021,-0.02894 0.0041,-0.04547 0.02272,-0.183968 0.101286,-0.396875 0.239775,-0.636653 0.13746,-0.241846 0.295589,-0.447518 0.475425,-0.615984 0.05788,-0.05168 0.109555,-0.07855 0.157095,-0.07855 0.04341,0.0031 0.128158,0.06098 0.252184,0.173633 0.01034,0.01137 0.01655,0.02274 0.01655,0.03307 0,0.01964 -0.01242,0.02894 -0.03721,0.02894 -0.01136,0 -0.02067,-0.001 -0.02893,-0.0041 -0.08888,-0.03824 -0.159163,-0.03721 -0.210842,0.0041 -0.115753,0.08578 -0.24391,0.234611 -0.384471,0.446484 -0.163297,0.248047 -0.260449,0.470256 -0.293522,0.665593 -0.0032,0.01137 -0.0041,0.01964 -0.0041,0.0248 0,0.03101 0.01242,0.04547 0.03721,0.04547 0.04134,0 0.09095,-0.02894 0.148827,-0.08682 0.13746,-0.132292 0.28629,-0.299723 0.446486,-0.504362 0.159163,-0.211873 0.262516,-0.370003 0.31006,-0.475423 0.03306,-0.07958 0.05478,-0.136426 0.06615,-0.169499 0.01344,-0.05478 0.02999,-0.08268 0.04961,-0.08268 0.01859,0 0.06201,0.0248 0.128157,0.07441 0.02999,0.02274 0.04651,0.04134 0.04961,0.05788 0,0.01654 -0.0062,0.04341 -0.01655,0.07855 z m 0,0"
     style="fill:currentColor;fill-opacity:1;fill-rule:nonzero;stroke:none;stroke-width:0.352778"
     aria-label="Veritas, Probitas, Iustitia"
     transform="matrix(1.2635055,0,0,1.2635055,-11.034469,-3.0095023)" />
</svg>
